<svg width="680" height="1195" viewBox="0 0 680 1195" fill="none" xmlns="http://www.w3.org/2000/svg">
<mask id="path-1-inside-1_19_427" fill="white">
<path d="M187.458 21.3991C170.586 25.0977 153.938 29.6523 137.596 35.1484C129.781 37.7763 122.07 40.6581 114.387 43.6339C112.366 44.4149 109.133 44.6236 115.996 42.9806C113.922 43.4781 111.743 44.7528 109.786 45.5904C105.66 47.3615 101.556 49.1908 97.4854 51.078C66.9347 65.2339 37.9138 82.6429 11.0685 102.987C9.56525 104.125 4.01463 109.229 10.6392 103.268C9.54009 104.255 8.27987 105.137 7.12679 106.067C3.62396 108.882 0.166398 111.748 -3.25222 114.664C-9.58265 120.064 -15.7717 125.636 -21.7955 131.394C-33.2691 142.358 -44.1319 154.004 -54.0292 166.482C-55.3477 168.14 -56.6178 169.838 -57.9251 171.507C-59.7429 173.828 -60.8749 173.039 -56.8372 169.97C-59.7201 172.157 -62.0473 177.384 -64.0424 180.441C-68.2881 186.946 -72.2457 193.648 -75.8612 200.549C-79.2854 207.086 -81.8986 213.975 -85.103 220.6C-80.7185 211.537 -84.9636 220.531 -85.8246 223.165C-87.1506 227.208 -88.34 231.303 -89.3899 235.44C-90.9733 241.68 -92.2442 248.004 -93.1994 254.399C-93.4215 255.899 -93.4729 257.52 -93.8283 258.981C-91.745 250.387 -93.4371 255.533 -93.6528 258.114C-93.9675 261.804 -94.1696 265.506 -94.2614 269.217C-94.4287 275.988 -94.228 282.785 -93.6252 289.564C-93.4615 291.402 -93.2358 293.238 -93.0475 295.074C-92.7787 297.634 -91.3615 299.311 -93.4634 292.158C-92.3603 295.916 -92.0851 300.07 -91.1975 303.903C-89.7504 310.151 -87.9187 316.314 -85.6861 322.339C-84.729 324.921 -81.6863 329.751 -86.3661 320.997C-85.5113 322.596 -84.8798 324.358 -84.0962 325.998C-82.5148 329.304 -80.7995 332.549 -78.9558 335.715C-77.4103 338.364 -75.7736 340.961 -74.0507 343.497C-73.0183 345.01 -71.7886 346.454 -70.8316 348.011C-75.9762 339.668 -73.359 344.695 -71.5597 346.823C-67.0731 352.142 -62.1541 357.084 -56.8742 361.582L-55.3911 362.824C-52.6926 365 -53.3911 364.467 -57.4829 361.223C-55.9713 361.92 -54.4243 363.456 -53.0202 364.397C-50.4968 366.096 -47.9047 367.695 -45.2571 369.179C-43.6667 370.067 -42.0542 370.921 -40.4282 371.734C-39.5617 372.164 -33.9837 374.534 -39.2846 372.379C-44.6284 370.204 -38.9173 372.475 -38.0525 372.802C-35.7922 373.662 -33.5105 374.448 -31.2035 375.16C-28.3246 376.048 -25.4158 376.814 -22.4873 377.459C-20.7708 377.834 -18.8778 377.975 -17.1984 378.487C-24.7515 376.172 -21.8524 377.781 -19.0997 378.075C-12.2008 378.818 -5.57297 378.104 1.26309 378.217C-7.57203 378.063 -2.65096 378.637 0.049035 378.163C1.77954 377.858 3.50044 377.509 5.21095 377.105C8.06925 376.43 10.8296 375.503 13.6337 374.661C19.9363 372.779 6.40037 378.131 12.3232 375.263C13.3643 374.761 14.4254 374.303 15.4657 373.79C19.0581 372.008 22.3542 369.841 25.7121 367.671C27.7598 366.352 29.0795 363.926 23.1288 369.802C24.3323 368.611 25.7754 367.607 27.0281 366.466C29.1391 364.542 31.1532 362.514 33.0665 360.385C34.2135 359.106 35.2763 357.755 36.3948 356.454C40.5748 351.573 32.0896 362.965 35.5956 357.549C37.4688 354.655 39.2801 351.737 40.8684 348.661C41.663 347.128 42.333 345.535 43.1061 343.993C45.3385 339.526 42.2114 346.377 42.105 346.851C42.85 343.513 44.3287 340.302 45.1347 336.951C45.7989 334.177 45.9767 331.183 46.7084 328.452C44.5229 336.632 46.2361 332.812 46.3655 329.78C46.4389 328.041 46.4545 326.302 46.4138 324.558C46.3707 322.809 46.1959 321.071 46.1052 319.322C45.7646 312.832 47.9361 327.094 46.2969 320.742C45.3548 317.089 44.4256 313.495 43.4042 309.86C41.3449 302.534 47.0957 316.299 43.3357 309.668C42.2211 307.701 41.2633 305.677 40.0709 303.749C39.3817 302.638 38.0108 301.132 37.5809 300.004C40.7104 303.997 41.0943 304.579 38.7286 301.753C37.7286 300.634 36.6921 299.553 35.6153 298.511C34.5853 297.514 33.4881 296.611 32.4281 295.653C29.2917 292.81 39.6227 300.494 34.4376 297.313C32.1478 295.909 28.5516 292.653 25.8656 292.392C25.8949 292.397 33.8352 295.419 28.9569 293.757C27.4043 293.227 25.8818 292.63 24.3142 292.147C21.1322 291.164 17.9208 290.606 14.6972 289.862C25.2017 292.285 14.1534 290.027 11.1694 289.899C8.34083 289.775 5.50931 289.774 2.68742 289.872C0.973185 289.93 -0.729842 290.082 -2.43612 290.164C-7.51368 290.407 0.253845 289.855 0.620047 289.776C-3.27909 290.634 -7.36626 290.9 -11.2964 291.704C-22.3234 293.956 -32.9386 297.451 -43.3984 301.463C-48.5819 303.453 -35.2071 298.05 -40.3396 300.22C-41.3373 300.642 -42.3412 301.062 -43.3365 301.488C-45.5489 302.44 -47.747 303.417 -49.9363 304.427C-54.5868 306.572 -59.18 308.844 -63.7087 311.227C-72.832 316.026 -81.7127 321.29 -90.3296 326.948C-94.6381 329.776 -98.8789 332.704 -103.055 335.726C-104.969 337.112 -106.868 338.516 -108.75 339.939C-109.886 340.798 -111.002 341.674 -112.14 342.529C-103.278 335.86 -108.064 339.344 -109.942 340.847C-126.787 354.345 -142.433 369.397 -156.51 385.868C-159.945 389.889 -163.289 393.995 -166.532 398.185C-168.001 400.086 -169.418 402.022 -170.87 403.934C-163.597 394.349 -171.001 404.257 -172.64 406.668C-178.504 415.292 -183.927 424.239 -188.816 433.499C-191.225 438.062 -193.504 442.705 -195.639 447.423C-196.603 449.55 -197.537 451.691 -198.436 453.847C-198.974 455.138 -199.493 456.434 -200.023 457.731C-202.12 462.88 -197.299 450.365 -199.066 455.29C-202.64 465.262 -205.734 475.381 -207.918 485.823C-208.95 490.748 -209.736 495.718 -210.443 500.714C-210.755 502.927 -210.809 506.51 -209.985 496.567C-210.099 497.933 -210.264 499.295 -210.382 500.663C-210.615 503.397 -210.788 506.135 -210.898 508.88C-211.101 513.916 -211.09 518.966 -210.864 524.013C-210.76 526.315 -210.611 528.614 -210.418 530.915C-210.149 534.07 -208.027 545.821 -210.292 533.574C-208.379 543.904 -206.265 553.996 -202.836 563.996C-202.044 566.309 -201.198 568.607 -200.309 570.887C-199.347 573.35 -196.697 578.451 -201.457 568.25C-200.821 569.607 -200.257 571.005 -199.633 572.369C-196.924 578.296 -193.913 584.087 -190.573 589.688C-188.626 592.959 -186.568 596.166 -184.405 599.301C-183.427 600.719 -182.393 602.099 -181.403 603.511C-178.665 607.421 -186.939 596.732 -182.368 602.234C-177.073 608.595 -171.67 614.751 -165.733 620.505C-163.262 622.901 -160.731 625.235 -158.149 627.511C-155.676 629.691 -150.183 632.655 -148.606 635.468C-148.901 634.939 -154.977 630.709 -150.355 634.049C-148.669 635.268 -147.009 636.524 -145.313 637.731C-141.911 640.157 -138.452 642.489 -134.949 644.752C-121.398 653.502 -107.157 661.071 -92.5793 667.757C-91.3081 668.34 -90.0283 668.901 -88.7611 669.486C-82.0188 672.583 -95.5315 666.697 -88.6881 669.521C-85.1574 670.98 -81.6297 672.452 -78.0744 673.852C-70.5203 676.828 -62.8951 679.597 -55.2368 682.259C-24.6197 692.888 6.53776 701.607 37.1589 712.234C68.7512 723.198 100.82 735.93 129.235 754.406C158.026 773.123 183.385 796.855 202.576 825.801C220.418 852.722 231.539 886.106 230.039 918.222C228.346 954.493 213.745 986.11 192.54 1013.98C152.701 1066.35 86.8392 1105.27 18.9854 1091.28C-38.5395 1079.42 -82.2441 1027.87 -101.163 973.339C-121.833 913.76 -107.813 848.381 -80.9593 795.222C-66.7613 767.116 -48.2154 741.252 -27.932 717.547C-4.48259 690.141 22.6454 665.85 52.5887 645.986C105.813 610.683 172.534 590.858 237.481 599.31C271.432 603.73 303.629 614.361 333.783 631.916C362.666 648.734 388.926 670.889 412.775 694.557C463.45 744.845 508.081 802.658 546.869 862.727C586.463 924.045 619.187 989.427 645.741 1057.31C658.253 1089.31 669.127 1121.9 678.389 1154.93C683.026 1171.45 672.949 1190.89 656.26 1194.24C639.307 1197.65 621.897 1187.92 616.926 1170.2C607.238 1135.66 595.785 1101.59 582.542 1068.18C580.94 1064.14 579.295 1060.12 577.667 1056.1C574.573 1048.44 580.656 1063.08 577.422 1055.49C576.803 1054.03 576.191 1052.58 575.569 1051.13C571.846 1042.41 568.002 1033.74 564.042 1025.13C556.451 1008.61 548.427 992.295 539.986 976.194C523.47 944.691 505.348 914.027 485.718 884.366C476.121 869.868 466.161 855.609 455.857 841.614C453.072 837.835 450.415 833.773 447.347 830.224C452.581 836.279 449.539 833.078 448.386 831.585C446.935 829.713 445.49 827.832 444.035 825.962C438.209 818.486 432.276 811.094 426.252 803.788C404.922 777.933 382.524 752.717 358.126 729.818C352.463 724.501 346.673 719.322 340.743 714.319C338.056 712.053 335.32 709.849 332.594 707.634C326.781 702.909 338.657 712.125 332.641 707.689C330.39 706.031 328.167 704.34 325.895 702.71C313.478 693.791 300.427 685.788 286.752 679.164C284.89 678.262 283.005 677.411 281.13 676.533C274.741 673.546 286.4 678.618 282.083 676.968C278.531 675.61 275.018 674.162 271.429 672.913C263.94 670.297 256.311 668.136 248.606 666.426C245.398 665.717 242.176 665.132 238.957 664.523C232.018 663.208 246.292 665.4 239.297 664.591C237.673 664.405 236.051 664.174 234.426 663.994C226.945 663.157 219.434 662.718 211.94 662.655C204.748 662.593 197.57 662.876 190.427 663.486C189.778 663.541 189.127 663.603 188.478 663.658C185.097 663.996 185.878 663.903 190.827 663.382C189.435 663.899 187.467 663.801 185.973 664.013C181.77 664.6 177.588 665.296 173.426 666.102C159.341 668.83 145.527 672.795 132.164 677.888C131.559 678.121 130.955 678.355 130.346 678.59C127.118 679.87 127.931 679.539 132.789 677.598C131.407 678.782 128.529 679.413 126.864 680.16C123.432 681.69 120.032 683.294 116.67 684.971C108.607 688.981 100.744 693.383 93.0939 698.135C86.0775 702.494 79.2448 707.143 72.5972 712.05C71.086 713.164 69.5987 714.32 68.0899 715.439C64.1709 718.357 74.381 710.282 68.55 715.102C64.7749 718.223 60.9855 721.32 57.2977 724.556C44.5185 735.755 32.5361 747.877 21.3191 760.703C16.0157 766.767 10.8775 772.988 5.92188 779.352C3.9957 781.824 2.15124 784.365 0.229815 786.846C6.06217 779.32 1.83929 784.666 0.663506 786.325C-0.797869 788.386 -2.24182 790.459 -3.65959 792.55C-11.4738 804.061 -18.6409 816.053 -24.9438 828.526C-28.0791 834.731 -30.9985 841.054 -33.6687 847.497C-34.4492 849.374 -36.6168 855.792 -33.5087 846.887C-33.9239 848.079 -34.3987 849.251 -34.829 850.436C-36.3316 854.575 -37.7335 858.76 -39.0084 862.983C-40.9137 869.287 -42.5595 875.685 -43.9015 882.16C-44.6021 885.539 -45.2264 888.939 -45.7604 892.359C-46.0368 894.122 -46.0351 896.274 -46.5551 897.962C-44.3237 890.759 -46.1416 894.077 -46.4245 897.237C-47.0396 904.157 -47.2787 911.125 -47.1221 918.101C-47.043 921.613 -46.8584 925.125 -46.5771 928.631C-46.4615 930.057 -46.3292 931.484 -46.1724 932.908C-45.2276 941.505 -47.2668 927.189 -46.198 932.791C-45.0374 938.862 -43.784 944.874 -42.0265 950.827C-41.2294 953.534 -40.3594 956.22 -39.4212 958.879C-38.8558 960.48 -38.2365 962.056 -37.6528 963.652C-35.4742 969.62 -40.9229 956.37 -38.4637 961.79C-35.8874 967.469 -33.1679 973.048 -30.0402 978.446C-28.3467 981.379 -26.5582 984.257 -24.6834 987.074C-22.888 989.772 -15.3883 998.644 -23.1467 989.635C-19.1345 994.297 -15.3734 999.054 -11.0302 1003.42C-9.08689 1005.38 -7.08814 1007.27 -5.03639 1009.11C-3.81043 1010.21 -2.56782 1011.28 -1.30627 1012.33C4.615 1017.26 -4.09708 1010.43 -2.20961 1011.66C2.55597 1014.77 7.08788 1018.11 12.0797 1020.85C14.7009 1022.29 25.0508 1026.26 14.5687 1022.45C17.5772 1023.55 20.4964 1024.83 23.5483 1025.81C26.3416 1026.72 29.1689 1027.5 32.0197 1028.15C33.3229 1028.45 34.6364 1028.7 35.9404 1028.98C41.9774 1030.3 28.0447 1028.13 34.1948 1028.71C37.026 1028.98 39.835 1029.28 42.6683 1029.38C44.6761 1029.46 46.6894 1029.47 48.6947 1029.43C50.512 1029.39 55.0616 1028.22 56.6565 1028.96C56.0606 1028.68 49.016 1030.14 54.3795 1029.12C56.3264 1028.75 58.2885 1028.47 60.2354 1028.07C63.8008 1027.34 67.324 1026.44 70.801 1025.39C74.1711 1024.37 77.6902 1022.42 81.1274 1021.8C79.7406 1022.35 78.3538 1022.9 76.967 1023.45C78.1905 1022.93 79.4108 1022.39 80.6192 1021.83C82.4393 1021 84.2435 1020.11 86.027 1019.2C92.6134 1015.85 98.959 1012.02 105.054 1007.84C107.573 1006.11 110.405 1002.98 113.24 1001.9C112.075 1002.81 110.914 1003.72 109.747 1004.62C110.799 1003.79 111.845 1002.93 112.881 1002.08C114.948 1000.36 116.983 998.608 118.987 996.818C124.218 992.14 129.245 987.216 134.009 982.048C136.163 979.714 138.266 977.327 140.312 974.89C141.538 973.428 142.748 971.947 143.93 970.444C145.575 968.354 147.593 963.681 143.664 970.989C146.949 964.879 151.502 959.436 154.831 953.284C156.632 949.954 158.313 946.554 159.846 943.081C160.35 941.942 160.765 940.694 161.326 939.599C157.008 948.007 160.84 940.777 161.623 938.375C162.597 935.379 163.452 932.341 164.193 929.269C164.98 925.995 164.853 920.973 166.294 918.054C164.318 922.059 165.794 923.983 165.972 920.57C166.074 918.633 166.239 916.715 166.293 914.778C166.404 910.936 166.311 907.079 166.016 903.229C165.873 901.4 165.375 899.347 165.434 897.528C165.169 905.777 165.992 901.486 165.392 898.417C164.782 895.311 164.043 892.229 163.188 889.175C162.157 885.496 160.852 881.937 159.607 878.327C157.813 873.134 160.586 880.708 160.851 881.15C159.564 879.012 158.739 876.421 157.621 874.175C154.453 867.792 150.817 861.64 146.81 855.753C145.891 854.399 144.949 853.06 143.989 851.736C142.205 849.268 139.279 847.603 145.19 853.229C141.927 850.123 139.273 845.965 136.223 842.604C131.732 837.651 126.999 832.931 122.072 828.44C119.099 825.733 116.055 823.106 112.948 820.56C112.306 820.033 107.207 815.668 111.576 819.419C115.998 823.217 109.379 817.845 108.507 817.214C95.7473 807.985 82.116 800.229 68.0421 793.417C64.8029 791.85 61.5448 790.333 58.2693 788.859C57.6139 788.565 56.9585 788.272 56.2991 787.98C53.1118 786.576 53.6703 786.821 57.9765 788.708C56.6896 787.733 54.5075 787.247 53.0103 786.629C45.3688 783.484 37.6561 780.545 29.8986 777.748C14.3199 772.135 -1.42675 767.109 -17.1947 762.156C-81.4771 741.959 -145.966 720.828 -198.988 675.823C-243.434 638.098 -271.01 583.15 -274.541 525.271C-277.399 478.392 -262.971 431.602 -240.396 392.155C-216.235 349.936 -183.036 314.848 -145.071 285.551C-128.583 272.826 -111.032 261.494 -92.4505 252.083C-71.3383 241.393 -48.6004 231.946 -25.1249 227.718C5.09896 222.271 39.6018 223.238 66.3782 242.281C101.062 266.942 115.189 309.226 108.107 349.885C102.485 382.179 81.3559 410.932 54.3439 427.512C26.0239 444.891 -9.8736 447.582 -42.2463 439.035C-76.1453 430.086 -104.535 408.076 -125.49 379.587C-144.715 353.453 -154.121 321.613 -157.263 289.901C-163.932 222.647 -134.97 160.406 -93.5671 111.736C-70.9941 85.2 -44.3452 62.485 -16.4455 41.9725C10.6867 22.0242 39.95 5.02603 70.7036 -8.69619C102.704 -22.9842 135.898 -34.4195 170.249 -41.9569C186.418 -45.5025 205.6 -35.5148 209.587 -17.9171C213.425 -0.971273 204.795 17.598 187.458 21.3991Z"/>
</mask>
<path d="M187.458 21.3991C170.586 25.0977 153.938 29.6523 137.596 35.1484C129.781 37.7763 122.07 40.6581 114.387 43.6339C112.366 44.4149 109.133 44.6236 115.996 42.9806C113.922 43.4781 111.743 44.7528 109.786 45.5904C105.66 47.3615 101.556 49.1908 97.4854 51.078C66.9347 65.2339 37.9138 82.6429 11.0685 102.987C9.56525 104.125 4.01463 109.229 10.6392 103.268C9.54009 104.255 8.27987 105.137 7.12679 106.067C3.62396 108.882 0.166398 111.748 -3.25222 114.664C-9.58265 120.064 -15.7717 125.636 -21.7955 131.394C-33.2691 142.358 -44.1319 154.004 -54.0292 166.482C-55.3477 168.14 -56.6178 169.838 -57.9251 171.507C-59.7429 173.828 -60.8749 173.039 -56.8372 169.97C-59.7201 172.157 -62.0473 177.384 -64.0424 180.441C-68.2881 186.946 -72.2457 193.648 -75.8612 200.549C-79.2854 207.086 -81.8986 213.975 -85.103 220.6C-80.7185 211.537 -84.9636 220.531 -85.8246 223.165C-87.1506 227.208 -88.34 231.303 -89.3899 235.44C-90.9733 241.68 -92.2442 248.004 -93.1994 254.399C-93.4215 255.899 -93.4729 257.52 -93.8283 258.981C-91.745 250.387 -93.4371 255.533 -93.6528 258.114C-93.9675 261.804 -94.1696 265.506 -94.2614 269.217C-94.4287 275.988 -94.228 282.785 -93.6252 289.564C-93.4615 291.402 -93.2358 293.238 -93.0475 295.074C-92.7787 297.634 -91.3615 299.311 -93.4634 292.158C-92.3603 295.916 -92.0851 300.07 -91.1975 303.903C-89.7504 310.151 -87.9187 316.314 -85.6861 322.339C-84.729 324.921 -81.6863 329.751 -86.3661 320.997C-85.5113 322.596 -84.8798 324.358 -84.0962 325.998C-82.5148 329.304 -80.7995 332.549 -78.9558 335.715C-77.4103 338.364 -75.7736 340.961 -74.0507 343.497C-73.0183 345.01 -71.7886 346.454 -70.8316 348.011C-75.9762 339.668 -73.359 344.695 -71.5597 346.823C-67.0731 352.142 -62.1541 357.084 -56.8742 361.582L-55.3911 362.824C-52.6926 365 -53.3911 364.467 -57.4829 361.223C-55.9713 361.92 -54.4243 363.456 -53.0202 364.397C-50.4968 366.096 -47.9047 367.695 -45.2571 369.179C-43.6667 370.067 -42.0542 370.921 -40.4282 371.734C-39.5617 372.164 -33.9837 374.534 -39.2846 372.379C-44.6284 370.204 -38.9173 372.475 -38.0525 372.802C-35.7922 373.662 -33.5105 374.448 -31.2035 375.16C-28.3246 376.048 -25.4158 376.814 -22.4873 377.459C-20.7708 377.834 -18.8778 377.975 -17.1984 378.487C-24.7515 376.172 -21.8524 377.781 -19.0997 378.075C-12.2008 378.818 -5.57297 378.104 1.26309 378.217C-7.57203 378.063 -2.65096 378.637 0.049035 378.163C1.77954 377.858 3.50044 377.509 5.21095 377.105C8.06925 376.43 10.8296 375.503 13.6337 374.661C19.9363 372.779 6.40037 378.131 12.3232 375.263C13.3643 374.761 14.4254 374.303 15.4657 373.79C19.0581 372.008 22.3542 369.841 25.7121 367.671C27.7598 366.352 29.0795 363.926 23.1288 369.802C24.3323 368.611 25.7754 367.607 27.0281 366.466C29.1391 364.542 31.1532 362.514 33.0665 360.385C34.2135 359.106 35.2763 357.755 36.3948 356.454C40.5748 351.573 32.0896 362.965 35.5956 357.549C37.4688 354.655 39.2801 351.737 40.8684 348.661C41.663 347.128 42.333 345.535 43.1061 343.993C45.3385 339.526 42.2114 346.377 42.105 346.851C42.85 343.513 44.3287 340.302 45.1347 336.951C45.7989 334.177 45.9767 331.183 46.7084 328.452C44.5229 336.632 46.2361 332.812 46.3655 329.78C46.4389 328.041 46.4545 326.302 46.4138 324.558C46.3707 322.809 46.1959 321.071 46.1052 319.322C45.7646 312.832 47.9361 327.094 46.2969 320.742C45.3548 317.089 44.4256 313.495 43.4042 309.86C41.3449 302.534 47.0957 316.299 43.3357 309.668C42.2211 307.701 41.2633 305.677 40.0709 303.749C39.3817 302.638 38.0108 301.132 37.5809 300.004C40.7104 303.997 41.0943 304.579 38.7286 301.753C37.7286 300.634 36.6921 299.553 35.6153 298.511C34.5853 297.514 33.4881 296.611 32.4281 295.653C29.2917 292.81 39.6227 300.494 34.4376 297.313C32.1478 295.909 28.5516 292.653 25.8656 292.392C25.8949 292.397 33.8352 295.419 28.9569 293.757C27.4043 293.227 25.8818 292.63 24.3142 292.147C21.1322 291.164 17.9208 290.606 14.6972 289.862C25.2017 292.285 14.1534 290.027 11.1694 289.899C8.34083 289.775 5.50931 289.774 2.68742 289.872C0.973185 289.93 -0.729842 290.082 -2.43612 290.164C-7.51368 290.407 0.253845 289.855 0.620047 289.776C-3.27909 290.634 -7.36626 290.9 -11.2964 291.704C-22.3234 293.956 -32.9386 297.451 -43.3984 301.463C-48.5819 303.453 -35.2071 298.05 -40.3396 300.22C-41.3373 300.642 -42.3412 301.062 -43.3365 301.488C-45.5489 302.44 -47.747 303.417 -49.9363 304.427C-54.5868 306.572 -59.18 308.844 -63.7087 311.227C-72.832 316.026 -81.7127 321.29 -90.3296 326.948C-94.6381 329.776 -98.8789 332.704 -103.055 335.726C-104.969 337.112 -106.868 338.516 -108.75 339.939C-109.886 340.798 -111.002 341.674 -112.14 342.529C-103.278 335.86 -108.064 339.344 -109.942 340.847C-126.787 354.345 -142.433 369.397 -156.51 385.868C-159.945 389.889 -163.289 393.995 -166.532 398.185C-168.001 400.086 -169.418 402.022 -170.87 403.934C-163.597 394.349 -171.001 404.257 -172.64 406.668C-178.504 415.292 -183.927 424.239 -188.816 433.499C-191.225 438.062 -193.504 442.705 -195.639 447.423C-196.603 449.55 -197.537 451.691 -198.436 453.847C-198.974 455.138 -199.493 456.434 -200.023 457.731C-202.12 462.88 -197.299 450.365 -199.066 455.29C-202.64 465.262 -205.734 475.381 -207.918 485.823C-208.95 490.748 -209.736 495.718 -210.443 500.714C-210.755 502.927 -210.809 506.51 -209.985 496.567C-210.099 497.933 -210.264 499.295 -210.382 500.663C-210.615 503.397 -210.788 506.135 -210.898 508.88C-211.101 513.916 -211.09 518.966 -210.864 524.013C-210.76 526.315 -210.611 528.614 -210.418 530.915C-210.149 534.07 -208.027 545.821 -210.292 533.574C-208.379 543.904 -206.265 553.996 -202.836 563.996C-202.044 566.309 -201.198 568.607 -200.309 570.887C-199.347 573.35 -196.697 578.451 -201.457 568.25C-200.821 569.607 -200.257 571.005 -199.633 572.369C-196.924 578.296 -193.913 584.087 -190.573 589.688C-188.626 592.959 -186.568 596.166 -184.405 599.301C-183.427 600.719 -182.393 602.099 -181.403 603.511C-178.665 607.421 -186.939 596.732 -182.368 602.234C-177.073 608.595 -171.67 614.751 -165.733 620.505C-163.262 622.901 -160.731 625.235 -158.149 627.511C-155.676 629.691 -150.183 632.655 -148.606 635.468C-148.901 634.939 -154.977 630.709 -150.355 634.049C-148.669 635.268 -147.009 636.524 -145.313 637.731C-141.911 640.157 -138.452 642.489 -134.949 644.752C-121.398 653.502 -107.157 661.071 -92.5793 667.757C-91.3081 668.34 -90.0283 668.901 -88.7611 669.486C-82.0188 672.583 -95.5315 666.697 -88.6881 669.521C-85.1574 670.98 -81.6297 672.452 -78.0744 673.852C-70.5203 676.828 -62.8951 679.597 -55.2368 682.259C-24.6197 692.888 6.53776 701.607 37.1589 712.234C68.7512 723.198 100.82 735.93 129.235 754.406C158.026 773.123 183.385 796.855 202.576 825.801C220.418 852.722 231.539 886.106 230.039 918.222C228.346 954.493 213.745 986.11 192.54 1013.98C152.701 1066.35 86.8392 1105.27 18.9854 1091.28C-38.5395 1079.42 -82.2441 1027.87 -101.163 973.339C-121.833 913.76 -107.813 848.381 -80.9593 795.222C-66.7613 767.116 -48.2154 741.252 -27.932 717.547C-4.48259 690.141 22.6454 665.85 52.5887 645.986C105.813 610.683 172.534 590.858 237.481 599.31C271.432 603.73 303.629 614.361 333.783 631.916C362.666 648.734 388.926 670.889 412.775 694.557C463.45 744.845 508.081 802.658 546.869 862.727C586.463 924.045 619.187 989.427 645.741 1057.31C658.253 1089.31 669.127 1121.9 678.389 1154.93C683.026 1171.45 672.949 1190.89 656.26 1194.24C639.307 1197.65 621.897 1187.92 616.926 1170.2C607.238 1135.66 595.785 1101.59 582.542 1068.18C580.94 1064.14 579.295 1060.12 577.667 1056.1C574.573 1048.44 580.656 1063.08 577.422 1055.49C576.803 1054.03 576.191 1052.58 575.569 1051.13C571.846 1042.41 568.002 1033.74 564.042 1025.13C556.451 1008.61 548.427 992.295 539.986 976.194C523.47 944.691 505.348 914.027 485.718 884.366C476.121 869.868 466.161 855.609 455.857 841.614C453.072 837.835 450.415 833.773 447.347 830.224C452.581 836.279 449.539 833.078 448.386 831.585C446.935 829.713 445.49 827.832 444.035 825.962C438.209 818.486 432.276 811.094 426.252 803.788C404.922 777.933 382.524 752.717 358.126 729.818C352.463 724.501 346.673 719.322 340.743 714.319C338.056 712.053 335.32 709.849 332.594 707.634C326.781 702.909 338.657 712.125 332.641 707.689C330.39 706.031 328.167 704.34 325.895 702.71C313.478 693.791 300.427 685.788 286.752 679.164C284.89 678.262 283.005 677.411 281.13 676.533C274.741 673.546 286.4 678.618 282.083 676.968C278.531 675.61 275.018 674.162 271.429 672.913C263.94 670.297 256.311 668.136 248.606 666.426C245.398 665.717 242.176 665.132 238.957 664.523C232.018 663.208 246.292 665.4 239.297 664.591C237.673 664.405 236.051 664.174 234.426 663.994C226.945 663.157 219.434 662.718 211.94 662.655C204.748 662.593 197.57 662.876 190.427 663.486C189.778 663.541 189.127 663.603 188.478 663.658C185.097 663.996 185.878 663.903 190.827 663.382C189.435 663.899 187.467 663.801 185.973 664.013C181.77 664.6 177.588 665.296 173.426 666.102C159.341 668.83 145.527 672.795 132.164 677.888C131.559 678.121 130.955 678.355 130.346 678.59C127.118 679.87 127.931 679.539 132.789 677.598C131.407 678.782 128.529 679.413 126.864 680.16C123.432 681.69 120.032 683.294 116.67 684.971C108.607 688.981 100.744 693.383 93.0939 698.135C86.0775 702.494 79.2448 707.143 72.5972 712.05C71.086 713.164 69.5987 714.32 68.0899 715.439C64.1709 718.357 74.381 710.282 68.55 715.102C64.7749 718.223 60.9855 721.32 57.2977 724.556C44.5185 735.755 32.5361 747.877 21.3191 760.703C16.0157 766.767 10.8775 772.988 5.92188 779.352C3.9957 781.824 2.15124 784.365 0.229815 786.846C6.06217 779.32 1.83929 784.666 0.663506 786.325C-0.797869 788.386 -2.24182 790.459 -3.65959 792.55C-11.4738 804.061 -18.6409 816.053 -24.9438 828.526C-28.0791 834.731 -30.9985 841.054 -33.6687 847.497C-34.4492 849.374 -36.6168 855.792 -33.5087 846.887C-33.9239 848.079 -34.3987 849.251 -34.829 850.436C-36.3316 854.575 -37.7335 858.76 -39.0084 862.983C-40.9137 869.287 -42.5595 875.685 -43.9015 882.16C-44.6021 885.539 -45.2264 888.939 -45.7604 892.359C-46.0368 894.122 -46.0351 896.274 -46.5551 897.962C-44.3237 890.759 -46.1416 894.077 -46.4245 897.237C-47.0396 904.157 -47.2787 911.125 -47.1221 918.101C-47.043 921.613 -46.8584 925.125 -46.5771 928.631C-46.4615 930.057 -46.3292 931.484 -46.1724 932.908C-45.2276 941.505 -47.2668 927.189 -46.198 932.791C-45.0374 938.862 -43.784 944.874 -42.0265 950.827C-41.2294 953.534 -40.3594 956.22 -39.4212 958.879C-38.8558 960.48 -38.2365 962.056 -37.6528 963.652C-35.4742 969.62 -40.9229 956.37 -38.4637 961.79C-35.8874 967.469 -33.1679 973.048 -30.0402 978.446C-28.3467 981.379 -26.5582 984.257 -24.6834 987.074C-22.888 989.772 -15.3883 998.644 -23.1467 989.635C-19.1345 994.297 -15.3734 999.054 -11.0302 1003.42C-9.08689 1005.38 -7.08814 1007.27 -5.03639 1009.11C-3.81043 1010.21 -2.56782 1011.28 -1.30627 1012.33C4.615 1017.26 -4.09708 1010.43 -2.20961 1011.66C2.55597 1014.77 7.08788 1018.11 12.0797 1020.85C14.7009 1022.29 25.0508 1026.26 14.5687 1022.45C17.5772 1023.55 20.4964 1024.83 23.5483 1025.81C26.3416 1026.72 29.1689 1027.5 32.0197 1028.15C33.3229 1028.45 34.6364 1028.7 35.9404 1028.98C41.9774 1030.3 28.0447 1028.13 34.1948 1028.71C37.026 1028.98 39.835 1029.28 42.6683 1029.38C44.6761 1029.46 46.6894 1029.47 48.6947 1029.43C50.512 1029.39 55.0616 1028.22 56.6565 1028.96C56.0606 1028.68 49.016 1030.14 54.3795 1029.12C56.3264 1028.75 58.2885 1028.47 60.2354 1028.07C63.8008 1027.34 67.324 1026.44 70.801 1025.39C74.1711 1024.37 77.6902 1022.42 81.1274 1021.8C79.7406 1022.35 78.3538 1022.9 76.967 1023.45C78.1905 1022.93 79.4108 1022.39 80.6192 1021.83C82.4393 1021 84.2435 1020.11 86.027 1019.2C92.6134 1015.85 98.959 1012.02 105.054 1007.84C107.573 1006.11 110.405 1002.98 113.24 1001.9C112.075 1002.81 110.914 1003.72 109.747 1004.62C110.799 1003.79 111.845 1002.93 112.881 1002.08C114.948 1000.36 116.983 998.608 118.987 996.818C124.218 992.14 129.245 987.216 134.009 982.048C136.163 979.714 138.266 977.327 140.312 974.89C141.538 973.428 142.748 971.947 143.93 970.444C145.575 968.354 147.593 963.681 143.664 970.989C146.949 964.879 151.502 959.436 154.831 953.284C156.632 949.954 158.313 946.554 159.846 943.081C160.35 941.942 160.765 940.694 161.326 939.599C157.008 948.007 160.84 940.777 161.623 938.375C162.597 935.379 163.452 932.341 164.193 929.269C164.98 925.995 164.853 920.973 166.294 918.054C164.318 922.059 165.794 923.983 165.972 920.57C166.074 918.633 166.239 916.715 166.293 914.778C166.404 910.936 166.311 907.079 166.016 903.229C165.873 901.4 165.375 899.347 165.434 897.528C165.169 905.777 165.992 901.486 165.392 898.417C164.782 895.311 164.043 892.229 163.188 889.175C162.157 885.496 160.852 881.937 159.607 878.327C157.813 873.134 160.586 880.708 160.851 881.15C159.564 879.012 158.739 876.421 157.621 874.175C154.453 867.792 150.817 861.64 146.81 855.753C145.891 854.399 144.949 853.06 143.989 851.736C142.205 849.268 139.279 847.603 145.19 853.229C141.927 850.123 139.273 845.965 136.223 842.604C131.732 837.651 126.999 832.931 122.072 828.44C119.099 825.733 116.055 823.106 112.948 820.56C112.306 820.033 107.207 815.668 111.576 819.419C115.998 823.217 109.379 817.845 108.507 817.214C95.7473 807.985 82.116 800.229 68.0421 793.417C64.8029 791.85 61.5448 790.333 58.2693 788.859C57.6139 788.565 56.9585 788.272 56.2991 787.98C53.1118 786.576 53.6703 786.821 57.9765 788.708C56.6896 787.733 54.5075 787.247 53.0103 786.629C45.3688 783.484 37.6561 780.545 29.8986 777.748C14.3199 772.135 -1.42675 767.109 -17.1947 762.156C-81.4771 741.959 -145.966 720.828 -198.988 675.823C-243.434 638.098 -271.01 583.15 -274.541 525.271C-277.399 478.392 -262.971 431.602 -240.396 392.155C-216.235 349.936 -183.036 314.848 -145.071 285.551C-128.583 272.826 -111.032 261.494 -92.4505 252.083C-71.3383 241.393 -48.6004 231.946 -25.1249 227.718C5.09896 222.271 39.6018 223.238 66.3782 242.281C101.062 266.942 115.189 309.226 108.107 349.885C102.485 382.179 81.3559 410.932 54.3439 427.512C26.0239 444.891 -9.8736 447.582 -42.2463 439.035C-76.1453 430.086 -104.535 408.076 -125.49 379.587C-144.715 353.453 -154.121 321.613 -157.263 289.901C-163.932 222.647 -134.97 160.406 -93.5671 111.736C-70.9941 85.2 -44.3452 62.485 -16.4455 41.9725C10.6867 22.0242 39.95 5.02603 70.7036 -8.69619C102.704 -22.9842 135.898 -34.4195 170.249 -41.9569C186.418 -45.5025 205.6 -35.5148 209.587 -17.9171C213.425 -0.971273 204.795 17.598 187.458 21.3991Z" fill="#D3ECF2" stroke="#D3ECF2" stroke-width="30" mask="url(#path-1-inside-1_19_427)"/>
</svg>
