<svg width="718" height="1402" viewBox="0 0 718 1402" fill="none" xmlns="http://www.w3.org/2000/svg">
<mask id="path-1-inside-1_19_449" fill="white">
<path d="M678.577 1325.9C660.309 1328.97 641.912 1331.11 623.432 1332.22C614.595 1332.75 605.757 1333 596.907 1333.14C594.58 1333.18 591.285 1334.25 598.773 1333.14C596.51 1333.47 593.823 1333.09 591.536 1333.05C586.712 1332.96 581.887 1332.8 577.071 1332.58C540.927 1330.88 504.966 1325.42 469.957 1316.25C467.997 1315.74 460.389 1312.97 469.415 1316.15C467.918 1315.62 466.305 1315.26 464.778 1314.81C460.144 1313.46 455.534 1312.04 450.942 1310.56C442.439 1307.81 434.005 1304.84 425.659 1301.62C409.764 1295.5 394.195 1288.47 379.242 1280.25C377.252 1279.16 375.293 1278.01 373.31 1276.91C370.551 1275.37 369.752 1276.58 375.021 1277.97C371.26 1276.98 366.802 1272.82 363.565 1270.64C356.677 1266 349.994 1261.05 343.569 1255.77C337.483 1250.77 332.057 1245.11 326.154 1239.93C334.231 1247.01 326.321 1239.95 324.383 1237.73C321.405 1234.32 318.541 1230.81 315.799 1227.21C311.662 1221.77 307.801 1216.12 304.225 1210.29C303.388 1208.92 302.67 1207.36 301.717 1206.08C307.317 1213.61 303.523 1209.28 302.248 1206.86C300.419 1203.4 298.696 1199.88 297.08 1196.31C294.131 1189.8 291.536 1183.11 289.348 1176.29C288.755 1174.44 288.224 1172.56 287.657 1170.71C286.871 1168.11 287.589 1165.92 288.443 1173.7C287.993 1169.62 286.559 1165.47 285.864 1161.4C284.733 1154.75 284.017 1148.04 283.757 1141.31C283.646 1138.42 284.681 1132.53 283.634 1142.88C283.825 1140.99 283.728 1139.03 283.831 1137.12C284.042 1133.29 284.411 1129.46 284.94 1125.65C285.385 1122.47 285.942 1119.3 286.61 1116.16C287.013 1114.28 287.64 1112.39 287.95 1110.5C286.272 1120.64 286.804 1114.72 287.715 1111.94C289.983 1105 292.834 1098.26 296.226 1091.8L297.187 1090.01C298.971 1086.83 298.497 1087.62 295.769 1092.39C296.983 1091.12 297.887 1089.01 298.894 1087.55C300.701 1084.9 302.616 1082.32 304.634 1079.83C305.848 1078.34 307.098 1076.88 308.377 1075.45C309.061 1074.69 313.623 1070.18 309.247 1074.37C304.837 1078.59 309.572 1074.13 310.296 1073.47C312.187 1071.74 314.128 1070.08 316.126 1068.48C318.618 1066.48 321.191 1064.58 323.832 1062.8C325.382 1061.76 327.203 1060.88 328.66 1059.71C322.114 1064.95 324.33 1062.24 326.942 1060.87C333.484 1057.42 340.356 1055.5 347.096 1052.69C338.389 1056.33 343.038 1053.83 345.913 1053.22C347.756 1052.83 349.607 1052.49 351.471 1052.21C354.586 1051.74 357.707 1051.55 360.836 1051.26C367.866 1050.6 352.23 1050.74 359.288 1051.19C360.528 1051.27 361.769 1051.3 363.013 1051.38C367.311 1051.7 371.473 1052.5 375.698 1053.29C378.273 1053.76 380.58 1055.59 372.259 1052.24C373.942 1052.92 375.787 1053.32 377.5 1053.94C380.386 1054.97 383.219 1056.15 385.993 1057.46C387.657 1058.25 389.268 1059.15 390.913 1059.97C397.068 1063.06 383.963 1055.34 389.67 1059.22C392.718 1061.29 395.716 1063.41 398.556 1065.77C399.975 1066.95 401.295 1068.23 402.696 1069.43C406.748 1072.89 400.828 1067.46 400.528 1067.04C402.639 1069.99 405.427 1072.53 407.605 1075.47C409.404 1077.9 410.811 1080.74 412.659 1083.1C407.128 1076.02 410.399 1079.06 411.774 1081.95C412.561 1083.61 413.291 1085.29 413.968 1087.01C414.644 1088.72 415.185 1090.48 415.814 1092.21C418.143 1098.66 414.437 1083.94 415.42 1090.76C415.987 1094.68 416.542 1098.54 417.022 1102.47C417.989 1110.41 418.039 1094.76 417.033 1102.69C416.735 1105.04 416.616 1107.38 416.225 1109.73C415.998 1111.08 415.256 1113.08 415.293 1114.35C416.758 1109.24 416.9 1108.52 415.713 1112.2C415.18 1113.68 414.596 1115.14 413.955 1116.58C413.343 1117.95 412.625 1119.26 411.966 1120.61C410.022 1124.61 417.118 1113.07 413.279 1118.21C411.583 1120.47 409.352 1125.06 406.793 1126.37C406.82 1126.35 413.459 1120.28 409.3 1123.82C407.977 1124.95 406.711 1126.13 405.354 1127.22C402.599 1129.43 399.641 1131.24 396.747 1133.24C406.178 1126.74 396.14 1133.29 393.23 1134.59C390.473 1135.83 387.663 1136.95 384.822 1137.97C383.096 1138.59 381.344 1139.11 379.616 1139.71C374.476 1141.48 382.413 1138.95 382.809 1138.88C378.586 1139.58 374.42 1140.94 370.188 1141.71C358.317 1143.87 346.344 1144.67 334.313 1144.9C328.35 1145.01 343.846 1144.98 337.86 1144.9C336.696 1144.88 335.527 1144.87 334.364 1144.85C331.777 1144.8 329.193 1144.72 326.605 1144.6C321.107 1144.35 315.614 1143.96 310.139 1143.43C299.111 1142.37 288.132 1140.76 277.254 1138.66C271.814 1137.61 266.402 1136.44 261.015 1135.16C258.545 1134.56 256.083 1133.95 253.629 1133.31C252.149 1132.92 250.681 1132.51 249.2 1132.13C260.738 1135.11 254.555 1133.62 252.073 1132.9C229.805 1126.43 208.087 1117.98 187.344 1107.54C182.282 1104.98 177.275 1102.31 172.334 1099.52C170.094 1098.26 167.892 1096.93 165.665 1095.65C176.824 1102.09 165.402 1095.39 162.784 1093.69C153.419 1087.63 144.358 1081.07 135.699 1074.01C131.433 1070.52 127.262 1066.91 123.204 1063.17C121.373 1061.48 119.566 1059.77 117.787 1058.03C116.722 1056.99 115.674 1055.94 114.616 1054.88C110.417 1050.71 120.347 1060.97 116.569 1056.88C108.922 1048.6 101.692 1039.99 95.2322 1030.7C92.1826 1026.33 89.3604 1021.81 86.6054 1017.23C85.3861 1015.21 83.8596 1011.74 88.7641 1021.08C88.0891 1019.8 87.3662 1018.54 86.6863 1017.26C85.3313 1014.69 84.0346 1012.1 82.7969 1009.48C80.5253 1004.66 78.4606 999.753 76.6102 994.76C75.7672 992.482 74.9708 990.189 74.2166 987.877C73.1868 984.706 70.4626 972.45 73.248 985.244C70.9015 974.452 68.8519 963.811 68.1452 952.741C67.9802 950.18 67.8758 947.613 67.8206 945.047C67.7638 942.275 68.2972 936.272 67.7654 948.062C67.8386 946.493 67.8241 944.912 67.8827 943.34C68.1356 936.512 68.7441 929.697 69.7569 922.936C70.3448 918.989 71.0692 915.061 71.9286 911.16C72.3158 909.396 72.7754 907.647 73.1772 905.885C74.2882 901.004 70.469 914.657 72.7448 907.506C75.3855 899.235 78.2182 891.121 81.746 883.186C83.2143 879.883 84.767 876.616 86.3942 873.385C87.9533 870.291 92.1875 865.242 92.5963 861.886C92.521 862.517 88.2284 869.026 91.4436 863.956C92.6162 862.106 93.7477 860.23 94.9343 858.387C97.3144 854.688 99.7895 851.056 102.337 847.475C112.191 833.624 123.216 820.647 134.937 808.396C135.959 807.328 136.999 806.278 138.017 805.209C143.436 799.539 132.442 810.592 138.075 805.147C140.979 802.335 143.876 799.512 146.829 796.748C153.104 790.875 159.535 785.174 166.043 779.565C192.064 757.151 219.407 736.379 245.434 713.966C272.286 690.842 298.885 665.812 319.495 636.642C340.38 607.091 355.797 574.02 362.948 538.319C369.592 505.118 366.91 468.29 352.221 437.675C335.631 403.101 308.143 378.144 275.638 359.431C214.57 324.275 133.198 312.457 71.5957 352.834C19.3714 387.066 -2.82037 454.41 0.812644 514.86C4.78505 580.911 45.5738 638.903 94.0787 679.955C119.724 701.661 148.764 719.471 178.641 734.498C213.182 751.871 250.094 764.765 287.98 772.246C355.322 785.539 429.697 778.464 490.69 744.615C522.573 726.919 550.163 703.879 572.878 674.918C594.634 647.175 611.594 615.282 625.538 582.87C655.168 514.004 675.707 440.21 689.517 366.532C703.615 291.322 709.222 214.875 707.676 138.43C706.945 102.4 704.343 66.441 699.961 30.6953C697.77 12.8047 679.778 -2.10469 661.836 1.22798C643.609 4.61293 630.326 20.9373 632.675 40.1157C637.257 77.5031 639.892 115.127 640.478 152.817C640.547 157.373 640.567 161.927 640.606 166.483C640.681 175.142 640.701 158.514 640.612 167.17C640.597 168.828 640.587 170.482 640.566 172.139C640.453 182.079 640.201 192.021 639.811 201.953C639.064 220.996 637.807 240.02 636.047 258.996C632.602 296.127 627.217 333.076 619.924 369.646C616.358 387.52 612.332 405.307 607.856 422.973C606.646 427.744 605.678 432.74 604.091 437.4C606.797 429.45 605.094 433.761 604.563 435.667C603.893 438.059 603.231 440.457 602.556 442.849C599.845 452.412 596.995 461.937 594.018 471.414C583.473 504.956 571.605 538.299 556.8 570.181C553.364 577.583 549.746 584.9 545.915 592.102C544.18 595.364 542.37 598.586 540.575 601.815C536.747 608.7 544.747 595.058 540.599 601.743C539.046 604.242 537.535 606.763 535.95 609.243C527.29 622.812 517.626 635.74 506.775 647.574C505.297 649.186 503.775 650.756 502.275 652.35C497.161 657.774 506.65 648.243 503.043 651.55C500.075 654.273 497.183 657.066 494.134 659.696C487.775 665.195 481.092 670.306 474.146 675.008C471.253 676.964 468.295 678.804 465.35 680.667C459.003 684.684 472.271 676.92 465.66 680.467C464.125 681.289 462.609 682.153 461.07 682.97C453.988 686.736 446.714 690.127 439.301 693.147C432.188 696.046 424.947 698.604 417.606 700.832C416.939 701.034 416.267 701.231 415.6 701.434C412.106 702.44 412.919 702.222 418.046 700.775C416.452 700.822 414.538 701.694 412.968 702.077C408.555 703.166 404.117 704.14 399.655 705.001C384.554 707.91 369.212 709.51 353.854 709.836C353.158 709.848 352.462 709.86 351.761 709.872C348.031 709.902 348.974 709.904 354.594 709.871C352.736 709.267 349.619 709.789 347.659 709.721C343.624 709.589 339.59 709.372 335.563 709.07C325.912 708.356 316.297 707.183 306.751 705.586C297.995 704.12 289.301 702.299 280.686 700.156C278.728 699.67 276.777 699.133 274.819 698.642C269.73 697.354 283.183 701.17 275.414 698.788C270.384 697.245 265.35 695.732 260.36 694.044C243.071 688.206 226.195 681.157 209.789 673.123C202.033 669.325 194.375 665.308 186.841 661.08C183.913 659.439 181.037 657.698 178.111 656.046C186.993 661.056 180.604 657.528 178.755 656.38C176.457 654.955 174.172 653.51 171.905 652.039C159.417 643.938 147.374 635.115 135.991 625.484C130.329 620.692 124.832 615.701 119.533 610.494C117.987 608.978 113.197 603.598 119.943 611.024C119.04 610.029 118.087 609.078 117.173 608.096C113.981 604.668 110.869 601.154 107.868 597.555C103.385 592.181 99.122 586.614 95.1284 580.852C93.0443 577.846 91.0267 574.788 89.091 571.676C88.0922 570.073 87.2091 567.98 85.9991 566.545C91.1749 572.664 88.0064 570.157 86.4269 567.198C82.9719 560.717 79.8707 554.041 77.1588 547.201C75.7936 543.757 74.5333 540.272 73.3717 536.754C72.9003 535.323 72.4449 533.884 72.0152 532.439C69.4193 523.712 73.2795 538.427 72.038 532.563C70.6945 526.205 69.4674 519.868 68.7652 513.391C68.4438 510.446 68.2031 507.492 68.0416 504.539C67.9447 502.759 67.9118 500.984 67.835 499.203C67.5443 492.543 67.5824 507.569 67.7954 501.331C68.0186 494.797 68.4249 488.303 69.3105 481.823C69.7859 478.304 70.3783 474.802 71.0813 471.324C71.7546 467.994 75.5519 456.413 71.5541 468.23C73.6204 462.116 75.3982 456.009 77.9147 450.052C79.0392 447.383 80.2433 444.75 81.5261 442.159C82.2914 440.607 83.0839 439.074 83.9043 437.555C87.7548 430.426 81.9139 440.501 83.2822 438.561C86.7368 433.664 89.8589 428.622 93.6891 423.993C95.6996 421.56 104.343 413.62 95.5008 421.452C98.0373 419.201 100.41 416.807 103.033 414.644C105.434 412.663 107.92 410.789 110.48 409.025C111.65 408.22 112.854 407.464 114.032 406.675C119.483 403.011 106.544 410.618 112.41 407.626C115.111 406.25 117.776 404.85 120.545 403.629C122.508 402.764 124.501 401.959 126.508 401.206C128.327 400.523 133.322 399.861 134.605 398.521C134.125 399.021 126.534 400.387 132.277 399.261C134.362 398.851 136.424 398.348 138.52 397.965C142.359 397.268 146.228 396.756 150.111 396.403C153.873 396.058 158.169 396.568 161.838 395.818C160.234 395.828 158.63 395.838 157.026 395.849C158.456 395.876 159.889 395.918 161.319 395.985C163.469 396.079 165.622 396.223 167.766 396.402C175.683 397.063 183.556 398.278 191.324 399.933C194.535 400.62 198.631 402.54 201.89 402.471C200.359 402.047 198.834 401.624 197.303 401.206C198.693 401.605 200.08 402.02 201.462 402.444C204.219 403.296 206.96 404.196 209.684 405.144C216.8 407.624 223.813 410.424 230.666 413.565C233.763 414.983 236.831 416.472 239.865 418.032C241.683 418.969 243.493 419.93 245.283 420.924C247.775 422.305 251.699 426.05 244.795 420.5C250.567 425.14 257.323 428.631 263.157 433.295C266.313 435.82 269.379 438.46 272.328 441.23C273.297 442.138 274.222 443.186 275.229 444.029C267.486 437.563 274.262 443.075 276.027 445.1C278.225 447.627 280.323 450.242 282.32 452.934C284.447 455.805 286.386 460.734 289.016 463.002C285.408 459.89 286.082 457.438 287.662 460.684C288.559 462.526 289.512 464.325 290.362 466.186C292.051 469.875 293.544 473.66 294.833 477.517C295.443 479.351 295.792 481.542 296.598 483.286C292.945 475.375 295.526 479.22 296.192 482.439C296.863 485.698 297.396 488.984 297.803 492.289C298.291 496.27 298.459 500.244 298.707 504.243C299.061 509.998 298.7 501.543 298.782 501.009C298.383 503.594 298.629 506.438 298.443 509.062C297.922 516.514 296.841 523.927 295.284 531.229C294.928 532.907 294.543 534.581 294.135 536.246C293.378 539.348 291.158 542.121 294.712 534.321C292.751 538.627 291.826 543.715 290.18 548.185C287.757 554.77 285 561.224 281.955 567.534C280.116 571.337 278.175 575.091 276.137 578.792C275.716 579.557 272.45 585.812 275.245 580.442C278.072 575.007 273.71 582.838 273.105 583.796C264.232 597.8 253.89 610.717 242.72 622.892C240.149 625.693 237.539 628.453 234.893 631.179C234.363 631.723 233.833 632.267 233.299 632.81C230.712 635.433 231.166 634.974 234.664 631.441C233.788 632.897 231.822 634.23 230.59 635.421C224.297 641.494 217.85 647.394 211.299 653.174C198.143 664.777 184.578 675.877 170.963 686.914C115.458 731.914 60.1317 777.903 25.9999 842.563C-2.61095 896.764 -7.3976 961.04 12.8872 1018.67C29.3195 1065.35 62.8726 1105.12 101.495 1134.54C142.83 1166.02 190.207 1187.01 239.932 1200.49C261.529 1206.35 283.608 1210.43 305.92 1212.24C331.27 1214.3 357.723 1214.5 382.762 1209.34C415.002 1202.7 448.852 1188.14 467.603 1159.07C491.895 1121.42 488.537 1074.75 464.795 1038.04C445.94 1008.88 413.149 989.285 379.522 983.838C344.268 978.13 307.53 989.685 278.91 1010.77C248.94 1032.85 229.807 1065.44 220.717 1101.39C212.376 1134.38 216.126 1169.03 226.042 1201.08C247.067 1269.06 301.397 1318.11 362.499 1349.05C395.812 1365.93 431.601 1377.48 467.725 1386.4C502.856 1395.07 538.89 1400.04 575.056 1401.23C612.693 1402.48 650.341 1400.49 687.537 1394.25C705.043 1391.32 719.978 1374.04 716.702 1355.37C713.546 1337.39 697.348 1322.75 678.577 1325.9Z"/>
</mask>
<path d="M678.577 1325.9C660.309 1328.97 641.912 1331.11 623.432 1332.22C614.595 1332.75 605.757 1333 596.907 1333.14C594.58 1333.18 591.285 1334.25 598.773 1333.14C596.51 1333.47 593.823 1333.09 591.536 1333.05C586.712 1332.96 581.887 1332.8 577.071 1332.58C540.927 1330.88 504.966 1325.42 469.957 1316.25C467.997 1315.74 460.389 1312.97 469.415 1316.15C467.918 1315.62 466.305 1315.26 464.778 1314.81C460.144 1313.46 455.534 1312.04 450.942 1310.56C442.439 1307.81 434.005 1304.84 425.659 1301.62C409.764 1295.5 394.195 1288.47 379.242 1280.25C377.252 1279.16 375.293 1278.01 373.31 1276.91C370.551 1275.37 369.752 1276.58 375.021 1277.97C371.26 1276.98 366.802 1272.82 363.565 1270.64C356.677 1266 349.994 1261.05 343.569 1255.77C337.483 1250.77 332.057 1245.11 326.154 1239.93C334.231 1247.01 326.321 1239.95 324.383 1237.73C321.405 1234.32 318.541 1230.81 315.799 1227.21C311.662 1221.77 307.801 1216.12 304.225 1210.29C303.388 1208.92 302.67 1207.36 301.717 1206.08C307.317 1213.61 303.523 1209.28 302.248 1206.86C300.419 1203.4 298.696 1199.88 297.08 1196.31C294.131 1189.8 291.536 1183.11 289.348 1176.29C288.755 1174.44 288.224 1172.56 287.657 1170.71C286.871 1168.11 287.589 1165.92 288.443 1173.7C287.993 1169.62 286.559 1165.47 285.864 1161.4C284.733 1154.75 284.017 1148.04 283.757 1141.31C283.646 1138.42 284.681 1132.53 283.634 1142.88C283.825 1140.99 283.728 1139.03 283.831 1137.12C284.042 1133.29 284.411 1129.46 284.94 1125.65C285.385 1122.47 285.942 1119.3 286.61 1116.16C287.013 1114.28 287.64 1112.39 287.95 1110.5C286.272 1120.64 286.804 1114.72 287.715 1111.94C289.983 1105 292.834 1098.26 296.226 1091.8L297.187 1090.01C298.971 1086.83 298.497 1087.62 295.769 1092.39C296.983 1091.12 297.887 1089.01 298.894 1087.55C300.701 1084.9 302.616 1082.32 304.634 1079.83C305.848 1078.34 307.098 1076.88 308.377 1075.45C309.061 1074.69 313.623 1070.18 309.247 1074.37C304.837 1078.59 309.572 1074.13 310.296 1073.47C312.187 1071.74 314.128 1070.08 316.126 1068.48C318.618 1066.48 321.191 1064.58 323.832 1062.8C325.382 1061.76 327.203 1060.88 328.66 1059.71C322.114 1064.95 324.33 1062.24 326.942 1060.87C333.484 1057.42 340.356 1055.5 347.096 1052.69C338.389 1056.33 343.038 1053.83 345.913 1053.22C347.756 1052.83 349.607 1052.49 351.471 1052.21C354.586 1051.74 357.707 1051.55 360.836 1051.26C367.866 1050.6 352.23 1050.74 359.288 1051.19C360.528 1051.27 361.769 1051.3 363.013 1051.38C367.311 1051.7 371.473 1052.5 375.698 1053.29C378.273 1053.76 380.58 1055.59 372.259 1052.24C373.942 1052.92 375.787 1053.32 377.5 1053.94C380.386 1054.97 383.219 1056.15 385.993 1057.46C387.657 1058.25 389.268 1059.15 390.913 1059.97C397.068 1063.06 383.963 1055.34 389.67 1059.22C392.718 1061.29 395.716 1063.41 398.556 1065.77C399.975 1066.95 401.295 1068.23 402.696 1069.43C406.748 1072.89 400.828 1067.46 400.528 1067.04C402.639 1069.99 405.427 1072.53 407.605 1075.47C409.404 1077.9 410.811 1080.74 412.659 1083.1C407.128 1076.02 410.399 1079.06 411.774 1081.95C412.561 1083.61 413.291 1085.29 413.968 1087.01C414.644 1088.72 415.185 1090.48 415.814 1092.21C418.143 1098.66 414.437 1083.94 415.42 1090.76C415.987 1094.68 416.542 1098.54 417.022 1102.47C417.989 1110.41 418.039 1094.76 417.033 1102.69C416.735 1105.04 416.616 1107.38 416.225 1109.73C415.998 1111.08 415.256 1113.08 415.293 1114.35C416.758 1109.24 416.9 1108.52 415.713 1112.2C415.18 1113.68 414.596 1115.14 413.955 1116.58C413.343 1117.95 412.625 1119.26 411.966 1120.61C410.022 1124.61 417.118 1113.07 413.279 1118.21C411.583 1120.47 409.352 1125.06 406.793 1126.37C406.82 1126.35 413.459 1120.28 409.3 1123.82C407.977 1124.95 406.711 1126.13 405.354 1127.22C402.599 1129.43 399.641 1131.24 396.747 1133.24C406.178 1126.74 396.14 1133.29 393.23 1134.59C390.473 1135.83 387.663 1136.95 384.822 1137.97C383.096 1138.59 381.344 1139.11 379.616 1139.71C374.476 1141.48 382.413 1138.95 382.809 1138.88C378.586 1139.58 374.42 1140.94 370.188 1141.71C358.317 1143.87 346.344 1144.67 334.313 1144.9C328.35 1145.01 343.846 1144.98 337.86 1144.9C336.696 1144.88 335.527 1144.87 334.364 1144.85C331.777 1144.8 329.193 1144.72 326.605 1144.6C321.107 1144.35 315.614 1143.96 310.139 1143.43C299.111 1142.37 288.132 1140.76 277.254 1138.66C271.814 1137.61 266.402 1136.44 261.015 1135.16C258.545 1134.56 256.083 1133.95 253.629 1133.31C252.149 1132.92 250.681 1132.51 249.2 1132.13C260.738 1135.11 254.555 1133.62 252.073 1132.9C229.805 1126.43 208.087 1117.98 187.344 1107.54C182.282 1104.98 177.275 1102.31 172.334 1099.52C170.094 1098.26 167.892 1096.93 165.665 1095.65C176.824 1102.09 165.402 1095.39 162.784 1093.69C153.419 1087.63 144.358 1081.07 135.699 1074.01C131.433 1070.52 127.262 1066.91 123.204 1063.17C121.373 1061.48 119.566 1059.77 117.787 1058.03C116.722 1056.99 115.674 1055.94 114.616 1054.88C110.417 1050.71 120.347 1060.97 116.569 1056.88C108.922 1048.6 101.692 1039.99 95.2322 1030.7C92.1826 1026.33 89.3604 1021.81 86.6054 1017.23C85.3861 1015.21 83.8596 1011.74 88.7641 1021.08C88.0891 1019.8 87.3662 1018.54 86.6863 1017.26C85.3313 1014.69 84.0346 1012.1 82.7969 1009.48C80.5253 1004.66 78.4606 999.753 76.6102 994.76C75.7672 992.482 74.9708 990.189 74.2166 987.877C73.1868 984.706 70.4626 972.45 73.248 985.244C70.9015 974.452 68.8519 963.811 68.1452 952.741C67.9802 950.18 67.8758 947.613 67.8206 945.047C67.7638 942.275 68.2972 936.272 67.7654 948.062C67.8386 946.493 67.8241 944.912 67.8827 943.34C68.1356 936.512 68.7441 929.697 69.7569 922.936C70.3448 918.989 71.0692 915.061 71.9286 911.16C72.3158 909.396 72.7754 907.647 73.1772 905.885C74.2882 901.004 70.469 914.657 72.7448 907.506C75.3855 899.235 78.2182 891.121 81.746 883.186C83.2143 879.883 84.767 876.616 86.3942 873.385C87.9533 870.291 92.1875 865.242 92.5963 861.886C92.521 862.517 88.2284 869.026 91.4436 863.956C92.6162 862.106 93.7477 860.23 94.9343 858.387C97.3144 854.688 99.7895 851.056 102.337 847.475C112.191 833.624 123.216 820.647 134.937 808.396C135.959 807.328 136.999 806.278 138.017 805.209C143.436 799.539 132.442 810.592 138.075 805.147C140.979 802.335 143.876 799.512 146.829 796.748C153.104 790.875 159.535 785.174 166.043 779.565C192.064 757.151 219.407 736.379 245.434 713.966C272.286 690.842 298.885 665.812 319.495 636.642C340.38 607.091 355.797 574.02 362.948 538.319C369.592 505.118 366.91 468.29 352.221 437.675C335.631 403.101 308.143 378.144 275.638 359.431C214.57 324.275 133.198 312.457 71.5957 352.834C19.3714 387.066 -2.82037 454.41 0.812644 514.86C4.78505 580.911 45.5738 638.903 94.0787 679.955C119.724 701.661 148.764 719.471 178.641 734.498C213.182 751.871 250.094 764.765 287.98 772.246C355.322 785.539 429.697 778.464 490.69 744.615C522.573 726.919 550.163 703.879 572.878 674.918C594.634 647.175 611.594 615.282 625.538 582.87C655.168 514.004 675.707 440.21 689.517 366.532C703.615 291.322 709.222 214.875 707.676 138.43C706.945 102.4 704.343 66.441 699.961 30.6953C697.77 12.8047 679.778 -2.10469 661.836 1.22798C643.609 4.61293 630.326 20.9373 632.675 40.1157C637.257 77.5031 639.892 115.127 640.478 152.817C640.547 157.373 640.567 161.927 640.606 166.483C640.681 175.142 640.701 158.514 640.612 167.17C640.597 168.828 640.587 170.482 640.566 172.139C640.453 182.079 640.201 192.021 639.811 201.953C639.064 220.996 637.807 240.02 636.047 258.996C632.602 296.127 627.217 333.076 619.924 369.646C616.358 387.52 612.332 405.307 607.856 422.973C606.646 427.744 605.678 432.74 604.091 437.4C606.797 429.45 605.094 433.761 604.563 435.667C603.893 438.059 603.231 440.457 602.556 442.849C599.845 452.412 596.995 461.937 594.018 471.414C583.473 504.956 571.605 538.299 556.8 570.181C553.364 577.583 549.746 584.9 545.915 592.102C544.18 595.364 542.37 598.586 540.575 601.815C536.747 608.7 544.747 595.058 540.599 601.743C539.046 604.242 537.535 606.763 535.95 609.243C527.29 622.812 517.626 635.74 506.775 647.574C505.297 649.186 503.775 650.756 502.275 652.35C497.161 657.774 506.65 648.243 503.043 651.55C500.075 654.273 497.183 657.066 494.134 659.696C487.775 665.195 481.092 670.306 474.146 675.008C471.253 676.964 468.295 678.804 465.35 680.667C459.003 684.684 472.271 676.92 465.66 680.467C464.125 681.289 462.609 682.153 461.07 682.97C453.988 686.736 446.714 690.127 439.301 693.147C432.188 696.046 424.947 698.604 417.606 700.832C416.939 701.034 416.267 701.231 415.6 701.434C412.106 702.44 412.919 702.222 418.046 700.775C416.452 700.822 414.538 701.694 412.968 702.077C408.555 703.166 404.117 704.14 399.655 705.001C384.554 707.91 369.212 709.51 353.854 709.836C353.158 709.848 352.462 709.86 351.761 709.872C348.031 709.902 348.974 709.904 354.594 709.871C352.736 709.267 349.619 709.789 347.659 709.721C343.624 709.589 339.59 709.372 335.563 709.07C325.912 708.356 316.297 707.183 306.751 705.586C297.995 704.12 289.301 702.299 280.686 700.156C278.728 699.67 276.777 699.133 274.819 698.642C269.73 697.354 283.183 701.17 275.414 698.788C270.384 697.245 265.35 695.732 260.36 694.044C243.071 688.206 226.195 681.157 209.789 673.123C202.033 669.325 194.375 665.308 186.841 661.08C183.913 659.439 181.037 657.698 178.111 656.046C186.993 661.056 180.604 657.528 178.755 656.38C176.457 654.955 174.172 653.51 171.905 652.039C159.417 643.938 147.374 635.115 135.991 625.484C130.329 620.692 124.832 615.701 119.533 610.494C117.987 608.978 113.197 603.598 119.943 611.024C119.04 610.029 118.087 609.078 117.173 608.096C113.981 604.668 110.869 601.154 107.868 597.555C103.385 592.181 99.122 586.614 95.1284 580.852C93.0443 577.846 91.0267 574.788 89.091 571.676C88.0922 570.073 87.2091 567.98 85.9991 566.545C91.1749 572.664 88.0064 570.157 86.4269 567.198C82.9719 560.717 79.8707 554.041 77.1588 547.201C75.7936 543.757 74.5333 540.272 73.3717 536.754C72.9003 535.323 72.4449 533.884 72.0152 532.439C69.4193 523.712 73.2795 538.427 72.038 532.563C70.6945 526.205 69.4674 519.868 68.7652 513.391C68.4438 510.446 68.2031 507.492 68.0416 504.539C67.9447 502.759 67.9118 500.984 67.835 499.203C67.5443 492.543 67.5824 507.569 67.7954 501.331C68.0186 494.797 68.4249 488.303 69.3105 481.823C69.7859 478.304 70.3783 474.802 71.0813 471.324C71.7546 467.994 75.5519 456.413 71.5541 468.23C73.6204 462.116 75.3982 456.009 77.9147 450.052C79.0392 447.383 80.2433 444.75 81.5261 442.159C82.2914 440.607 83.0839 439.074 83.9043 437.555C87.7548 430.426 81.9139 440.501 83.2822 438.561C86.7368 433.664 89.8589 428.622 93.6891 423.993C95.6996 421.56 104.343 413.62 95.5008 421.452C98.0373 419.201 100.41 416.807 103.033 414.644C105.434 412.663 107.92 410.789 110.48 409.025C111.65 408.22 112.854 407.464 114.032 406.675C119.483 403.011 106.544 410.618 112.41 407.626C115.111 406.25 117.776 404.85 120.545 403.629C122.508 402.764 124.501 401.959 126.508 401.206C128.327 400.523 133.322 399.861 134.605 398.521C134.125 399.021 126.534 400.387 132.277 399.261C134.362 398.851 136.424 398.348 138.52 397.965C142.359 397.268 146.228 396.756 150.111 396.403C153.873 396.058 158.169 396.568 161.838 395.818C160.234 395.828 158.63 395.838 157.026 395.849C158.456 395.876 159.889 395.918 161.319 395.985C163.469 396.079 165.622 396.223 167.766 396.402C175.683 397.063 183.556 398.278 191.324 399.933C194.535 400.62 198.631 402.54 201.89 402.471C200.359 402.047 198.834 401.624 197.303 401.206C198.693 401.605 200.08 402.02 201.462 402.444C204.219 403.296 206.96 404.196 209.684 405.144C216.8 407.624 223.813 410.424 230.666 413.565C233.763 414.983 236.831 416.472 239.865 418.032C241.683 418.969 243.493 419.93 245.283 420.924C247.775 422.305 251.699 426.05 244.795 420.5C250.567 425.14 257.323 428.631 263.157 433.295C266.313 435.82 269.379 438.46 272.328 441.23C273.297 442.138 274.222 443.186 275.229 444.029C267.486 437.563 274.262 443.075 276.027 445.1C278.225 447.627 280.323 450.242 282.32 452.934C284.447 455.805 286.386 460.734 289.016 463.002C285.408 459.89 286.082 457.438 287.662 460.684C288.559 462.526 289.512 464.325 290.362 466.186C292.051 469.875 293.544 473.66 294.833 477.517C295.443 479.351 295.792 481.542 296.598 483.286C292.945 475.375 295.526 479.22 296.192 482.439C296.863 485.698 297.396 488.984 297.803 492.289C298.291 496.27 298.459 500.244 298.707 504.243C299.061 509.998 298.7 501.543 298.782 501.009C298.383 503.594 298.629 506.438 298.443 509.062C297.922 516.514 296.841 523.927 295.284 531.229C294.928 532.907 294.543 534.581 294.135 536.246C293.378 539.348 291.158 542.121 294.712 534.321C292.751 538.627 291.826 543.715 290.18 548.185C287.757 554.77 285 561.224 281.955 567.534C280.116 571.337 278.175 575.091 276.137 578.792C275.716 579.557 272.45 585.812 275.245 580.442C278.072 575.007 273.71 582.838 273.105 583.796C264.232 597.8 253.89 610.717 242.72 622.892C240.149 625.693 237.539 628.453 234.893 631.179C234.363 631.723 233.833 632.267 233.299 632.81C230.712 635.433 231.166 634.974 234.664 631.441C233.788 632.897 231.822 634.23 230.59 635.421C224.297 641.494 217.85 647.394 211.299 653.174C198.143 664.777 184.578 675.877 170.963 686.914C115.458 731.914 60.1317 777.903 25.9999 842.563C-2.61095 896.764 -7.3976 961.04 12.8872 1018.67C29.3195 1065.35 62.8726 1105.12 101.495 1134.54C142.83 1166.02 190.207 1187.01 239.932 1200.49C261.529 1206.35 283.608 1210.43 305.92 1212.24C331.27 1214.3 357.723 1214.5 382.762 1209.34C415.002 1202.7 448.852 1188.14 467.603 1159.07C491.895 1121.42 488.537 1074.75 464.795 1038.04C445.94 1008.88 413.149 989.285 379.522 983.838C344.268 978.13 307.53 989.685 278.91 1010.77C248.94 1032.85 229.807 1065.44 220.717 1101.39C212.376 1134.38 216.126 1169.03 226.042 1201.08C247.067 1269.06 301.397 1318.11 362.499 1349.05C395.812 1365.93 431.601 1377.48 467.725 1386.4C502.856 1395.07 538.89 1400.04 575.056 1401.23C612.693 1402.48 650.341 1400.49 687.537 1394.25C705.043 1391.32 719.978 1374.04 716.702 1355.37C713.546 1337.39 697.348 1322.75 678.577 1325.9Z" fill="#ECF6E8" stroke="#ECF6E8" stroke-width="30" mask="url(#path-1-inside-1_19_449)"/>
</svg>
