<svg width="42" height="42" viewBox="0 0 42 42" fill="none" xmlns="http://www.w3.org/2000/svg">
<path fill-rule="evenodd" clip-rule="evenodd" d="M21 41C32.0457 41 41 32.0457 41 21C41 9.95431 32.0457 1 21 1C9.95431 1 1 9.95431 1 21C1 32.0457 9.95431 41 21 41Z" stroke="#D3ECF2" stroke-width="1.84714"/>
<path d="M22.8208 15.8814H24.6589C24.8281 15.8814 24.9653 15.7521 24.9653 15.5927V13.8606C24.9653 13.7013 24.8281 13.572 24.6589 13.572H22.8208C20.963 13.572 19.4509 14.9963 19.4509 16.7475V18.7683H17.3064C17.1372 18.7683 17 18.8976 17 19.0569V20.789C17 20.9484 17.1372 21.0777 17.3064 21.0777H19.4509V27.1401C19.4509 27.2994 19.5881 27.4288 19.7572 27.4288H21.5954C21.7645 27.4288 21.9017 27.2994 21.9017 27.1401V21.0777H24.0462C24.178 21.0777 24.295 20.9981 24.3373 20.8803L24.95 19.1482C24.9812 19.0604 24.9653 18.9634 24.9077 18.8878C24.8495 18.8127 24.7576 18.7683 24.6589 18.7683H21.9017V16.7475C21.9017 16.27 22.3141 15.8814 22.8208 15.8814Z" fill="#121212"/>
</svg>
