<svg width="375" height="445" viewBox="0 0 375 445" fill="none" xmlns="http://www.w3.org/2000/svg">
<mask id="path-1-inside-1_1_1190" fill="white">
<path d="M-118.083 288.924C-114.277 296.154 -110.113 303.183 -105.563 309.965C-103.388 313.208 -101.111 316.374 -98.7956 319.517C-98.1872 320.343 -97.6834 321.787 -99.294 318.862C-98.8069 319.746 -97.9558 320.587 -97.3302 321.378C-96.0085 323.047 -94.6634 324.698 -93.2966 326.327C-83.0411 338.555 -71.5123 349.712 -58.9354 359.542C-58.2318 360.093 -55.2264 362.021 -58.7543 359.705C-58.1699 360.089 -57.6126 360.559 -57.047 360.975C-55.3335 362.239 -53.6027 363.477 -51.8547 364.691C-48.617 366.939 -45.3198 369.103 -41.9598 371.171C-35.5614 375.11 -28.9324 378.692 -22.0512 381.74C-21.136 382.147 -20.2097 382.527 -19.2913 382.927C-18.0139 383.484 -18.2265 384.089 -20.1223 382.611C-18.7704 383.667 -16.1185 384.118 -14.4868 384.67C-11.0152 385.844 -7.4913 386.865 -3.92091 387.707C-0.538837 388.504 2.89945 388.893 6.29332 389.581C1.6503 388.64 6.24432 389.526 7.54135 389.612C9.5325 389.745 11.5304 389.811 13.529 389.809C16.5438 389.806 19.5569 389.65 22.562 389.344C23.2665 389.271 24.0043 389.107 24.7081 389.099C20.5684 389.148 23.1036 389.32 24.2949 389.12C25.999 388.835 27.6942 388.499 29.3791 388.111C32.4543 387.403 35.4939 386.525 38.4748 385.467C39.2832 385.18 40.0826 384.865 40.8865 384.567C42.0071 384.149 42.5837 383.312 39.6243 385.093C41.1794 384.158 43.0178 383.552 44.634 382.706C47.2682 381.326 49.8156 379.781 52.25 378.07C53.2929 377.337 55.0859 375.397 51.7308 378.534C52.3438 377.961 53.0581 377.471 53.6987 376.925C54.9893 375.825 56.2354 374.671 57.4294 373.467C58.4283 372.459 59.392 371.416 60.3172 370.34C60.869 369.697 61.3642 368.971 61.9451 368.357C58.8345 371.657 60.7698 369.888 61.5016 368.825C63.3319 366.173 64.9376 363.368 66.2968 360.451L66.6691 359.634C67.3087 358.157 67.1568 358.536 66.212 360.769C66.3348 360.002 66.8314 359.122 67.0778 358.376C67.5244 357.034 67.917 355.672 68.2509 354.299C68.45 353.474 68.6306 352.643 68.7911 351.811C68.8755 351.368 69.2375 348.562 68.9371 351.218C68.6334 353.895 68.934 351.04 68.9719 350.609C69.0731 349.484 69.1388 348.357 69.1674 347.228C69.2031 345.818 69.18 344.409 69.0996 343.006C69.0512 342.183 68.8749 341.308 68.893 340.486C68.8061 344.182 69.1644 342.68 68.9484 341.397C68.4092 338.179 67.2471 335.254 66.4317 332.138C67.4819 336.166 67.1171 333.866 66.5614 332.695C66.2045 331.945 65.829 331.204 65.4302 330.475C64.7635 329.255 63.9956 328.11 63.2604 326.935C61.6133 324.292 65.7423 329.816 63.6982 327.46C63.3399 327.045 62.9987 326.617 62.6358 326.204C61.3769 324.779 59.9818 323.534 58.5778 322.261C57.7231 321.485 56.4621 321.166 59.8658 323.187C59.1764 322.779 58.5408 322.24 57.8672 321.804C56.7321 321.068 55.5625 320.388 54.36 319.766C53.6378 319.394 52.8936 319.068 52.1651 318.711C49.4343 317.378 55.6472 319.911 52.7601 318.947C51.2178 318.432 49.6721 317.947 48.0837 317.582C47.2918 317.399 46.4885 317.279 45.6949 317.107C43.3976 316.611 46.8833 317.237 47.1107 317.23C45.5109 317.279 43.8754 316.979 42.2619 317.001C40.9268 317.021 39.5539 317.287 38.2299 317.271C42.1957 317.316 40.2558 316.98 38.8719 317.273C38.0784 317.44 37.2924 317.635 36.5108 317.855C35.7277 318.077 34.9657 318.357 34.1886 318.601C31.305 319.507 37.4616 316.871 34.8049 318.35C33.2768 319.2 31.7736 320.038 30.2638 320.922C27.2208 322.705 32.6999 318.501 30.186 320.975C29.4401 321.709 28.6484 322.378 27.93 323.142C27.5162 323.584 27.0111 324.38 26.5565 324.706C27.9607 322.823 28.1748 322.582 27.2002 323.983C26.8223 324.566 26.4659 325.162 26.1325 325.771C25.8133 326.354 25.545 326.956 25.2474 327.548C24.3626 329.301 26.5188 323.723 25.7414 326.444C25.3982 327.646 24.3858 329.655 24.6082 330.904C24.6068 330.891 24.9636 326.937 24.8325 329.343C24.7901 330.109 24.7138 330.87 24.6946 331.637C24.6545 333.195 24.8096 334.717 24.8825 336.267C24.6441 331.218 25.0259 336.494 25.3463 337.863C25.6488 339.162 26.0071 340.447 26.4089 341.716C26.6526 342.488 26.9367 343.243 27.1898 344.008C27.9431 346.285 26.71 342.823 26.6278 342.666C27.5086 344.336 28.1468 346.161 29.0073 347.851C31.4201 352.596 34.3417 357.009 37.4763 361.293C39.0306 363.415 34.8993 357.97 36.5283 360.048C36.8449 360.452 37.1615 360.859 37.4796 361.262C38.1895 362.156 38.9086 363.04 39.6418 363.917C41.1984 365.78 42.8049 367.601 44.4536 369.381C47.7738 372.967 51.2734 376.388 54.9167 379.645C56.7384 381.273 58.596 382.859 60.488 384.404C61.3557 385.113 62.2297 385.812 63.1099 386.502C63.6414 386.918 64.1777 387.323 64.7077 387.741C60.577 384.49 62.7548 386.259 63.6707 386.938C71.8924 393.021 80.6634 398.381 89.8754 402.864C92.1241 403.958 94.3995 405 96.7002 405.987C97.7435 406.434 98.7963 406.853 99.8427 407.291C94.5982 405.099 100.005 407.312 101.3 407.777C105.932 409.441 110.654 410.867 115.45 412.014C117.813 412.579 120.196 413.076 122.594 413.499C123.675 413.691 124.76 413.867 125.846 414.026C126.496 414.12 127.147 414.206 127.799 414.296C130.386 414.652 124.131 413.912 126.576 414.144C131.527 414.613 136.482 414.846 141.468 414.628C143.82 414.527 146.161 414.308 148.504 414.051C149.541 413.936 151.164 413.546 146.576 414.323C147.206 414.217 147.841 414.134 148.473 414.029C149.736 413.819 150.992 413.58 152.244 413.312C154.541 412.822 156.817 412.232 159.065 411.546C160.09 411.232 161.108 410.898 162.121 410.544C163.509 410.057 168.54 407.734 163.304 410.179C167.72 408.115 172.004 405.988 176.079 403.274C177.022 402.647 177.951 401.997 178.867 401.33C179.855 400.608 181.82 398.814 177.823 402.156C178.354 401.71 178.913 401.292 179.449 400.851C181.779 398.935 184.009 396.899 186.112 394.735C187.34 393.472 188.526 392.167 189.665 390.822C190.181 390.214 190.673 389.585 191.184 388.972C192.6 387.277 188.828 392.27 190.73 389.558C192.928 386.419 195.02 383.254 196.862 379.893C197.63 378.494 198.361 377.075 199.061 375.64C199.731 374.265 200.371 371.429 201.44 370.387C201.239 370.583 200.101 373.83 201.022 371.346C201.358 370.439 201.714 369.54 202.043 368.631C202.706 366.806 203.32 364.966 203.896 363.114C206.125 355.951 207.734 348.611 208.902 341.221C209.004 340.576 209.095 339.93 209.198 339.287C209.74 335.869 208.798 342.683 209.204 339.25C209.415 337.479 209.632 335.707 209.813 333.931C210.198 330.158 210.48 326.377 210.71 322.593C211.624 307.466 211.608 292.315 212.52 277.186C213.461 261.578 215.139 245.549 219.871 230.513C224.664 215.279 232.153 201.022 242.776 188.961C252.656 177.747 266.302 168.836 280.976 165.799C297.548 162.37 313.657 165.338 328.914 171.736C357.579 183.758 383.477 209.147 385.767 241.565C387.707 269.047 369.996 294.851 347.803 309.749C323.553 326.026 292.291 327.23 264.915 321.194C250.44 318.002 236.425 312.578 223.164 306.115C207.833 298.644 193.441 289.142 180.688 277.85C158.022 257.778 140.627 229.789 136.208 199.332C133.899 183.411 134.613 167.567 138.71 151.848C142.634 136.792 149.298 122.309 156.95 108.745C173.207 79.9236 193.625 52.9746 215.8 28.4168C238.436 3.3491 263.776 -19.0712 291.026 -38.9808C303.871 -48.3634 317.191 -57.071 330.911 -65.097C337.778 -69.1147 347.821 -66.7906 351.446 -59.6036C355.13 -52.3027 352.949 -43.2745 345.588 -38.9679C331.238 -30.5728 317.325 -21.4314 303.936 -11.5537C302.318 -10.3591 300.714 -9.14764 299.104 -7.94229C296.044 -5.65213 301.877 -10.1077 298.861 -7.7607C298.283 -7.3116 297.706 -6.86567 297.129 -6.41507C293.67 -3.7161 290.247 -0.967946 286.864 1.82626C280.379 7.18322 274.036 12.7137 267.844 18.4084C255.729 29.5509 244.197 41.3256 233.308 53.6685C227.986 59.7019 222.817 65.8733 217.811 72.17C216.46 73.8711 214.965 75.5473 213.753 77.3508C215.82 74.2744 214.762 76.0255 214.235 76.7216C213.574 77.5968 212.909 78.4704 212.25 79.3471C209.617 82.8571 207.035 86.4052 204.504 89.9854C195.547 102.659 187.013 115.744 179.777 129.468C178.097 132.654 176.495 135.881 174.99 139.152C174.309 140.634 173.662 142.131 173.008 143.624C171.614 146.809 174.265 140.353 173.027 143.596C172.564 144.81 172.083 146.015 171.636 147.235C169.187 153.903 167.232 160.753 165.977 167.726C165.807 168.676 165.662 169.63 165.503 170.583C164.966 173.828 165.776 167.949 165.579 170.1C165.416 171.869 165.209 173.631 165.1 175.405C164.87 179.107 164.861 182.819 165.067 186.515C165.154 188.053 165.298 189.583 165.431 191.115C165.718 194.416 164.897 187.684 165.419 190.952C165.541 191.711 165.642 192.474 165.767 193.233C166.338 196.725 167.091 200.185 168.012 203.594C168.896 206.865 169.933 210.09 171.113 213.262C171.22 213.55 171.331 213.838 171.438 214.127C172.019 215.622 171.878 215.278 171.016 213.092C171.425 213.664 171.631 214.569 171.916 215.222C172.713 217.062 173.557 218.88 174.447 220.676C177.462 226.753 181.001 232.564 184.991 238.04C185.173 238.287 185.355 238.535 185.539 238.784C186.525 240.101 186.272 239.77 184.782 237.79C185.49 238.28 186.14 239.513 186.688 240.183C187.813 241.563 188.967 242.92 190.149 244.253C192.979 247.448 195.961 250.508 199.074 253.43C201.929 256.11 204.891 258.673 207.946 261.123C208.64 261.679 209.35 262.221 210.046 262.776C211.859 264.217 206.923 260.518 209.836 262.606C211.722 263.958 213.598 265.32 215.525 266.619C222.195 271.123 229.181 275.159 236.386 278.766C239.793 280.471 243.25 282.083 246.748 283.596C248.107 284.184 249.486 284.727 250.849 285.312C246.716 283.536 249.662 284.834 250.559 285.176C251.674 285.601 252.791 286.016 253.914 286.418C260.096 288.632 266.412 290.497 272.836 291.914C276.031 292.619 279.253 293.213 282.497 293.679C283.443 293.816 286.611 294.057 282.202 293.677C282.792 293.727 283.381 293.807 283.97 293.865C286.027 294.068 288.092 294.22 290.158 294.31C293.242 294.445 296.336 294.452 299.426 294.311C301.039 294.238 302.652 294.128 304.262 293.975C305.092 293.896 306.062 293.646 306.889 293.687C303.358 293.508 305.085 293.949 306.546 293.712C309.744 293.19 312.917 292.492 316.043 291.613C317.617 291.171 319.178 290.681 320.723 290.147C321.351 289.93 321.978 289.705 322.601 289.469C326.358 288.045 320.16 290.627 322.551 289.494C325.142 288.264 327.695 287 330.157 285.513C331.276 284.838 332.378 284.132 333.458 283.398C334.108 282.956 334.74 282.493 335.386 282.043C337.802 280.364 332.516 284.37 334.649 282.627C336.884 280.8 339.055 278.92 341.094 276.876C342.202 275.768 343.273 274.623 344.306 273.446C345.295 272.319 348.346 267.888 345.266 272.452C346.86 270.091 348.529 267.834 349.948 265.357C350.584 264.248 351.186 263.122 351.753 261.978C352.094 261.294 352.42 260.606 352.734 259.912C354.208 256.654 352.232 261.398 352.547 260.399C353.343 257.877 354.279 255.433 354.88 252.85C355.197 251.494 355.674 246.337 355.288 251.535C355.4 250.043 355.606 248.57 355.664 247.07C355.718 245.698 355.712 244.324 355.647 242.954C355.617 242.328 355.56 241.704 355.523 241.079C355.352 238.187 356.14 244.761 355.622 241.903C355.383 240.587 355.163 239.277 354.851 237.979C354.63 237.059 354.38 236.144 354.108 235.239C353.862 234.418 352.759 232.488 352.887 231.679C352.839 231.981 354.389 235.01 353.249 232.694C352.836 231.853 352.461 230.995 352.035 230.157C351.254 228.623 350.399 227.129 349.486 225.672C348.601 224.26 347.274 222.889 346.557 221.401C346.982 221.966 347.407 222.532 347.832 223.097C347.44 222.603 347.042 222.111 346.637 221.628C346.029 220.898 345.403 220.181 344.767 219.477C342.419 216.876 339.888 214.439 337.231 212.156C336.132 211.213 334.362 210.29 333.516 209.128C334.074 209.551 334.63 209.973 335.186 210.398C334.674 210.018 334.158 209.642 333.64 209.271C332.604 208.531 331.555 207.81 330.494 207.108C327.721 205.275 324.864 203.563 321.93 201.999C320.604 201.291 319.261 200.613 317.903 199.966C317.088 199.579 316.267 199.201 315.439 198.839C314.288 198.334 311.925 197.959 315.719 198.897C312.547 198.113 309.515 196.676 306.319 195.877C304.589 195.446 302.843 195.076 301.082 194.782C300.504 194.685 299.889 194.641 299.324 194.513C303.663 195.5 299.917 194.597 298.735 194.52C297.26 194.425 295.781 194.388 294.302 194.407C292.726 194.429 290.477 195.068 288.978 194.752C291.035 195.185 291.715 194.293 290.153 194.607C289.267 194.785 288.381 194.932 287.501 195.131C285.754 195.526 284.026 196.014 282.327 196.594C281.521 196.87 280.658 197.334 279.83 197.518C283.584 196.684 281.544 196.807 280.236 197.434C278.913 198.071 277.617 198.763 276.348 199.504C274.819 200.398 273.38 201.402 271.909 202.385C269.794 203.801 272.859 201.665 273.025 201.493C272.224 202.325 271.16 203 270.288 203.767C267.811 205.944 265.498 208.306 263.35 210.806C262.856 211.38 262.371 211.963 261.896 212.551C261.009 213.647 260.629 215.168 262.417 211.834C261.43 213.674 259.891 215.36 258.762 217.133C257.097 219.745 255.568 222.439 254.167 225.196C253.323 226.858 252.524 228.544 251.77 230.249C251.613 230.601 250.291 233.421 251.429 231.004C252.581 228.557 250.998 232.183 250.823 232.652C248.278 239.511 246.508 246.596 245.219 253.773C244.923 255.424 244.652 257.079 244.402 258.736C244.352 259.067 244.303 259.399 244.255 259.732C244.026 261.341 244.066 261.059 244.371 258.886C244.094 259.583 244.151 260.63 244.063 261.381C243.613 265.213 243.265 269.054 242.986 272.899C242.429 280.62 242.158 288.349 241.922 296.079C240.959 327.593 239.602 359.31 226.024 388.585C214.643 413.124 193.356 432 167.701 440.302C146.921 447.025 123.992 445.892 103.341 440.211C81.2391 434.131 61.2076 423.123 43.1842 409.282C35.3563 403.271 28.0214 396.617 21.4227 389.272C13.9264 380.927 6.78437 371.7 1.90291 361.534C-4.38349 348.446 -8.31966 332.674 -3.12495 318.316C3.60158 299.719 20.8811 288.413 40.1154 286.922C55.3917 285.736 71.0367 291.998 81.9369 302.34C93.3632 313.182 99.1259 329.164 99.3736 344.847C99.6334 361.269 93.3046 376.703 83.1118 389.511C73.7622 401.262 60.5945 409.216 46.6912 414.313C17.2053 425.123 -14.5343 419.182 -41.7303 406.022C-56.5582 398.848 -70.1794 389.382 -82.9657 379.092C-95.4002 369.086 -106.774 357.771 -116.86 345.401C-127.359 332.53 -136.722 318.787 -144.475 304.068C-148.123 297.139 -146.049 287.277 -138.618 283.431C-131.462 279.727 -121.994 281.495 -118.083 288.924Z"/>
</mask>
<path d="M-118.083 288.924C-114.277 296.154 -110.113 303.183 -105.563 309.965C-103.388 313.208 -101.111 316.374 -98.7956 319.517C-98.1872 320.343 -97.6834 321.787 -99.294 318.862C-98.8069 319.746 -97.9558 320.587 -97.3302 321.378C-96.0085 323.047 -94.6634 324.698 -93.2966 326.327C-83.0411 338.555 -71.5123 349.712 -58.9354 359.542C-58.2318 360.093 -55.2264 362.021 -58.7543 359.705C-58.1699 360.089 -57.6126 360.559 -57.047 360.975C-55.3335 362.239 -53.6027 363.477 -51.8547 364.691C-48.617 366.939 -45.3198 369.103 -41.9598 371.171C-35.5614 375.11 -28.9324 378.692 -22.0512 381.74C-21.136 382.147 -20.2097 382.527 -19.2913 382.927C-18.0139 383.484 -18.2265 384.089 -20.1223 382.611C-18.7704 383.667 -16.1185 384.118 -14.4868 384.67C-11.0152 385.844 -7.4913 386.865 -3.92091 387.707C-0.538837 388.504 2.89945 388.893 6.29332 389.581C1.6503 388.64 6.24432 389.526 7.54135 389.612C9.5325 389.745 11.5304 389.811 13.529 389.809C16.5438 389.806 19.5569 389.65 22.562 389.344C23.2665 389.271 24.0043 389.107 24.7081 389.099C20.5684 389.148 23.1036 389.32 24.2949 389.12C25.999 388.835 27.6942 388.499 29.3791 388.111C32.4543 387.403 35.4939 386.525 38.4748 385.467C39.2832 385.18 40.0826 384.865 40.8865 384.567C42.0071 384.149 42.5837 383.312 39.6243 385.093C41.1794 384.158 43.0178 383.552 44.634 382.706C47.2682 381.326 49.8156 379.781 52.25 378.07C53.2929 377.337 55.0859 375.397 51.7308 378.534C52.3438 377.961 53.0581 377.471 53.6987 376.925C54.9893 375.825 56.2354 374.671 57.4294 373.467C58.4283 372.459 59.392 371.416 60.3172 370.34C60.869 369.697 61.3642 368.971 61.9451 368.357C58.8345 371.657 60.7698 369.888 61.5016 368.825C63.3319 366.173 64.9376 363.368 66.2968 360.451L66.6691 359.634C67.3087 358.157 67.1568 358.536 66.212 360.769C66.3348 360.002 66.8314 359.122 67.0778 358.376C67.5244 357.034 67.917 355.672 68.2509 354.299C68.45 353.474 68.6306 352.643 68.7911 351.811C68.8755 351.368 69.2375 348.562 68.9371 351.218C68.6334 353.895 68.934 351.04 68.9719 350.609C69.0731 349.484 69.1388 348.357 69.1674 347.228C69.2031 345.818 69.18 344.409 69.0996 343.006C69.0512 342.183 68.8749 341.308 68.893 340.486C68.8061 344.182 69.1644 342.68 68.9484 341.397C68.4092 338.179 67.2471 335.254 66.4317 332.138C67.4819 336.166 67.1171 333.866 66.5614 332.695C66.2045 331.945 65.829 331.204 65.4302 330.475C64.7635 329.255 63.9956 328.11 63.2604 326.935C61.6133 324.292 65.7423 329.816 63.6982 327.46C63.3399 327.045 62.9987 326.617 62.6358 326.204C61.3769 324.779 59.9818 323.534 58.5778 322.261C57.7231 321.485 56.4621 321.166 59.8658 323.187C59.1764 322.779 58.5408 322.24 57.8672 321.804C56.7321 321.068 55.5625 320.388 54.36 319.766C53.6378 319.394 52.8936 319.068 52.1651 318.711C49.4343 317.378 55.6472 319.911 52.7601 318.947C51.2178 318.432 49.6721 317.947 48.0837 317.582C47.2918 317.399 46.4885 317.279 45.6949 317.107C43.3976 316.611 46.8833 317.237 47.1107 317.23C45.5109 317.279 43.8754 316.979 42.2619 317.001C40.9268 317.021 39.5539 317.287 38.2299 317.271C42.1957 317.316 40.2558 316.98 38.8719 317.273C38.0784 317.44 37.2924 317.635 36.5108 317.855C35.7277 318.077 34.9657 318.357 34.1886 318.601C31.305 319.507 37.4616 316.871 34.8049 318.35C33.2768 319.2 31.7736 320.038 30.2638 320.922C27.2208 322.705 32.6999 318.501 30.186 320.975C29.4401 321.709 28.6484 322.378 27.93 323.142C27.5162 323.584 27.0111 324.38 26.5565 324.706C27.9607 322.823 28.1748 322.582 27.2002 323.983C26.8223 324.566 26.4659 325.162 26.1325 325.771C25.8133 326.354 25.545 326.956 25.2474 327.548C24.3626 329.301 26.5188 323.723 25.7414 326.444C25.3982 327.646 24.3858 329.655 24.6082 330.904C24.6068 330.891 24.9636 326.937 24.8325 329.343C24.7901 330.109 24.7138 330.87 24.6946 331.637C24.6545 333.195 24.8096 334.717 24.8825 336.267C24.6441 331.218 25.0259 336.494 25.3463 337.863C25.6488 339.162 26.0071 340.447 26.4089 341.716C26.6526 342.488 26.9367 343.243 27.1898 344.008C27.9431 346.285 26.71 342.823 26.6278 342.666C27.5086 344.336 28.1468 346.161 29.0073 347.851C31.4201 352.596 34.3417 357.009 37.4763 361.293C39.0306 363.415 34.8993 357.97 36.5283 360.048C36.8449 360.452 37.1615 360.859 37.4796 361.262C38.1895 362.156 38.9086 363.04 39.6418 363.917C41.1984 365.78 42.8049 367.601 44.4536 369.381C47.7738 372.967 51.2734 376.388 54.9167 379.645C56.7384 381.273 58.596 382.859 60.488 384.404C61.3557 385.113 62.2297 385.812 63.1099 386.502C63.6414 386.918 64.1777 387.323 64.7077 387.741C60.577 384.49 62.7548 386.259 63.6707 386.938C71.8924 393.021 80.6634 398.381 89.8754 402.864C92.1241 403.958 94.3995 405 96.7002 405.987C97.7435 406.434 98.7963 406.853 99.8427 407.291C94.5982 405.099 100.005 407.312 101.3 407.777C105.932 409.441 110.654 410.867 115.45 412.014C117.813 412.579 120.196 413.076 122.594 413.499C123.675 413.691 124.76 413.867 125.846 414.026C126.496 414.12 127.147 414.206 127.799 414.296C130.386 414.652 124.131 413.912 126.576 414.144C131.527 414.613 136.482 414.846 141.468 414.628C143.82 414.527 146.161 414.308 148.504 414.051C149.541 413.936 151.164 413.546 146.576 414.323C147.206 414.217 147.841 414.134 148.473 414.029C149.736 413.819 150.992 413.58 152.244 413.312C154.541 412.822 156.817 412.232 159.065 411.546C160.09 411.232 161.108 410.898 162.121 410.544C163.509 410.057 168.54 407.734 163.304 410.179C167.72 408.115 172.004 405.988 176.079 403.274C177.022 402.647 177.951 401.997 178.867 401.33C179.855 400.608 181.82 398.814 177.823 402.156C178.354 401.71 178.913 401.292 179.449 400.851C181.779 398.935 184.009 396.899 186.112 394.735C187.34 393.472 188.526 392.167 189.665 390.822C190.181 390.214 190.673 389.585 191.184 388.972C192.6 387.277 188.828 392.27 190.73 389.558C192.928 386.419 195.02 383.254 196.862 379.893C197.63 378.494 198.361 377.075 199.061 375.64C199.731 374.265 200.371 371.429 201.44 370.387C201.239 370.583 200.101 373.83 201.022 371.346C201.358 370.439 201.714 369.54 202.043 368.631C202.706 366.806 203.32 364.966 203.896 363.114C206.125 355.951 207.734 348.611 208.902 341.221C209.004 340.576 209.095 339.93 209.198 339.287C209.74 335.869 208.798 342.683 209.204 339.25C209.415 337.479 209.632 335.707 209.813 333.931C210.198 330.158 210.48 326.377 210.71 322.593C211.624 307.466 211.608 292.315 212.52 277.186C213.461 261.578 215.139 245.549 219.871 230.513C224.664 215.279 232.153 201.022 242.776 188.961C252.656 177.747 266.302 168.836 280.976 165.799C297.548 162.37 313.657 165.338 328.914 171.736C357.579 183.758 383.477 209.147 385.767 241.565C387.707 269.047 369.996 294.851 347.803 309.749C323.553 326.026 292.291 327.23 264.915 321.194C250.44 318.002 236.425 312.578 223.164 306.115C207.833 298.644 193.441 289.142 180.688 277.85C158.022 257.778 140.627 229.789 136.208 199.332C133.899 183.411 134.613 167.567 138.71 151.848C142.634 136.792 149.298 122.309 156.95 108.745C173.207 79.9236 193.625 52.9746 215.8 28.4168C238.436 3.3491 263.776 -19.0712 291.026 -38.9808C303.871 -48.3634 317.191 -57.071 330.911 -65.097C337.778 -69.1147 347.821 -66.7906 351.446 -59.6036C355.13 -52.3027 352.949 -43.2745 345.588 -38.9679C331.238 -30.5728 317.325 -21.4314 303.936 -11.5537C302.318 -10.3591 300.714 -9.14764 299.104 -7.94229C296.044 -5.65213 301.877 -10.1077 298.861 -7.7607C298.283 -7.3116 297.706 -6.86567 297.129 -6.41507C293.67 -3.7161 290.247 -0.967946 286.864 1.82626C280.379 7.18322 274.036 12.7137 267.844 18.4084C255.729 29.5509 244.197 41.3256 233.308 53.6685C227.986 59.7019 222.817 65.8733 217.811 72.17C216.46 73.8711 214.965 75.5473 213.753 77.3508C215.82 74.2744 214.762 76.0255 214.235 76.7216C213.574 77.5968 212.909 78.4704 212.25 79.3471C209.617 82.8571 207.035 86.4052 204.504 89.9854C195.547 102.659 187.013 115.744 179.777 129.468C178.097 132.654 176.495 135.881 174.99 139.152C174.309 140.634 173.662 142.131 173.008 143.624C171.614 146.809 174.265 140.353 173.027 143.596C172.564 144.81 172.083 146.015 171.636 147.235C169.187 153.903 167.232 160.753 165.977 167.726C165.807 168.676 165.662 169.63 165.503 170.583C164.966 173.828 165.776 167.949 165.579 170.1C165.416 171.869 165.209 173.631 165.1 175.405C164.87 179.107 164.861 182.819 165.067 186.515C165.154 188.053 165.298 189.583 165.431 191.115C165.718 194.416 164.897 187.684 165.419 190.952C165.541 191.711 165.642 192.474 165.767 193.233C166.338 196.725 167.091 200.185 168.012 203.594C168.896 206.865 169.933 210.09 171.113 213.262C171.22 213.55 171.331 213.838 171.438 214.127C172.019 215.622 171.878 215.278 171.016 213.092C171.425 213.664 171.631 214.569 171.916 215.222C172.713 217.062 173.557 218.88 174.447 220.676C177.462 226.753 181.001 232.564 184.991 238.04C185.173 238.287 185.355 238.535 185.539 238.784C186.525 240.101 186.272 239.77 184.782 237.79C185.49 238.28 186.14 239.513 186.688 240.183C187.813 241.563 188.967 242.92 190.149 244.253C192.979 247.448 195.961 250.508 199.074 253.43C201.929 256.11 204.891 258.673 207.946 261.123C208.64 261.679 209.35 262.221 210.046 262.776C211.859 264.217 206.923 260.518 209.836 262.606C211.722 263.958 213.598 265.32 215.525 266.619C222.195 271.123 229.181 275.159 236.386 278.766C239.793 280.471 243.25 282.083 246.748 283.596C248.107 284.184 249.486 284.727 250.849 285.312C246.716 283.536 249.662 284.834 250.559 285.176C251.674 285.601 252.791 286.016 253.914 286.418C260.096 288.632 266.412 290.497 272.836 291.914C276.031 292.619 279.253 293.213 282.497 293.679C283.443 293.816 286.611 294.057 282.202 293.677C282.792 293.727 283.381 293.807 283.97 293.865C286.027 294.068 288.092 294.22 290.158 294.31C293.242 294.445 296.336 294.452 299.426 294.311C301.039 294.238 302.652 294.128 304.262 293.975C305.092 293.896 306.062 293.646 306.889 293.687C303.358 293.508 305.085 293.949 306.546 293.712C309.744 293.19 312.917 292.492 316.043 291.613C317.617 291.171 319.178 290.681 320.723 290.147C321.351 289.93 321.978 289.705 322.601 289.469C326.358 288.045 320.16 290.627 322.551 289.494C325.142 288.264 327.695 287 330.157 285.513C331.276 284.838 332.378 284.132 333.458 283.398C334.108 282.956 334.74 282.493 335.386 282.043C337.802 280.364 332.516 284.37 334.649 282.627C336.884 280.8 339.055 278.92 341.094 276.876C342.202 275.768 343.273 274.623 344.306 273.446C345.295 272.319 348.346 267.888 345.266 272.452C346.86 270.091 348.529 267.834 349.948 265.357C350.584 264.248 351.186 263.122 351.753 261.978C352.094 261.294 352.42 260.606 352.734 259.912C354.208 256.654 352.232 261.398 352.547 260.399C353.343 257.877 354.279 255.433 354.88 252.85C355.197 251.494 355.674 246.337 355.288 251.535C355.4 250.043 355.606 248.57 355.664 247.07C355.718 245.698 355.712 244.324 355.647 242.954C355.617 242.328 355.56 241.704 355.523 241.079C355.352 238.187 356.14 244.761 355.622 241.903C355.383 240.587 355.163 239.277 354.851 237.979C354.63 237.059 354.38 236.144 354.108 235.239C353.862 234.418 352.759 232.488 352.887 231.679C352.839 231.981 354.389 235.01 353.249 232.694C352.836 231.853 352.461 230.995 352.035 230.157C351.254 228.623 350.399 227.129 349.486 225.672C348.601 224.26 347.274 222.889 346.557 221.401C346.982 221.966 347.407 222.532 347.832 223.097C347.44 222.603 347.042 222.111 346.637 221.628C346.029 220.898 345.403 220.181 344.767 219.477C342.419 216.876 339.888 214.439 337.231 212.156C336.132 211.213 334.362 210.29 333.516 209.128C334.074 209.551 334.63 209.973 335.186 210.398C334.674 210.018 334.158 209.642 333.64 209.271C332.604 208.531 331.555 207.81 330.494 207.108C327.721 205.275 324.864 203.563 321.93 201.999C320.604 201.291 319.261 200.613 317.903 199.966C317.088 199.579 316.267 199.201 315.439 198.839C314.288 198.334 311.925 197.959 315.719 198.897C312.547 198.113 309.515 196.676 306.319 195.877C304.589 195.446 302.843 195.076 301.082 194.782C300.504 194.685 299.889 194.641 299.324 194.513C303.663 195.5 299.917 194.597 298.735 194.52C297.26 194.425 295.781 194.388 294.302 194.407C292.726 194.429 290.477 195.068 288.978 194.752C291.035 195.185 291.715 194.293 290.153 194.607C289.267 194.785 288.381 194.932 287.501 195.131C285.754 195.526 284.026 196.014 282.327 196.594C281.521 196.87 280.658 197.334 279.83 197.518C283.584 196.684 281.544 196.807 280.236 197.434C278.913 198.071 277.617 198.763 276.348 199.504C274.819 200.398 273.38 201.402 271.909 202.385C269.794 203.801 272.859 201.665 273.025 201.493C272.224 202.325 271.16 203 270.288 203.767C267.811 205.944 265.498 208.306 263.35 210.806C262.856 211.38 262.371 211.963 261.896 212.551C261.009 213.647 260.629 215.168 262.417 211.834C261.43 213.674 259.891 215.36 258.762 217.133C257.097 219.745 255.568 222.439 254.167 225.196C253.323 226.858 252.524 228.544 251.77 230.249C251.613 230.601 250.291 233.421 251.429 231.004C252.581 228.557 250.998 232.183 250.823 232.652C248.278 239.511 246.508 246.596 245.219 253.773C244.923 255.424 244.652 257.079 244.402 258.736C244.352 259.067 244.303 259.399 244.255 259.732C244.026 261.341 244.066 261.059 244.371 258.886C244.094 259.583 244.151 260.63 244.063 261.381C243.613 265.213 243.265 269.054 242.986 272.899C242.429 280.62 242.158 288.349 241.922 296.079C240.959 327.593 239.602 359.31 226.024 388.585C214.643 413.124 193.356 432 167.701 440.302C146.921 447.025 123.992 445.892 103.341 440.211C81.2391 434.131 61.2076 423.123 43.1842 409.282C35.3563 403.271 28.0214 396.617 21.4227 389.272C13.9264 380.927 6.78437 371.7 1.90291 361.534C-4.38349 348.446 -8.31966 332.674 -3.12495 318.316C3.60158 299.719 20.8811 288.413 40.1154 286.922C55.3917 285.736 71.0367 291.998 81.9369 302.34C93.3632 313.182 99.1259 329.164 99.3736 344.847C99.6334 361.269 93.3046 376.703 83.1118 389.511C73.7622 401.262 60.5945 409.216 46.6912 414.313C17.2053 425.123 -14.5343 419.182 -41.7303 406.022C-56.5582 398.848 -70.1794 389.382 -82.9657 379.092C-95.4002 369.086 -106.774 357.771 -116.86 345.401C-127.359 332.53 -136.722 318.787 -144.475 304.068C-148.123 297.139 -146.049 287.277 -138.618 283.431C-131.462 279.727 -121.994 281.495 -118.083 288.924Z" fill="#D3ECF2" stroke="#D3ECF2" stroke-width="30" mask="url(#path-1-inside-1_1_1190)"/>
</svg>
