<svg width="828" height="932" viewBox="0 0 828 932" fill="none" xmlns="http://www.w3.org/2000/svg">
<mask id="path-1-inside-1_175_20" fill="white">
<path d="M43.5902 840.766C61.2892 846.232 79.2379 850.803 97.4068 854.358C106.095 856.058 114.823 857.474 123.575 858.789C125.876 859.137 129 860.639 121.726 858.541C123.925 859.174 126.638 859.156 128.91 859.419C133.703 859.968 138.507 860.453 143.31 860.868C179.359 863.988 215.727 863.353 251.644 858.914C253.654 858.666 261.562 856.933 252.195 858.883C253.748 858.561 255.394 858.419 256.967 858.178C261.74 857.452 266.498 856.657 271.246 855.797C280.039 854.202 288.793 852.377 297.492 850.298C314.059 846.339 330.425 841.441 346.336 835.283C348.454 834.466 350.547 833.588 352.66 832.756C355.599 831.598 356.23 832.907 350.823 833.583C354.681 833.104 359.652 829.573 363.151 827.839C370.595 824.151 377.876 820.132 384.945 815.754C391.641 811.607 397.771 806.715 404.31 802.372C395.364 808.313 404.143 802.363 406.358 800.42C409.761 797.441 413.066 794.342 416.263 791.133C421.085 786.293 425.661 781.213 429.982 775.902C430.993 774.656 431.911 773.21 433.026 772.069C426.475 778.787 430.812 774.997 432.397 772.765C434.67 769.577 436.844 766.319 438.92 762.997C442.708 756.932 446.167 750.653 449.242 744.179C450.076 742.423 450.851 740.637 451.66 738.871C452.783 736.405 452.363 734.14 450.484 741.738C451.472 737.747 453.444 733.829 454.674 729.883C456.677 723.45 458.278 716.893 459.431 710.251C459.924 707.405 459.681 701.425 459.344 711.826C459.406 709.926 459.762 707.996 459.913 706.095C460.213 702.265 460.357 698.419 460.338 694.579C460.319 691.364 460.188 688.149 459.943 684.944C459.794 683.029 459.423 681.074 459.367 679.159C459.683 689.43 459.942 683.494 459.408 680.619C458.082 673.44 456.152 666.377 453.647 659.53L452.933 657.625C451.587 654.236 451.951 655.086 454.022 660.174C452.988 658.75 452.371 656.546 451.568 654.957C450.129 652.093 448.573 649.284 446.903 646.551C445.898 644.912 444.854 643.293 443.776 641.704C443.2 640.86 439.276 635.789 443.057 640.52C446.867 645.291 442.767 640.24 442.136 639.491C440.492 637.528 438.789 635.619 437.022 633.766C434.817 631.454 432.519 629.236 430.137 627.118C428.74 625.88 427.053 624.762 425.763 623.418C431.556 629.472 429.719 626.494 427.313 624.786C421.286 620.503 414.73 617.685 408.423 614.007C416.57 618.768 412.294 615.672 409.525 614.69C407.75 614.062 405.96 613.479 404.15 612.951C401.126 612.069 398.058 611.468 394.994 610.766C388.115 609.179 403.593 611.397 396.538 610.904C395.299 610.816 394.065 610.677 392.821 610.598C388.519 610.338 384.287 610.583 379.995 610.798C377.38 610.925 374.85 612.438 383.544 610.214C381.784 610.666 379.902 610.823 378.123 611.205C375.124 611.848 372.161 612.636 369.237 613.57C367.482 614.132 365.767 614.803 364.028 615.4C357.517 617.648 371.531 611.737 365.359 614.824C362.063 616.473 358.81 618.176 355.681 620.14C354.118 621.117 352.64 622.213 351.092 623.21C346.617 626.1 353.204 621.513 353.558 621.137C351.073 623.78 347.974 625.924 345.425 628.547C343.319 630.719 341.547 633.346 339.401 635.444C345.824 629.156 342.179 631.73 340.432 634.418C339.431 635.959 338.484 637.53 337.586 639.136C336.688 640.747 335.918 642.418 335.064 644.054C331.9 650.128 337.528 636.036 335.648 642.663C334.566 646.475 333.503 650.226 332.504 654.062C330.492 661.795 332.52 646.282 332.465 654.272C332.448 656.643 332.254 658.983 332.33 661.358C332.376 662.728 332.845 664.813 332.64 666.063C331.868 660.799 331.823 660.069 332.51 663.873C332.841 665.413 333.226 666.937 333.67 668.447C334.095 669.892 334.632 671.286 335.106 672.711C336.502 676.934 331.002 664.55 334.125 670.152C335.504 672.625 337.107 677.464 339.468 679.106C339.444 679.086 333.67 672.187 337.322 676.248C338.483 677.542 339.581 678.881 340.782 680.14C343.218 682.697 345.91 684.885 348.513 687.247C340.029 679.551 349.108 687.381 351.819 689.058C354.387 690.651 357.023 692.133 359.704 693.52C361.332 694.363 363 695.116 364.633 695.935C369.493 698.369 361.962 694.807 361.578 694.688C365.67 695.948 369.62 697.844 373.711 699.17C385.19 702.892 396.951 705.27 408.845 707.097C414.741 708 399.386 705.912 405.33 706.625C406.485 706.764 407.646 706.908 408.801 707.042C411.373 707.334 413.944 707.596 416.525 707.823C422.007 708.307 427.504 708.646 433 708.85C444.072 709.263 455.167 709.126 466.228 708.494C471.758 708.178 477.278 707.736 482.788 707.175C485.315 706.918 487.837 706.635 490.353 706.327C491.872 706.14 493.381 705.929 494.9 705.747C483.069 707.17 489.395 706.508 491.951 706.125C514.881 702.675 537.528 697.185 559.475 689.585C564.831 687.729 570.148 685.748 575.416 683.637C577.804 682.679 580.163 681.662 582.541 680.684C570.625 685.587 582.836 680.459 585.656 679.126C595.743 674.359 605.594 669.068 615.115 663.212C619.807 660.327 624.42 657.302 628.939 654.131C630.978 652.704 632.997 651.247 634.991 649.76C636.185 648.868 637.363 647.962 638.552 647.06C643.268 643.48 632.064 652.328 636.352 648.778C645.03 641.588 653.34 634.013 660.975 625.669C664.58 621.735 667.977 617.631 671.315 613.462C672.793 611.616 674.766 608.388 668.664 616.991C669.504 615.81 670.387 614.659 671.232 613.478C672.915 611.116 674.545 608.719 676.12 606.282C679.011 601.813 681.71 597.22 684.207 592.517C685.345 590.371 686.439 588.204 687.493 586.013C688.935 583.006 693.263 571.221 688.803 583.531C692.562 573.147 696.007 562.872 698.178 551.994C698.681 549.478 699.126 546.948 699.521 544.412C699.946 541.672 700.215 535.651 699.176 547.408C699.312 545.843 699.536 544.277 699.687 542.712C700.343 535.911 700.645 529.075 700.539 522.24C700.481 518.25 700.285 514.26 699.951 510.28C699.801 508.48 699.578 506.685 699.414 504.885C698.961 499.9 700.933 513.939 699.627 506.55C698.109 498.001 696.379 489.582 693.936 481.25C692.919 477.781 691.814 474.337 690.631 470.918C689.497 467.644 685.971 462.077 686.011 458.697C686.002 459.332 689.392 466.354 686.879 460.901C685.962 458.912 685.09 456.903 684.158 454.919C682.291 450.936 680.32 447.008 678.271 443.12C670.344 428.082 661.14 413.757 651.15 400.057C650.279 398.863 649.388 397.684 648.521 396.49C643.903 390.149 653.331 402.565 648.472 396.42C645.966 393.247 643.47 390.065 640.91 386.932C635.471 380.278 629.855 373.774 624.15 367.35C601.335 341.678 576.994 317.458 554.174 291.787C530.632 265.301 507.593 236.96 491.04 205.311C474.266 173.248 463.378 138.423 461.032 102.088C458.856 68.2984 466.407 32.153 485.032 3.76082C506.067 -28.3042 536.627 -49.3891 571.329 -63.6181C636.526 -90.3514 718.746 -91.2569 774.44 -43.0552C821.654 -2.18969 834.705 67.5052 823.075 126.937C810.364 191.874 762.234 243.935 708.706 278.181C680.405 296.288 649.257 310.084 617.649 321.009C581.107 333.64 542.809 341.517 504.265 343.9C435.754 348.131 362.977 331.24 307.021 289.589C277.771 267.815 253.486 241.315 234.819 209.593C216.94 179.206 204.367 145.343 194.851 111.366C174.63 39.1742 164.076 -36.6936 160.173 -111.554C156.191 -187.969 160.787 -264.484 172.473 -340.046C177.984 -375.659 185.338 -410.954 194.429 -445.802C198.977 -463.243 218.79 -475.63 236.13 -469.944C253.746 -464.168 264.743 -446.224 259.868 -427.527C250.361 -391.08 242.752 -354.139 237.164 -316.861C236.491 -312.355 235.866 -307.844 235.222 -303.333C233.998 -294.761 236.187 -311.244 235.125 -302.653C234.92 -301.007 234.711 -299.367 234.511 -297.722C233.303 -287.855 232.232 -277.968 231.299 -268.071C229.511 -249.098 228.229 -230.076 227.453 -211.034C225.936 -173.775 226.366 -136.438 228.737 -99.2236C229.897 -81.0338 231.525 -62.8694 233.615 -44.7656C234.18 -39.876 234.476 -34.796 235.43 -29.9667C233.804 -38.2054 234.92 -33.7064 235.192 -31.7466C235.539 -29.2868 235.876 -26.822 236.228 -24.3623C237.645 -14.5232 239.204 -4.70438 240.896 5.08435C246.893 39.7298 254.226 74.3538 264.666 107.919C267.088 115.712 269.702 123.445 272.542 131.092C273.829 134.556 275.194 137.99 276.545 141.428C279.424 148.761 273.307 134.176 276.53 141.353C277.738 144.037 278.901 146.736 280.143 149.405C286.923 164.003 294.785 178.1 303.968 191.271C305.219 193.065 306.518 194.824 307.794 196.602C312.141 202.658 304.003 191.951 307.139 195.708C309.718 198.8 312.214 201.953 314.887 204.965C320.459 211.259 326.404 217.213 332.663 222.796C335.272 225.119 337.958 227.336 340.63 229.573C346.387 234.397 334.268 224.94 340.35 229.333C341.762 230.352 343.149 231.41 344.566 232.424C351.085 237.097 357.845 241.425 364.79 245.402C371.456 249.22 378.293 252.718 385.272 255.901C385.907 256.19 386.546 256.474 387.181 256.764C390.511 258.225 389.734 257.901 384.845 255.786C386.418 256.044 388.199 257.162 389.704 257.751C393.934 259.416 398.202 260.972 402.511 262.417C417.092 267.306 432.085 270.93 447.264 273.293C447.952 273.398 448.641 273.502 449.334 273.606C453.026 274.132 452.092 274.008 446.526 273.229C448.448 272.877 451.468 273.809 453.419 274.002C457.436 274.407 461.463 274.728 465.494 274.963C475.155 275.538 484.84 275.652 494.514 275.337C503.388 275.047 512.246 274.397 521.069 273.417C523.075 273.195 525.08 272.923 527.086 272.696C532.301 272.095 518.459 274.09 526.476 272.761C531.666 271.901 536.857 271.07 542.028 270.059C559.938 266.569 577.601 261.824 594.929 256.04C603.121 253.306 611.244 250.342 619.273 247.153C622.394 245.914 625.475 244.571 628.595 243.322C619.126 247.108 625.927 244.46 627.912 243.568C630.378 242.46 632.835 241.332 635.277 240.175C648.73 233.804 661.839 226.66 674.4 218.625C680.649 214.628 686.76 210.411 692.704 205.954C694.438 204.657 699.899 199.961 692.227 206.425C693.254 205.559 694.325 204.743 695.361 203.891C698.981 200.917 702.532 197.848 705.984 194.679C711.141 189.948 716.106 184.998 720.829 179.817C723.294 177.114 725.7 174.351 728.032 171.524C729.235 170.067 730.388 168.111 731.778 166.849C725.835 172.226 729.309 170.162 731.267 167.44C735.552 161.475 739.513 155.27 743.109 148.851C744.92 145.619 746.632 142.331 748.25 138.999C748.908 137.644 749.55 136.278 750.168 134.902C753.9 126.597 748.12 140.67 750.129 135.022C752.305 128.899 754.363 122.782 755.919 116.455C756.629 113.579 757.26 110.683 757.812 107.777C758.145 106.027 758.413 104.271 758.726 102.516C759.898 95.9541 757.865 110.842 758.482 104.631C759.129 98.125 759.589 91.6341 759.572 85.0938C759.568 81.5435 759.446 77.9934 759.211 74.4535C758.986 71.0636 756.761 59.0804 759.154 71.3235C757.918 64.9894 756.967 58.7 755.264 52.4615C754.504 49.6672 753.66 46.898 752.733 44.1588C752.18 42.5194 751.598 40.8949 750.987 39.2805C748.118 31.7032 752.569 42.4639 751.47 40.36C748.696 35.0477 746.272 29.6351 743.09 24.5383C741.421 21.86 733.909 12.8426 741.632 21.7797C739.417 19.212 737.384 16.5241 735.071 14.0315C732.954 11.7487 730.739 9.56093 728.436 7.47331C727.383 6.51945 726.291 5.61062 725.228 4.67172C720.312 0.316837 732.126 9.57442 726.709 5.83013C724.215 4.10777 721.76 2.36542 719.177 0.788179C717.347 -0.329927 715.478 -1.39294 713.589 -2.40587C711.877 -3.3241 707.014 -4.64376 705.92 -6.14268C706.329 -5.58307 713.671 -3.22103 708.129 -5.10007C706.118 -5.78291 704.14 -6.55576 702.114 -7.21357C698.401 -8.41457 694.634 -9.43551 690.833 -10.3014C687.15 -11.1424 682.824 -11.2077 679.288 -12.4388C680.876 -12.2155 682.464 -11.9922 684.052 -11.769C682.632 -11.9324 681.206 -12.0808 679.78 -12.2043C677.636 -12.3969 675.483 -12.5396 673.334 -12.6473C665.399 -13.0436 657.436 -12.8848 649.516 -12.276C646.243 -12.0224 641.928 -10.6626 638.707 -11.164C640.28 -11.3808 641.848 -11.5976 643.421 -11.8094C641.991 -11.5978 640.56 -11.3712 639.135 -11.1345C636.289 -10.6564 633.453 -10.1282 630.627 -9.55012C623.245 -8.03687 615.922 -6.19379 608.712 -3.99074C605.454 -2.9971 602.215 -1.92848 599.002 -0.784865C597.075 -0.0976874 595.154 0.614448 593.247 1.3616C590.594 2.39962 586.207 5.58968 593.788 1.00609C587.45 4.83825 580.29 7.40131 573.889 11.2486C570.425 13.3325 567.036 15.5413 563.744 17.8951C562.664 18.6663 561.608 19.5826 560.498 20.2839C569.031 14.9041 561.583 19.4675 559.564 21.2399C557.05 23.4528 554.624 25.7655 552.287 28.1683C549.797 30.7312 547.221 35.3593 544.313 37.2577C548.302 34.6531 547.96 32.1333 545.962 35.1407C544.828 36.8471 543.646 38.5034 542.556 40.2348C540.392 43.6673 538.41 47.2197 536.619 50.8719C535.771 52.6079 535.134 54.7338 534.103 56.355C538.775 48.9994 535.707 52.468 534.619 55.5694C533.521 58.7108 532.556 61.897 531.714 65.1181C530.701 68.9995 530.007 72.9155 529.23 76.8466C528.115 82.5032 529.595 74.171 529.585 73.631C529.637 76.246 529.016 79.032 528.851 81.6573C528.378 89.1132 528.465 96.6036 529.038 104.048C529.168 105.758 529.327 107.468 529.511 109.173C529.849 112.348 531.681 115.391 529.194 107.188C530.566 111.717 530.807 116.882 531.845 121.531C533.372 128.38 535.247 135.143 537.427 141.801C538.744 145.815 540.17 149.794 541.698 153.732C542.013 154.547 544.42 161.18 542.363 155.487C540.282 149.724 543.566 158.066 544.039 159.095C550.972 174.153 559.508 188.33 568.961 201.88C571.138 204.998 573.358 208.081 575.618 211.134C576.071 211.743 576.524 212.353 576.982 212.962C579.197 215.905 578.808 215.39 575.81 211.423C576.485 212.983 578.257 214.566 579.32 215.91C584.75 222.764 590.357 229.468 596.082 236.068C607.58 249.316 619.55 262.118 631.579 274.866C680.615 326.84 729.343 379.77 754.584 448.391C775.742 505.911 771.949 570.254 744.189 624.683C721.702 668.765 683.164 703.725 640.976 727.753C595.826 753.469 546.081 767.979 495.006 774.736C472.822 777.67 450.397 778.785 428.042 777.615C402.644 776.283 376.398 772.971 352.266 764.532C321.194 753.671 289.577 734.744 274.854 703.439C255.779 662.892 265.305 617.089 293.713 583.856C316.273 557.459 351.377 542.39 385.43 541.458C421.129 540.483 456.007 556.816 481.573 581.514C508.345 607.376 522.979 642.222 527.213 679.065C531.1 712.863 522.78 746.709 508.695 777.161C478.827 841.748 418.464 883.142 353.793 905.699C318.533 917.999 281.528 924.695 244.539 928.736C208.567 932.665 172.193 932.8 136.189 929.18C98.719 925.421 61.6686 918.446 25.6313 907.325C8.66999 902.088 -3.8379 882.981 1.8891 864.909C7.40544 847.506 25.4044 835.151 43.5902 840.766Z"/>
</mask>
<path d="M43.5902 840.766C61.2892 846.232 79.2379 850.803 97.4068 854.358C106.095 856.058 114.823 857.474 123.575 858.789C125.876 859.137 129 860.639 121.726 858.541C123.925 859.174 126.638 859.156 128.91 859.419C133.703 859.968 138.507 860.453 143.31 860.868C179.359 863.988 215.727 863.353 251.644 858.914C253.654 858.666 261.562 856.933 252.195 858.883C253.748 858.561 255.394 858.419 256.967 858.178C261.74 857.452 266.498 856.657 271.246 855.797C280.039 854.202 288.793 852.377 297.492 850.298C314.059 846.339 330.425 841.441 346.336 835.283C348.454 834.466 350.547 833.588 352.66 832.756C355.599 831.598 356.23 832.907 350.823 833.583C354.681 833.104 359.652 829.573 363.151 827.839C370.595 824.151 377.876 820.132 384.945 815.754C391.641 811.607 397.771 806.715 404.31 802.372C395.364 808.313 404.143 802.363 406.358 800.42C409.761 797.441 413.066 794.342 416.263 791.133C421.085 786.293 425.661 781.213 429.982 775.902C430.993 774.656 431.911 773.21 433.026 772.069C426.475 778.787 430.812 774.997 432.397 772.765C434.67 769.577 436.844 766.319 438.92 762.997C442.708 756.932 446.167 750.653 449.242 744.179C450.076 742.423 450.851 740.637 451.66 738.871C452.783 736.405 452.363 734.14 450.484 741.738C451.472 737.747 453.444 733.829 454.674 729.883C456.677 723.45 458.278 716.893 459.431 710.251C459.924 707.405 459.681 701.425 459.344 711.826C459.406 709.926 459.762 707.996 459.913 706.095C460.213 702.265 460.357 698.419 460.338 694.579C460.319 691.364 460.188 688.149 459.943 684.944C459.794 683.029 459.423 681.074 459.367 679.159C459.683 689.43 459.942 683.494 459.408 680.619C458.082 673.44 456.152 666.377 453.647 659.53L452.933 657.625C451.587 654.236 451.951 655.086 454.022 660.174C452.988 658.75 452.371 656.546 451.568 654.957C450.129 652.093 448.573 649.284 446.903 646.551C445.898 644.912 444.854 643.293 443.776 641.704C443.2 640.86 439.276 635.789 443.057 640.52C446.867 645.291 442.767 640.24 442.136 639.491C440.492 637.528 438.789 635.619 437.022 633.766C434.817 631.454 432.519 629.236 430.137 627.118C428.74 625.88 427.053 624.762 425.763 623.418C431.556 629.472 429.719 626.494 427.313 624.786C421.286 620.503 414.73 617.685 408.423 614.007C416.57 618.768 412.294 615.672 409.525 614.69C407.75 614.062 405.96 613.479 404.15 612.951C401.126 612.069 398.058 611.468 394.994 610.766C388.115 609.179 403.593 611.397 396.538 610.904C395.299 610.816 394.065 610.677 392.821 610.598C388.519 610.338 384.287 610.583 379.995 610.798C377.38 610.925 374.85 612.438 383.544 610.214C381.784 610.666 379.902 610.823 378.123 611.205C375.124 611.848 372.161 612.636 369.237 613.57C367.482 614.132 365.767 614.803 364.028 615.4C357.517 617.648 371.531 611.737 365.359 614.824C362.063 616.473 358.81 618.176 355.681 620.14C354.118 621.117 352.64 622.213 351.092 623.21C346.617 626.1 353.204 621.513 353.558 621.137C351.073 623.78 347.974 625.924 345.425 628.547C343.319 630.719 341.547 633.346 339.401 635.444C345.824 629.156 342.179 631.73 340.432 634.418C339.431 635.959 338.484 637.53 337.586 639.136C336.688 640.747 335.918 642.418 335.064 644.054C331.9 650.128 337.528 636.036 335.648 642.663C334.566 646.475 333.503 650.226 332.504 654.062C330.492 661.795 332.52 646.282 332.465 654.272C332.448 656.643 332.254 658.983 332.33 661.358C332.376 662.728 332.845 664.813 332.64 666.063C331.868 660.799 331.823 660.069 332.51 663.873C332.841 665.413 333.226 666.937 333.67 668.447C334.095 669.892 334.632 671.286 335.106 672.711C336.502 676.934 331.002 664.55 334.125 670.152C335.504 672.625 337.107 677.464 339.468 679.106C339.444 679.086 333.67 672.187 337.322 676.248C338.483 677.542 339.581 678.881 340.782 680.14C343.218 682.697 345.91 684.885 348.513 687.247C340.029 679.551 349.108 687.381 351.819 689.058C354.387 690.651 357.023 692.133 359.704 693.52C361.332 694.363 363 695.116 364.633 695.935C369.493 698.369 361.962 694.807 361.578 694.688C365.67 695.948 369.62 697.844 373.711 699.17C385.19 702.892 396.951 705.27 408.845 707.097C414.741 708 399.386 705.912 405.33 706.625C406.485 706.764 407.646 706.908 408.801 707.042C411.373 707.334 413.944 707.596 416.525 707.823C422.007 708.307 427.504 708.646 433 708.85C444.072 709.263 455.167 709.126 466.228 708.494C471.758 708.178 477.278 707.736 482.788 707.175C485.315 706.918 487.837 706.635 490.353 706.327C491.872 706.14 493.381 705.929 494.9 705.747C483.069 707.17 489.395 706.508 491.951 706.125C514.881 702.675 537.528 697.185 559.475 689.585C564.831 687.729 570.148 685.748 575.416 683.637C577.804 682.679 580.163 681.662 582.541 680.684C570.625 685.587 582.836 680.459 585.656 679.126C595.743 674.359 605.594 669.068 615.115 663.212C619.807 660.327 624.42 657.302 628.939 654.131C630.978 652.704 632.997 651.247 634.991 649.76C636.185 648.868 637.363 647.962 638.552 647.06C643.268 643.48 632.064 652.328 636.352 648.778C645.03 641.588 653.34 634.013 660.975 625.669C664.58 621.735 667.977 617.631 671.315 613.462C672.793 611.616 674.766 608.388 668.664 616.991C669.504 615.81 670.387 614.659 671.232 613.478C672.915 611.116 674.545 608.719 676.12 606.282C679.011 601.813 681.71 597.22 684.207 592.517C685.345 590.371 686.439 588.204 687.493 586.013C688.935 583.006 693.263 571.221 688.803 583.531C692.562 573.147 696.007 562.872 698.178 551.994C698.681 549.478 699.126 546.948 699.521 544.412C699.946 541.672 700.215 535.651 699.176 547.408C699.312 545.843 699.536 544.277 699.687 542.712C700.343 535.911 700.645 529.075 700.539 522.24C700.481 518.25 700.285 514.26 699.951 510.28C699.801 508.48 699.578 506.685 699.414 504.885C698.961 499.9 700.933 513.939 699.627 506.55C698.109 498.001 696.379 489.582 693.936 481.25C692.919 477.781 691.814 474.337 690.631 470.918C689.497 467.644 685.971 462.077 686.011 458.697C686.002 459.332 689.392 466.354 686.879 460.901C685.962 458.912 685.09 456.903 684.158 454.919C682.291 450.936 680.32 447.008 678.271 443.12C670.344 428.082 661.14 413.757 651.15 400.057C650.279 398.863 649.388 397.684 648.521 396.49C643.903 390.149 653.331 402.565 648.472 396.42C645.966 393.247 643.47 390.065 640.91 386.932C635.471 380.278 629.855 373.774 624.15 367.35C601.335 341.678 576.994 317.458 554.174 291.787C530.632 265.301 507.593 236.96 491.04 205.311C474.266 173.248 463.378 138.423 461.032 102.088C458.856 68.2984 466.407 32.153 485.032 3.76082C506.067 -28.3042 536.627 -49.3891 571.329 -63.6181C636.526 -90.3514 718.746 -91.2569 774.44 -43.0552C821.654 -2.18969 834.705 67.5052 823.075 126.937C810.364 191.874 762.234 243.935 708.706 278.181C680.405 296.288 649.257 310.084 617.649 321.009C581.107 333.64 542.809 341.517 504.265 343.9C435.754 348.131 362.977 331.24 307.021 289.589C277.771 267.815 253.486 241.315 234.819 209.593C216.94 179.206 204.367 145.343 194.851 111.366C174.63 39.1742 164.076 -36.6936 160.173 -111.554C156.191 -187.969 160.787 -264.484 172.473 -340.046C177.984 -375.659 185.338 -410.954 194.429 -445.802C198.977 -463.243 218.79 -475.63 236.13 -469.944C253.746 -464.168 264.743 -446.224 259.868 -427.527C250.361 -391.08 242.752 -354.139 237.164 -316.861C236.491 -312.355 235.866 -307.844 235.222 -303.333C233.998 -294.761 236.187 -311.244 235.125 -302.653C234.92 -301.007 234.711 -299.367 234.511 -297.722C233.303 -287.855 232.232 -277.968 231.299 -268.071C229.511 -249.098 228.229 -230.076 227.453 -211.034C225.936 -173.775 226.366 -136.438 228.737 -99.2236C229.897 -81.0338 231.525 -62.8694 233.615 -44.7656C234.18 -39.876 234.476 -34.796 235.43 -29.9667C233.804 -38.2054 234.92 -33.7064 235.192 -31.7466C235.539 -29.2868 235.876 -26.822 236.228 -24.3623C237.645 -14.5232 239.204 -4.70438 240.896 5.08435C246.893 39.7298 254.226 74.3538 264.666 107.919C267.088 115.712 269.702 123.445 272.542 131.092C273.829 134.556 275.194 137.99 276.545 141.428C279.424 148.761 273.307 134.176 276.53 141.353C277.738 144.037 278.901 146.736 280.143 149.405C286.923 164.003 294.785 178.1 303.968 191.271C305.219 193.065 306.518 194.824 307.794 196.602C312.141 202.658 304.003 191.951 307.139 195.708C309.718 198.8 312.214 201.953 314.887 204.965C320.459 211.259 326.404 217.213 332.663 222.796C335.272 225.119 337.958 227.336 340.63 229.573C346.387 234.397 334.268 224.94 340.35 229.333C341.762 230.352 343.149 231.41 344.566 232.424C351.085 237.097 357.845 241.425 364.79 245.402C371.456 249.22 378.293 252.718 385.272 255.901C385.907 256.19 386.546 256.474 387.181 256.764C390.511 258.225 389.734 257.901 384.845 255.786C386.418 256.044 388.199 257.162 389.704 257.751C393.934 259.416 398.202 260.972 402.511 262.417C417.092 267.306 432.085 270.93 447.264 273.293C447.952 273.398 448.641 273.502 449.334 273.606C453.026 274.132 452.092 274.008 446.526 273.229C448.448 272.877 451.468 273.809 453.419 274.002C457.436 274.407 461.463 274.728 465.494 274.963C475.155 275.538 484.84 275.652 494.514 275.337C503.388 275.047 512.246 274.397 521.069 273.417C523.075 273.195 525.08 272.923 527.086 272.696C532.301 272.095 518.459 274.09 526.476 272.761C531.666 271.901 536.857 271.07 542.028 270.059C559.938 266.569 577.601 261.824 594.929 256.04C603.121 253.306 611.244 250.342 619.273 247.153C622.394 245.914 625.475 244.571 628.595 243.322C619.126 247.108 625.927 244.46 627.912 243.568C630.378 242.46 632.835 241.332 635.277 240.175C648.73 233.804 661.839 226.66 674.4 218.625C680.649 214.628 686.76 210.411 692.704 205.954C694.438 204.657 699.899 199.961 692.227 206.425C693.254 205.559 694.325 204.743 695.361 203.891C698.981 200.917 702.532 197.848 705.984 194.679C711.141 189.948 716.106 184.998 720.829 179.817C723.294 177.114 725.7 174.351 728.032 171.524C729.235 170.067 730.388 168.111 731.778 166.849C725.835 172.226 729.309 170.162 731.267 167.44C735.552 161.475 739.513 155.27 743.109 148.851C744.92 145.619 746.632 142.331 748.25 138.999C748.908 137.644 749.55 136.278 750.168 134.902C753.9 126.597 748.12 140.67 750.129 135.022C752.305 128.899 754.363 122.782 755.919 116.455C756.629 113.579 757.26 110.683 757.812 107.777C758.145 106.027 758.413 104.271 758.726 102.516C759.898 95.9541 757.865 110.842 758.482 104.631C759.129 98.125 759.589 91.6341 759.572 85.0938C759.568 81.5435 759.446 77.9934 759.211 74.4535C758.986 71.0636 756.761 59.0804 759.154 71.3235C757.918 64.9894 756.967 58.7 755.264 52.4615C754.504 49.6672 753.66 46.898 752.733 44.1588C752.18 42.5194 751.598 40.8949 750.987 39.2805C748.118 31.7032 752.569 42.4639 751.47 40.36C748.696 35.0477 746.272 29.6351 743.09 24.5383C741.421 21.86 733.909 12.8426 741.632 21.7797C739.417 19.212 737.384 16.5241 735.071 14.0315C732.954 11.7487 730.739 9.56093 728.436 7.47331C727.383 6.51945 726.291 5.61062 725.228 4.67172C720.312 0.316837 732.126 9.57442 726.709 5.83013C724.215 4.10777 721.76 2.36542 719.177 0.788179C717.347 -0.329927 715.478 -1.39294 713.589 -2.40587C711.877 -3.3241 707.014 -4.64376 705.92 -6.14268C706.329 -5.58307 713.671 -3.22103 708.129 -5.10007C706.118 -5.78291 704.14 -6.55576 702.114 -7.21357C698.401 -8.41457 694.634 -9.43551 690.833 -10.3014C687.15 -11.1424 682.824 -11.2077 679.288 -12.4388C680.876 -12.2155 682.464 -11.9922 684.052 -11.769C682.632 -11.9324 681.206 -12.0808 679.78 -12.2043C677.636 -12.3969 675.483 -12.5396 673.334 -12.6473C665.399 -13.0436 657.436 -12.8848 649.516 -12.276C646.243 -12.0224 641.928 -10.6626 638.707 -11.164C640.28 -11.3808 641.848 -11.5976 643.421 -11.8094C641.991 -11.5978 640.56 -11.3712 639.135 -11.1345C636.289 -10.6564 633.453 -10.1282 630.627 -9.55012C623.245 -8.03687 615.922 -6.19379 608.712 -3.99074C605.454 -2.9971 602.215 -1.92848 599.002 -0.784865C597.075 -0.0976874 595.154 0.614448 593.247 1.3616C590.594 2.39962 586.207 5.58968 593.788 1.00609C587.45 4.83825 580.29 7.40131 573.889 11.2486C570.425 13.3325 567.036 15.5413 563.744 17.8951C562.664 18.6663 561.608 19.5826 560.498 20.2839C569.031 14.9041 561.583 19.4675 559.564 21.2399C557.05 23.4528 554.624 25.7655 552.287 28.1683C549.797 30.7312 547.221 35.3593 544.313 37.2577C548.302 34.6531 547.96 32.1333 545.962 35.1407C544.828 36.8471 543.646 38.5034 542.556 40.2348C540.392 43.6673 538.41 47.2197 536.619 50.8719C535.771 52.6079 535.134 54.7338 534.103 56.355C538.775 48.9994 535.707 52.468 534.619 55.5694C533.521 58.7108 532.556 61.897 531.714 65.1181C530.701 68.9995 530.007 72.9155 529.23 76.8466C528.115 82.5032 529.595 74.171 529.585 73.631C529.637 76.246 529.016 79.032 528.851 81.6573C528.378 89.1132 528.465 96.6036 529.038 104.048C529.168 105.758 529.327 107.468 529.511 109.173C529.849 112.348 531.681 115.391 529.194 107.188C530.566 111.717 530.807 116.882 531.845 121.531C533.372 128.38 535.247 135.143 537.427 141.801C538.744 145.815 540.17 149.794 541.698 153.732C542.013 154.547 544.42 161.18 542.363 155.487C540.282 149.724 543.566 158.066 544.039 159.095C550.972 174.153 559.508 188.33 568.961 201.88C571.138 204.998 573.358 208.081 575.618 211.134C576.071 211.743 576.524 212.353 576.982 212.962C579.197 215.905 578.808 215.39 575.81 211.423C576.485 212.983 578.257 214.566 579.32 215.91C584.75 222.764 590.357 229.468 596.082 236.068C607.58 249.316 619.55 262.118 631.579 274.866C680.615 326.84 729.343 379.77 754.584 448.391C775.742 505.911 771.949 570.254 744.189 624.683C721.702 668.765 683.164 703.725 640.976 727.753C595.826 753.469 546.081 767.979 495.006 774.736C472.822 777.67 450.397 778.785 428.042 777.615C402.644 776.283 376.398 772.971 352.266 764.532C321.194 753.671 289.577 734.744 274.854 703.439C255.779 662.892 265.305 617.089 293.713 583.856C316.273 557.459 351.377 542.39 385.43 541.458C421.129 540.483 456.007 556.816 481.573 581.514C508.345 607.376 522.979 642.222 527.213 679.065C531.1 712.863 522.78 746.709 508.695 777.161C478.827 841.748 418.464 883.142 353.793 905.699C318.533 917.999 281.528 924.695 244.539 928.736C208.567 932.665 172.193 932.8 136.189 929.18C98.719 925.421 61.6686 918.446 25.6313 907.325C8.66999 902.088 -3.8379 882.981 1.8891 864.909C7.40544 847.506 25.4044 835.151 43.5902 840.766Z" fill="#D3ECF2" stroke="#D3ECF2" stroke-width="30" mask="url(#path-1-inside-1_175_20)"/>
</svg>
