<svg width="42" height="42" viewBox="0 0 42 42" fill="none" xmlns="http://www.w3.org/2000/svg">
<path fill-rule="evenodd" clip-rule="evenodd" d="M21 41C32.0457 41 41 32.0457 41 21C41 9.95431 32.0457 1 21 1C9.95431 1 1 9.95431 1 21C1 32.0457 9.95431 41 21 41Z" stroke="#D3ECF2" stroke-width="1.84714"/>
<path d="M16.4103 16.9629C17.3467 16.9629 18.1058 16.2038 18.1058 15.2674C18.1058 14.3311 17.3467 13.572 16.4103 13.572C15.4739 13.572 14.7148 14.3311 14.7148 15.2674C14.7148 16.2038 15.4739 16.9629 16.4103 16.9629Z" fill="#121212"/>
<path d="M17.8232 18.0958H14.9974C14.8414 18.0958 14.7148 18.2224 14.7148 18.3784V26.8558C14.7148 27.0118 14.8414 27.1384 14.9974 27.1384H17.8232C17.9792 27.1384 18.1058 27.0118 18.1058 26.8558V18.3784C18.1058 18.2224 17.9792 18.0958 17.8232 18.0958Z" fill="#121212"/>
<path d="M26.2436 17.6262C25.0359 17.2125 23.5252 17.5759 22.6192 18.2275C22.5882 18.106 22.4774 18.0156 22.3457 18.0156H19.5199C19.3639 18.0156 19.2373 18.1422 19.2373 18.2982V26.7756C19.2373 26.9316 19.3639 27.0582 19.5199 27.0582H22.3457C22.5017 27.0582 22.6283 26.9316 22.6283 26.7756V20.6831C23.0849 20.2898 23.6733 20.1643 24.1548 20.3689C24.6216 20.5661 24.8889 21.0477 24.8889 21.6891V26.7756C24.8889 26.9316 25.0155 27.0582 25.1715 27.0582H27.9973C28.1533 27.0582 28.2799 26.9316 28.2799 26.7756V21.12C28.2477 18.7978 27.1552 17.9381 26.2436 17.6262Z" fill="#121212"/>
</svg>
