<svg width="375" height="721" viewBox="0 0 375 721" fill="none" xmlns="http://www.w3.org/2000/svg">
<mask id="path-1-inside-1_1_1861" fill="white">
<path d="M-419.561 391.307C-411.53 406.562 -402.746 421.392 -393.147 435.7C-388.557 442.542 -383.753 449.223 -378.868 455.853C-377.584 457.598 -376.521 460.643 -379.919 454.472C-378.892 456.337 -377.096 458.112 -375.776 459.781C-372.987 463.301 -370.149 466.784 -367.266 470.221C-345.628 496.021 -321.304 519.561 -294.769 540.301C-293.284 541.463 -286.943 545.532 -294.387 540.644C-293.154 541.455 -291.978 542.447 -290.784 543.324C-287.169 545.991 -283.517 548.602 -279.829 551.164C-272.998 555.908 -266.042 560.474 -258.952 564.836C-245.453 573.147 -231.467 580.705 -216.948 587.136C-215.017 587.994 -213.063 588.796 -211.125 589.64C-208.43 590.814 -208.879 592.091 -212.879 588.974C-210.026 591.2 -204.431 592.153 -200.989 593.317C-193.664 595.794 -186.229 597.947 -178.696 599.725C-171.56 601.407 -164.306 602.228 -157.146 603.678C-166.942 601.693 -157.249 603.562 -154.512 603.743C-150.311 604.026 -146.096 604.165 -141.879 604.16C-135.519 604.153 -129.161 603.825 -122.821 603.178C-121.335 603.025 -119.778 602.678 -118.293 602.662C-127.027 602.765 -121.678 603.129 -119.165 602.705C-115.57 602.106 -111.993 601.395 -108.438 600.577C-101.95 599.084 -95.5367 597.232 -89.2475 594.999C-87.5418 594.393 -85.8551 593.729 -84.159 593.1C-81.7949 592.218 -80.5782 590.451 -86.8222 594.211C-83.5411 592.237 -79.6624 590.959 -76.2524 589.173C-70.6947 586.261 -65.3201 583.002 -60.1838 579.393C-57.9834 577.846 -54.2005 573.753 -61.2792 580.372C-59.9859 579.163 -58.4787 578.128 -57.1272 576.977C-54.4043 574.655 -51.7752 572.22 -49.256 569.681C-47.1484 567.554 -45.1152 565.353 -43.1631 563.084C-41.999 561.726 -40.9541 560.196 -39.7285 558.899C-46.2914 565.863 -42.2081 562.129 -40.6642 559.886C-36.8027 554.291 -33.4148 548.373 -30.547 542.219L-29.7616 540.495C-28.4122 537.379 -28.7326 538.179 -30.726 542.889C-30.4669 541.272 -29.4191 539.415 -28.8993 537.841C-27.9571 535.009 -27.1288 532.137 -26.4243 529.239C-26.0042 527.499 -25.6231 525.746 -25.2845 523.991C-25.1065 523.056 -24.3426 517.135 -24.9764 522.738C-25.6172 528.386 -24.9829 522.363 -24.903 521.455C-24.6894 519.08 -24.5508 516.703 -24.4906 514.32C-24.4153 511.346 -24.464 508.373 -24.6335 505.412C-24.7356 503.676 -25.1076 501.829 -25.0694 500.096C-25.2528 507.894 -24.4969 504.725 -24.9527 502.017C-26.0903 495.229 -28.542 489.056 -30.2624 482.482C-28.0467 490.981 -28.8163 486.128 -29.9889 483.658C-30.7418 482.075 -31.5341 480.513 -32.3755 478.973C-33.7822 476.401 -35.4023 473.984 -36.9534 471.504C-40.4287 465.928 -31.717 477.583 -36.0299 472.612C-36.7858 471.738 -37.5056 470.833 -38.2713 469.962C-40.9274 466.957 -43.8707 464.33 -46.8331 461.644C-48.6364 460.005 -51.2969 459.334 -44.1155 463.598C-45.57 462.736 -46.9111 461.599 -48.3323 460.678C-50.7272 459.126 -53.1948 457.693 -55.7321 456.38C-57.2557 455.594 -58.8259 454.907 -60.3629 454.153C-66.1244 451.342 -53.0162 456.686 -59.1076 454.651C-62.3616 453.564 -65.6227 452.542 -68.9741 451.772C-70.6449 451.385 -72.3398 451.133 -74.014 450.769C-78.861 449.722 -71.5068 451.044 -71.0269 451.03C-74.4024 451.132 -77.8529 450.5 -81.2573 450.546C-84.0741 450.587 -86.9707 451.148 -89.764 451.114C-81.397 451.21 -85.4898 450.502 -88.4097 451.119C-90.0838 451.473 -91.7421 451.882 -93.3911 452.347C-95.0433 452.816 -96.651 453.408 -98.2906 453.922C-104.375 455.832 -91.3851 450.27 -96.9903 453.391C-100.214 455.185 -103.386 456.953 -106.571 458.819C-112.992 462.58 -101.432 453.711 -106.736 458.931C-108.309 460.479 -109.98 461.89 -111.495 463.503C-112.368 464.434 -113.434 466.115 -114.393 466.802C-111.431 462.83 -110.979 462.32 -113.035 465.276C-113.833 466.507 -114.585 467.763 -115.288 469.049C-115.961 470.279 -116.527 471.55 -117.155 472.799C-119.022 476.497 -114.473 464.727 -116.113 470.469C-116.837 473.005 -118.973 477.244 -118.504 479.88C-118.507 479.851 -117.754 471.509 -118.031 476.586C-118.12 478.202 -118.281 479.806 -118.322 481.425C-118.406 484.713 -118.079 487.924 -117.925 491.193C-118.428 480.542 -117.623 491.673 -116.947 494.562C-116.308 497.301 -115.552 500.013 -114.705 502.692C-114.19 504.319 -113.591 505.913 -113.057 507.527C-111.468 512.33 -114.069 505.026 -114.243 504.695C-112.384 508.219 -111.038 512.068 -109.222 515.635C-104.132 525.646 -97.9677 534.957 -91.3542 543.995C-88.0747 548.473 -96.7912 536.984 -93.3543 541.369C-92.6863 542.221 -92.0183 543.08 -91.347 543.929C-89.8494 545.815 -88.3321 547.682 -86.7852 549.532C-83.5009 553.461 -80.1115 557.305 -76.6331 561.06C-69.6279 568.625 -62.2443 575.844 -54.5574 582.714C-50.7139 586.15 -46.7946 589.496 -42.8027 592.757C-40.972 594.252 -39.1281 595.727 -37.2709 597.182C-36.1495 598.06 -35.0181 598.915 -33.8999 599.796C-42.615 592.938 -38.0203 596.67 -36.0878 598.102C-18.7413 610.937 -0.235632 622.245 19.2002 631.703C23.9446 634.011 28.7455 636.211 33.5997 638.292C35.8008 639.236 38.022 640.12 40.2298 641.044C29.1647 636.419 40.5721 641.09 43.3048 642.071C53.0776 645.58 63.0408 648.589 73.1594 651.009C78.1454 652.202 83.1719 653.251 88.2324 654.143C90.5134 654.547 92.8011 654.918 95.0925 655.253C96.4647 655.453 97.8371 655.634 99.2126 655.824C104.673 656.575 91.4752 655.015 96.6339 655.504C107.078 656.492 117.534 656.983 128.054 656.525C133.016 656.311 137.955 655.849 142.897 655.306C145.086 655.065 148.51 654.242 138.829 655.881C140.159 655.657 141.499 655.482 142.833 655.261C145.496 654.817 148.148 654.313 150.79 653.748C155.635 652.713 160.437 651.469 165.179 650.021C167.342 649.359 169.49 648.654 171.627 647.908C174.557 646.88 185.172 641.978 174.124 647.138C183.441 642.783 192.479 638.294 201.077 632.569C203.067 631.246 205.027 629.874 206.959 628.466C209.044 626.943 213.19 623.16 204.756 630.209C205.878 629.269 207.057 628.387 208.188 627.457C213.103 623.415 217.808 619.118 222.245 614.552C224.837 611.889 227.338 609.135 229.743 606.297C230.831 605.015 231.867 603.687 232.946 602.395C235.935 598.818 227.976 609.351 231.989 603.63C236.626 597.007 241.039 590.329 244.927 583.239C246.546 580.287 248.09 577.294 249.566 574.265C250.978 571.364 252.33 565.38 254.585 563.183C254.161 563.595 251.76 570.447 253.703 565.205C254.411 563.293 255.163 561.396 255.858 559.478C257.257 555.627 258.551 551.745 259.767 547.838C264.47 532.724 267.864 517.238 270.329 501.645C270.544 500.286 270.735 498.923 270.953 497.567C272.097 490.354 270.11 504.731 270.967 497.488C271.411 493.751 271.869 490.013 272.251 486.267C273.062 478.306 273.659 470.328 274.144 462.344C276.071 430.428 276.038 398.461 277.963 366.542C279.948 333.611 283.489 299.792 293.473 268.069C303.584 235.927 319.386 205.847 341.797 180.401C362.643 156.741 391.435 137.939 422.395 131.532C457.36 124.297 491.347 130.559 523.537 144.059C584.016 169.423 638.657 222.991 643.488 291.386C647.582 349.37 610.214 403.812 563.39 435.244C512.225 469.587 446.268 472.127 388.507 459.391C357.967 452.658 328.399 441.214 300.42 427.579C268.074 411.815 237.708 391.768 210.801 367.944C162.98 325.594 126.278 266.542 116.956 202.282C112.084 168.69 113.591 135.261 122.233 102.098C130.514 70.3315 144.573 39.7737 160.718 11.1555C195.019 -49.6526 238.096 -106.511 284.883 -158.325C332.641 -211.214 386.104 -258.517 443.599 -300.524C470.7 -320.319 498.802 -338.691 527.75 -355.625C542.238 -364.102 563.427 -359.198 571.077 -344.035C578.848 -328.631 574.247 -309.583 558.716 -300.496C528.44 -282.784 499.085 -263.497 470.837 -242.656C467.424 -240.136 464.039 -237.58 460.642 -235.037C454.187 -230.205 466.492 -239.605 460.13 -234.654C458.911 -233.706 457.692 -232.765 456.476 -231.815C449.177 -226.12 441.955 -220.322 434.817 -214.427C421.134 -203.124 407.751 -191.456 394.688 -179.441C369.128 -155.932 344.796 -131.089 321.821 -105.047C310.593 -92.3174 299.688 -79.2968 289.126 -66.0116C286.275 -62.4225 283.12 -58.8861 280.564 -55.081C284.926 -61.5718 282.693 -57.8772 281.581 -56.4085C280.187 -54.562 278.784 -52.7187 277.393 -50.8689C271.838 -43.4635 266.39 -35.9774 261.049 -28.4238C242.151 -1.68397 224.146 25.9226 208.88 54.8789C205.335 61.6007 201.955 68.4091 198.78 75.3105C197.343 78.4367 195.977 81.5949 194.598 84.7467C191.656 91.4665 197.25 77.8436 194.637 84.6876C193.662 87.2484 192.647 89.79 191.704 92.3636C186.537 106.433 182.411 120.885 179.764 135.598C179.404 137.602 179.099 139.615 178.764 141.625C177.63 148.472 179.339 136.069 178.924 140.605C178.58 144.339 178.143 148.057 177.914 151.799C177.427 159.61 177.41 167.442 177.843 175.239C178.026 178.484 178.331 181.713 178.612 184.944C179.216 191.91 177.485 177.706 178.586 184.602C178.843 186.202 179.057 187.812 179.32 189.412C180.524 196.781 182.114 204.081 184.058 211.273C185.922 218.175 188.11 224.98 190.6 231.671C190.826 232.279 191.059 232.887 191.285 233.496C192.511 236.651 192.214 235.925 190.394 231.314C191.258 232.52 191.692 234.429 192.293 235.807C193.975 239.689 195.756 243.524 197.635 247.313C203.996 260.135 211.462 272.395 219.881 283.949C220.265 284.471 220.649 284.993 221.036 285.518C223.116 288.297 222.584 287.6 219.439 283.421C220.934 284.455 222.304 287.057 223.46 288.47C225.833 291.383 228.269 294.247 230.763 297.057C236.735 303.799 243.025 310.254 249.592 316.42C255.616 322.075 261.867 327.482 268.312 332.65C269.777 333.825 271.275 334.967 272.743 336.139C276.567 339.179 266.153 331.374 272.299 335.781C276.278 338.634 280.237 341.507 284.302 344.248C298.376 353.751 313.114 362.265 328.317 369.875C335.504 373.473 342.797 376.875 350.178 380.066C353.045 381.307 355.956 382.453 358.83 383.687C350.11 379.94 356.326 382.678 358.219 383.399C360.571 384.295 362.929 385.172 365.297 386.019C378.34 390.691 391.666 394.626 405.22 397.617C411.962 399.104 418.759 400.355 425.604 401.339C427.598 401.628 434.284 402.137 424.98 401.335C426.226 401.441 427.468 401.61 428.71 401.733C433.051 402.161 437.408 402.481 441.766 402.671C448.275 402.956 454.802 402.97 461.322 402.674C464.724 402.52 468.127 402.287 471.524 401.964C473.275 401.798 475.322 401.271 477.068 401.356C469.617 400.979 473.261 401.909 476.343 401.408C483.092 400.308 489.785 398.835 496.381 396.982C499.702 396.048 502.994 395.014 506.255 393.888C507.581 393.43 508.903 392.954 510.217 392.456C518.144 389.452 505.068 394.901 510.112 392.51C515.578 389.916 520.964 387.247 526.158 384.11C528.521 382.686 530.845 381.197 533.123 379.649C534.496 378.717 535.829 377.739 537.192 376.79C542.289 373.246 531.137 381.7 535.638 378.021C540.352 374.168 544.933 370.201 549.234 365.887C551.571 363.55 553.832 361.134 556.011 358.651C558.098 356.273 564.535 346.924 558.037 356.554C561.4 351.573 564.921 346.81 567.915 341.584C569.257 339.245 570.528 336.868 571.724 334.455C572.442 333.013 573.13 331.561 573.793 330.096C576.902 323.222 572.734 333.232 573.399 331.125C575.078 325.803 577.052 320.646 578.321 315.197C578.989 312.335 579.996 301.455 579.181 312.422C579.418 309.274 579.853 306.166 579.976 303.003C580.09 300.107 580.076 297.209 579.939 294.318C579.875 292.997 579.757 291.68 579.677 290.362C579.317 284.259 580.979 298.131 579.887 292.1C579.383 289.323 578.918 286.56 578.26 283.821C577.794 281.88 577.266 279.95 576.692 278.039C576.172 276.307 573.846 272.235 574.115 270.529C574.015 271.167 577.284 277.557 574.88 272.67C574.008 270.896 573.217 269.085 572.319 267.318C570.671 264.082 568.868 260.929 566.94 257.855C565.073 254.876 562.273 251.983 560.76 248.843C561.657 250.037 562.554 251.23 563.45 252.423C562.624 251.379 561.785 250.342 560.929 249.322C559.647 247.783 558.326 246.271 556.984 244.784C552.03 239.296 546.69 234.155 541.084 229.338C538.765 227.348 535.032 225.401 533.246 222.949C534.422 223.843 535.596 224.733 536.77 225.63C535.69 224.827 534.6 224.034 533.507 223.25C531.321 221.69 529.109 220.169 526.87 218.688C521.02 214.82 514.992 211.208 508.801 207.908C506.004 206.415 503.171 204.985 500.304 203.62C498.585 202.803 496.853 202.006 495.107 201.241C492.678 200.176 487.692 199.385 495.697 201.363C489.004 199.709 482.609 196.679 475.865 194.992C472.214 194.081 468.53 193.302 464.815 192.682C463.596 192.477 462.298 192.384 461.106 192.114C470.261 194.197 462.358 192.292 459.862 192.128C456.751 191.928 453.631 191.851 450.511 191.891C447.185 191.937 442.441 193.285 439.278 192.618C443.617 193.532 445.053 191.649 441.757 192.312C439.887 192.687 438.018 192.998 436.16 193.419C432.475 194.251 428.83 195.282 425.246 196.505C423.543 197.088 421.723 198.067 419.977 198.454C427.897 196.694 423.593 196.954 420.834 198.277C418.041 199.62 415.306 201.08 412.629 202.645C409.405 204.53 406.367 206.649 403.264 208.723C398.803 211.709 405.269 207.204 405.618 206.842C403.928 208.596 401.683 210.019 399.845 211.638C394.618 216.231 389.737 221.215 385.206 226.49C384.164 227.7 383.142 228.93 382.138 230.172C380.267 232.483 379.465 235.692 383.239 228.658C381.155 232.541 377.908 236.098 375.525 239.839C372.014 245.35 368.788 251.034 365.832 256.85C364.051 260.358 362.365 263.914 360.773 267.512C360.444 268.255 357.653 274.204 360.054 269.104C362.486 263.942 359.145 271.592 358.777 272.581C353.407 287.054 349.672 302.002 346.953 317.143C346.328 320.628 345.755 324.118 345.228 327.615C345.124 328.314 345.02 329.014 344.919 329.716C344.435 333.111 344.519 332.517 345.163 327.932C344.579 329.403 344.7 331.611 344.513 333.196C343.563 341.282 342.829 349.385 342.241 357.497C341.066 373.786 340.494 390.093 339.997 406.403C337.965 472.894 335.1 539.81 306.453 601.577C282.441 653.352 237.53 693.177 183.401 710.693C139.559 724.877 91.1808 722.486 47.61 710.5C0.978982 697.673 -41.2846 674.448 -79.3112 645.246C-95.827 632.563 -111.303 618.523 -125.225 603.027C-141.041 585.419 -156.11 565.952 -166.409 544.503C-179.672 516.89 -187.977 483.612 -177.017 453.32C-162.825 414.083 -126.368 390.23 -85.786 387.083C-53.5553 384.581 -20.5467 397.794 2.45118 419.613C26.5591 442.489 38.7175 476.209 39.2401 509.297C39.7881 543.945 26.4353 576.507 4.93007 603.531C-14.7963 628.323 -42.5781 645.106 -71.9121 655.859C-134.123 678.668 -201.089 666.132 -258.468 638.368C-289.753 623.231 -318.492 603.258 -345.469 581.549C-371.704 560.438 -395.702 536.565 -416.981 510.465C-439.132 483.309 -458.888 454.314 -475.244 423.259C-482.94 408.641 -478.565 387.832 -462.887 379.717C-447.789 371.904 -427.813 375.633 -419.561 391.307Z"/>
</mask>
<path d="M-419.561 391.307C-411.53 406.562 -402.746 421.392 -393.147 435.7C-388.557 442.542 -383.753 449.223 -378.868 455.853C-377.584 457.598 -376.521 460.643 -379.919 454.472C-378.892 456.337 -377.096 458.112 -375.776 459.781C-372.987 463.301 -370.149 466.784 -367.266 470.221C-345.628 496.021 -321.304 519.561 -294.769 540.301C-293.284 541.463 -286.943 545.532 -294.387 540.644C-293.154 541.455 -291.978 542.447 -290.784 543.324C-287.169 545.991 -283.517 548.602 -279.829 551.164C-272.998 555.908 -266.042 560.474 -258.952 564.836C-245.453 573.147 -231.467 580.705 -216.948 587.136C-215.017 587.994 -213.063 588.796 -211.125 589.64C-208.43 590.814 -208.879 592.091 -212.879 588.974C-210.026 591.2 -204.431 592.153 -200.989 593.317C-193.664 595.794 -186.229 597.947 -178.696 599.725C-171.56 601.407 -164.306 602.228 -157.146 603.678C-166.942 601.693 -157.249 603.562 -154.512 603.743C-150.311 604.026 -146.096 604.165 -141.879 604.16C-135.519 604.153 -129.161 603.825 -122.821 603.178C-121.335 603.025 -119.778 602.678 -118.293 602.662C-127.027 602.765 -121.678 603.129 -119.165 602.705C-115.57 602.106 -111.993 601.395 -108.438 600.577C-101.95 599.084 -95.5367 597.232 -89.2475 594.999C-87.5418 594.393 -85.8551 593.729 -84.159 593.1C-81.7949 592.218 -80.5782 590.451 -86.8222 594.211C-83.5411 592.237 -79.6624 590.959 -76.2524 589.173C-70.6947 586.261 -65.3201 583.002 -60.1838 579.393C-57.9834 577.846 -54.2005 573.753 -61.2792 580.372C-59.9859 579.163 -58.4787 578.128 -57.1272 576.977C-54.4043 574.655 -51.7752 572.22 -49.256 569.681C-47.1484 567.554 -45.1152 565.353 -43.1631 563.084C-41.999 561.726 -40.9541 560.196 -39.7285 558.899C-46.2914 565.863 -42.2081 562.129 -40.6642 559.886C-36.8027 554.291 -33.4148 548.373 -30.547 542.219L-29.7616 540.495C-28.4122 537.379 -28.7326 538.179 -30.726 542.889C-30.4669 541.272 -29.4191 539.415 -28.8993 537.841C-27.9571 535.009 -27.1288 532.137 -26.4243 529.239C-26.0042 527.499 -25.6231 525.746 -25.2845 523.991C-25.1065 523.056 -24.3426 517.135 -24.9764 522.738C-25.6172 528.386 -24.9829 522.363 -24.903 521.455C-24.6894 519.08 -24.5508 516.703 -24.4906 514.32C-24.4153 511.346 -24.464 508.373 -24.6335 505.412C-24.7356 503.676 -25.1076 501.829 -25.0694 500.096C-25.2528 507.894 -24.4969 504.725 -24.9527 502.017C-26.0903 495.229 -28.542 489.056 -30.2624 482.482C-28.0467 490.981 -28.8163 486.128 -29.9889 483.658C-30.7418 482.075 -31.5341 480.513 -32.3755 478.973C-33.7822 476.401 -35.4023 473.984 -36.9534 471.504C-40.4287 465.928 -31.717 477.583 -36.0299 472.612C-36.7858 471.738 -37.5056 470.833 -38.2713 469.962C-40.9274 466.957 -43.8707 464.33 -46.8331 461.644C-48.6364 460.005 -51.2969 459.334 -44.1155 463.598C-45.57 462.736 -46.9111 461.599 -48.3323 460.678C-50.7272 459.126 -53.1948 457.693 -55.7321 456.38C-57.2557 455.594 -58.8259 454.907 -60.3629 454.153C-66.1244 451.342 -53.0162 456.686 -59.1076 454.651C-62.3616 453.564 -65.6227 452.542 -68.9741 451.772C-70.6449 451.385 -72.3398 451.133 -74.014 450.769C-78.861 449.722 -71.5068 451.044 -71.0269 451.03C-74.4024 451.132 -77.8529 450.5 -81.2573 450.546C-84.0741 450.587 -86.9707 451.148 -89.764 451.114C-81.397 451.21 -85.4898 450.502 -88.4097 451.119C-90.0838 451.473 -91.7421 451.882 -93.3911 452.347C-95.0433 452.816 -96.651 453.408 -98.2906 453.922C-104.375 455.832 -91.3851 450.27 -96.9903 453.391C-100.214 455.185 -103.386 456.953 -106.571 458.819C-112.992 462.58 -101.432 453.711 -106.736 458.931C-108.309 460.479 -109.98 461.89 -111.495 463.503C-112.368 464.434 -113.434 466.115 -114.393 466.802C-111.431 462.83 -110.979 462.32 -113.035 465.276C-113.833 466.507 -114.585 467.763 -115.288 469.049C-115.961 470.279 -116.527 471.55 -117.155 472.799C-119.022 476.497 -114.473 464.727 -116.113 470.469C-116.837 473.005 -118.973 477.244 -118.504 479.88C-118.507 479.851 -117.754 471.509 -118.031 476.586C-118.12 478.202 -118.281 479.806 -118.322 481.425C-118.406 484.713 -118.079 487.924 -117.925 491.193C-118.428 480.542 -117.623 491.673 -116.947 494.562C-116.308 497.301 -115.552 500.013 -114.705 502.692C-114.19 504.319 -113.591 505.913 -113.057 507.527C-111.468 512.33 -114.069 505.026 -114.243 504.695C-112.384 508.219 -111.038 512.068 -109.222 515.635C-104.132 525.646 -97.9677 534.957 -91.3542 543.995C-88.0747 548.473 -96.7912 536.984 -93.3543 541.369C-92.6863 542.221 -92.0183 543.08 -91.347 543.929C-89.8494 545.815 -88.3321 547.682 -86.7852 549.532C-83.5009 553.461 -80.1115 557.305 -76.6331 561.06C-69.6279 568.625 -62.2443 575.844 -54.5574 582.714C-50.7139 586.15 -46.7946 589.496 -42.8027 592.757C-40.972 594.252 -39.1281 595.727 -37.2709 597.182C-36.1495 598.06 -35.0181 598.915 -33.8999 599.796C-42.615 592.938 -38.0203 596.67 -36.0878 598.102C-18.7413 610.937 -0.235632 622.245 19.2002 631.703C23.9446 634.011 28.7455 636.211 33.5997 638.292C35.8008 639.236 38.022 640.12 40.2298 641.044C29.1647 636.419 40.5721 641.09 43.3048 642.071C53.0776 645.58 63.0408 648.589 73.1594 651.009C78.1454 652.202 83.1719 653.251 88.2324 654.143C90.5134 654.547 92.8011 654.918 95.0925 655.253C96.4647 655.453 97.8371 655.634 99.2126 655.824C104.673 656.575 91.4752 655.015 96.6339 655.504C107.078 656.492 117.534 656.983 128.054 656.525C133.016 656.311 137.955 655.849 142.897 655.306C145.086 655.065 148.51 654.242 138.829 655.881C140.159 655.657 141.499 655.482 142.833 655.261C145.496 654.817 148.148 654.313 150.79 653.748C155.635 652.713 160.437 651.469 165.179 650.021C167.342 649.359 169.49 648.654 171.627 647.908C174.557 646.88 185.172 641.978 174.124 647.138C183.441 642.783 192.479 638.294 201.077 632.569C203.067 631.246 205.027 629.874 206.959 628.466C209.044 626.943 213.19 623.16 204.756 630.209C205.878 629.269 207.057 628.387 208.188 627.457C213.103 623.415 217.808 619.118 222.245 614.552C224.837 611.889 227.338 609.135 229.743 606.297C230.831 605.015 231.867 603.687 232.946 602.395C235.935 598.818 227.976 609.351 231.989 603.63C236.626 597.007 241.039 590.329 244.927 583.239C246.546 580.287 248.09 577.294 249.566 574.265C250.978 571.364 252.33 565.38 254.585 563.183C254.161 563.595 251.76 570.447 253.703 565.205C254.411 563.293 255.163 561.396 255.858 559.478C257.257 555.627 258.551 551.745 259.767 547.838C264.47 532.724 267.864 517.238 270.329 501.645C270.544 500.286 270.735 498.923 270.953 497.567C272.097 490.354 270.11 504.731 270.967 497.488C271.411 493.751 271.869 490.013 272.251 486.267C273.062 478.306 273.659 470.328 274.144 462.344C276.071 430.428 276.038 398.461 277.963 366.542C279.948 333.611 283.489 299.792 293.473 268.069C303.584 235.927 319.386 205.847 341.797 180.401C362.643 156.741 391.435 137.939 422.395 131.532C457.36 124.297 491.347 130.559 523.537 144.059C584.016 169.423 638.657 222.991 643.488 291.386C647.582 349.37 610.214 403.812 563.39 435.244C512.225 469.587 446.268 472.127 388.507 459.391C357.967 452.658 328.399 441.214 300.42 427.579C268.074 411.815 237.708 391.768 210.801 367.944C162.98 325.594 126.278 266.542 116.956 202.282C112.084 168.69 113.591 135.261 122.233 102.098C130.514 70.3315 144.573 39.7737 160.718 11.1555C195.019 -49.6526 238.096 -106.511 284.883 -158.325C332.641 -211.214 386.104 -258.517 443.599 -300.524C470.7 -320.319 498.802 -338.691 527.75 -355.625C542.238 -364.102 563.427 -359.198 571.077 -344.035C578.848 -328.631 574.247 -309.583 558.716 -300.496C528.44 -282.784 499.085 -263.497 470.837 -242.656C467.424 -240.136 464.039 -237.58 460.642 -235.037C454.187 -230.205 466.492 -239.605 460.13 -234.654C458.911 -233.706 457.692 -232.765 456.476 -231.815C449.177 -226.12 441.955 -220.322 434.817 -214.427C421.134 -203.124 407.751 -191.456 394.688 -179.441C369.128 -155.932 344.796 -131.089 321.821 -105.047C310.593 -92.3174 299.688 -79.2968 289.126 -66.0116C286.275 -62.4225 283.12 -58.8861 280.564 -55.081C284.926 -61.5718 282.693 -57.8772 281.581 -56.4085C280.187 -54.562 278.784 -52.7187 277.393 -50.8689C271.838 -43.4635 266.39 -35.9774 261.049 -28.4238C242.151 -1.68397 224.146 25.9226 208.88 54.8789C205.335 61.6007 201.955 68.4091 198.78 75.3105C197.343 78.4367 195.977 81.5949 194.598 84.7467C191.656 91.4665 197.25 77.8436 194.637 84.6876C193.662 87.2484 192.647 89.79 191.704 92.3636C186.537 106.433 182.411 120.885 179.764 135.598C179.404 137.602 179.099 139.615 178.764 141.625C177.63 148.472 179.339 136.069 178.924 140.605C178.58 144.339 178.143 148.057 177.914 151.799C177.427 159.61 177.41 167.442 177.843 175.239C178.026 178.484 178.331 181.713 178.612 184.944C179.216 191.91 177.485 177.706 178.586 184.602C178.843 186.202 179.057 187.812 179.32 189.412C180.524 196.781 182.114 204.081 184.058 211.273C185.922 218.175 188.11 224.98 190.6 231.671C190.826 232.279 191.059 232.887 191.285 233.496C192.511 236.651 192.214 235.925 190.394 231.314C191.258 232.52 191.692 234.429 192.293 235.807C193.975 239.689 195.756 243.524 197.635 247.313C203.996 260.135 211.462 272.395 219.881 283.949C220.265 284.471 220.649 284.993 221.036 285.518C223.116 288.297 222.584 287.6 219.439 283.421C220.934 284.455 222.304 287.057 223.46 288.47C225.833 291.383 228.269 294.247 230.763 297.057C236.735 303.799 243.025 310.254 249.592 316.42C255.616 322.075 261.867 327.482 268.312 332.65C269.777 333.825 271.275 334.967 272.743 336.139C276.567 339.179 266.153 331.374 272.299 335.781C276.278 338.634 280.237 341.507 284.302 344.248C298.376 353.751 313.114 362.265 328.317 369.875C335.504 373.473 342.797 376.875 350.178 380.066C353.045 381.307 355.956 382.453 358.83 383.687C350.11 379.94 356.326 382.678 358.219 383.399C360.571 384.295 362.929 385.172 365.297 386.019C378.34 390.691 391.666 394.626 405.22 397.617C411.962 399.104 418.759 400.355 425.604 401.339C427.598 401.628 434.284 402.137 424.98 401.335C426.226 401.441 427.468 401.61 428.71 401.733C433.051 402.161 437.408 402.481 441.766 402.671C448.275 402.956 454.802 402.97 461.322 402.674C464.724 402.52 468.127 402.287 471.524 401.964C473.275 401.798 475.322 401.271 477.068 401.356C469.617 400.979 473.261 401.909 476.343 401.408C483.092 400.308 489.785 398.835 496.381 396.982C499.702 396.048 502.994 395.014 506.255 393.888C507.581 393.43 508.903 392.954 510.217 392.456C518.144 389.452 505.068 394.901 510.112 392.51C515.578 389.916 520.964 387.247 526.158 384.11C528.521 382.686 530.845 381.197 533.123 379.649C534.496 378.717 535.829 377.739 537.192 376.79C542.289 373.246 531.137 381.7 535.638 378.021C540.352 374.168 544.933 370.201 549.234 365.887C551.571 363.55 553.832 361.134 556.011 358.651C558.098 356.273 564.535 346.924 558.037 356.554C561.4 351.573 564.921 346.81 567.915 341.584C569.257 339.245 570.528 336.868 571.724 334.455C572.442 333.013 573.13 331.561 573.793 330.096C576.902 323.222 572.734 333.232 573.399 331.125C575.078 325.803 577.052 320.646 578.321 315.197C578.989 312.335 579.996 301.455 579.181 312.422C579.418 309.274 579.853 306.166 579.976 303.003C580.09 300.107 580.076 297.209 579.939 294.318C579.875 292.997 579.757 291.68 579.677 290.362C579.317 284.259 580.979 298.131 579.887 292.1C579.383 289.323 578.918 286.56 578.26 283.821C577.794 281.88 577.266 279.95 576.692 278.039C576.172 276.307 573.846 272.235 574.115 270.529C574.015 271.167 577.284 277.557 574.88 272.67C574.008 270.896 573.217 269.085 572.319 267.318C570.671 264.082 568.868 260.929 566.94 257.855C565.073 254.876 562.273 251.983 560.76 248.843C561.657 250.037 562.554 251.23 563.45 252.423C562.624 251.379 561.785 250.342 560.929 249.322C559.647 247.783 558.326 246.271 556.984 244.784C552.03 239.296 546.69 234.155 541.084 229.338C538.765 227.348 535.032 225.401 533.246 222.949C534.422 223.843 535.596 224.733 536.77 225.63C535.69 224.827 534.6 224.034 533.507 223.25C531.321 221.69 529.109 220.169 526.87 218.688C521.02 214.82 514.992 211.208 508.801 207.908C506.004 206.415 503.171 204.985 500.304 203.62C498.585 202.803 496.853 202.006 495.107 201.241C492.678 200.176 487.692 199.385 495.697 201.363C489.004 199.709 482.609 196.679 475.865 194.992C472.214 194.081 468.53 193.302 464.815 192.682C463.596 192.477 462.298 192.384 461.106 192.114C470.261 194.197 462.358 192.292 459.862 192.128C456.751 191.928 453.631 191.851 450.511 191.891C447.185 191.937 442.441 193.285 439.278 192.618C443.617 193.532 445.053 191.649 441.757 192.312C439.887 192.687 438.018 192.998 436.16 193.419C432.475 194.251 428.83 195.282 425.246 196.505C423.543 197.088 421.723 198.067 419.977 198.454C427.897 196.694 423.593 196.954 420.834 198.277C418.041 199.62 415.306 201.08 412.629 202.645C409.405 204.53 406.367 206.649 403.264 208.723C398.803 211.709 405.269 207.204 405.618 206.842C403.928 208.596 401.683 210.019 399.845 211.638C394.618 216.231 389.737 221.215 385.206 226.49C384.164 227.7 383.142 228.93 382.138 230.172C380.267 232.483 379.465 235.692 383.239 228.658C381.155 232.541 377.908 236.098 375.525 239.839C372.014 245.35 368.788 251.034 365.832 256.85C364.051 260.358 362.365 263.914 360.773 267.512C360.444 268.255 357.653 274.204 360.054 269.104C362.486 263.942 359.145 271.592 358.777 272.581C353.407 287.054 349.672 302.002 346.953 317.143C346.328 320.628 345.755 324.118 345.228 327.615C345.124 328.314 345.02 329.014 344.919 329.716C344.435 333.111 344.519 332.517 345.163 327.932C344.579 329.403 344.7 331.611 344.513 333.196C343.563 341.282 342.829 349.385 342.241 357.497C341.066 373.786 340.494 390.093 339.997 406.403C337.965 472.894 335.1 539.81 306.453 601.577C282.441 653.352 237.53 693.177 183.401 710.693C139.559 724.877 91.1808 722.486 47.61 710.5C0.978982 697.673 -41.2846 674.448 -79.3112 645.246C-95.827 632.563 -111.303 618.523 -125.225 603.027C-141.041 585.419 -156.11 565.952 -166.409 544.503C-179.672 516.89 -187.977 483.612 -177.017 453.32C-162.825 414.083 -126.368 390.23 -85.786 387.083C-53.5553 384.581 -20.5467 397.794 2.45118 419.613C26.5591 442.489 38.7175 476.209 39.2401 509.297C39.7881 543.945 26.4353 576.507 4.93007 603.531C-14.7963 628.323 -42.5781 645.106 -71.9121 655.859C-134.123 678.668 -201.089 666.132 -258.468 638.368C-289.753 623.231 -318.492 603.258 -345.469 581.549C-371.704 560.438 -395.702 536.565 -416.981 510.465C-439.132 483.309 -458.888 454.314 -475.244 423.259C-482.94 408.641 -478.565 387.832 -462.887 379.717C-447.789 371.904 -427.813 375.633 -419.561 391.307Z" fill="#ECF6E8" stroke="#ECF6E8" stroke-width="30" mask="url(#path-1-inside-1_1_1861)"/>
</svg>
