<svg width="680" height="309" viewBox="0 0 680 309" fill="none" xmlns="http://www.w3.org/2000/svg">
<path d="M112.248 -156.735C103.522 -151.83 95.3293 -145.743 87.6955 -138.608C89.2396 -140.072 90.7837 -141.536 92.3274 -142.999C83.1098 -134.242 74.8919 -124.106 67.7307 -112.825C68.9234 -114.719 70.1162 -116.614 71.3094 -118.507C63.9963 -106.81 57.9241 -94.0875 53.1984 -80.5327C53.9674 -82.7688 54.7364 -85.0043 55.5054 -87.2404C50.8712 -73.6688 47.6617 -59.4897 46.0494 -44.9049C46.3217 -47.3932 46.5944 -49.8815 46.8668 -52.3693C45.4848 -39.0654 45.481 -25.6885 46.903 -12.3892C46.6307 -14.8775 46.3579 -17.3653 46.0856 -19.8536C47.6739 -5.88142 50.7629 7.69861 55.1861 20.7161C54.4171 18.4801 53.6481 16.2445 52.8791 14.0085C57.5224 27.3934 63.5001 39.9555 70.6808 51.5293C69.488 49.6349 68.2948 47.7409 67.102 45.8465C74.3476 57.351 82.6829 67.6865 92.0275 76.6306C90.4834 75.1672 88.9397 73.7034 87.3956 72.24C96.2448 80.5781 105.849 87.538 116.123 92.8871C114.3 91.9436 112.478 91.0002 110.656 90.0563C120.777 95.2041 131.347 98.6592 142.198 100.502C140.17 100.168 138.142 99.8334 136.114 99.4993C148.014 101.403 160.014 101.349 171.913 99.4637C169.885 99.7979 167.856 100.132 165.829 100.467C178.075 98.414 190.011 94.4563 201.427 88.6439C199.604 89.5873 197.782 90.5308 195.96 91.4747C206.686 85.8982 216.775 78.7586 226.015 70.047C224.47 71.5104 222.926 72.9743 221.383 74.4377C228.581 67.5372 235.359 59.8098 240.963 50.9312C239.77 52.8256 238.577 54.72 237.384 56.614C241.278 50.2741 244.541 43.4603 247.094 36.1634C246.325 38.3995 245.556 40.635 244.787 42.8711C246.806 36.8598 248.29 30.6744 249.025 24.2283C248.753 26.7166 248.48 29.2049 248.208 31.6927C248.656 27.1116 248.701 22.5731 248.209 17.9943C248.482 20.4826 248.754 22.9709 249.027 25.4587C248.599 22.1421 247.903 18.9621 246.88 15.8477C247.649 18.0837 248.418 20.3193 249.187 22.5553C248.194 19.7792 246.99 17.2179 245.529 14.7732C246.722 16.6676 247.915 18.5615 249.108 20.4559C247.479 17.9044 245.668 15.6567 243.612 13.6219C245.157 15.0853 246.701 16.5492 248.244 18.0126C245.855 15.8018 243.311 14.0281 240.562 12.5849C242.385 13.5283 244.207 14.4718 246.029 15.4157C242.578 13.7394 239.04 12.6691 235.368 12.027C237.396 12.3612 239.424 12.6958 241.452 13.0299C235.588 12.1506 229.724 12.3832 223.877 13.3383C225.905 13.0042 227.933 12.6696 229.961 12.3354C221.313 13.8863 212.91 16.9156 204.846 21.0226C206.668 20.0792 208.49 19.1357 210.313 18.1918C200.967 23.0673 192.237 29.4024 184.175 36.9716C185.719 35.5082 187.263 34.0444 188.807 32.581C180.256 40.738 172.612 50.1478 165.935 60.6087C167.128 58.7143 168.321 56.8204 169.514 54.9259C162.712 65.7458 157.038 77.5082 152.631 90.06C153.4 87.824 154.169 85.5884 154.938 83.3524C150.767 95.4835 147.847 108.151 146.38 121.199C146.652 118.711 146.925 116.223 147.197 113.735C145.984 125.23 145.927 136.796 147.144 148.295C146.872 145.807 146.599 143.319 146.327 140.831C147.636 152.353 150.225 163.525 153.903 174.243C153.134 172.007 152.365 169.772 151.596 167.536C155.515 178.679 160.554 189.093 166.543 198.747C165.35 196.853 164.157 194.958 162.964 193.064C170.084 204.354 178.369 214.372 187.553 223.125C186.009 221.662 184.465 220.198 182.922 218.734C193.072 228.268 204.145 236.129 215.903 242.274C214.08 241.331 212.258 240.387 210.436 239.444C222.548 245.657 235.215 249.969 248.223 252.163C246.195 251.829 244.167 251.495 242.139 251.161C257.082 253.549 272.196 253.271 287.12 250.833C285.092 251.167 283.064 251.502 281.036 251.836C298.978 248.761 316.407 242.568 333.101 233.98C331.279 234.924 329.457 235.867 327.634 236.811C347.726 226.325 366.527 212.525 383.828 196.209C382.284 197.672 380.741 199.135 379.197 200.599C388.955 191.313 397.886 180.932 405.512 168.984C404.319 170.879 403.126 172.773 401.933 174.667C407.056 166.484 411.492 157.741 414.799 148.238C414.03 150.474 413.261 152.709 412.492 154.945C414.594 148.662 416.14 142.205 416.929 135.475C416.656 137.964 416.384 140.452 416.111 142.94C416.653 137.601 416.689 132.301 416.138 126.962C416.41 129.45 416.683 131.939 416.955 134.427C416.394 129.815 415.417 125.397 414.014 121.064C414.783 123.3 415.552 125.535 416.321 127.771C414.931 123.752 413.23 120.026 411.102 116.524C412.295 118.418 413.488 120.312 414.681 122.206C412.454 118.697 409.924 115.598 407.086 112.833C408.63 114.297 410.174 115.76 411.718 117.224C408.37 114.085 404.766 111.543 400.899 109.495C402.721 110.439 404.544 111.382 406.367 112.326C401.884 110.058 397.235 108.539 392.436 107.707C394.464 108.041 396.492 108.376 398.52 108.71C393.669 107.962 388.816 107.936 383.962 108.654C385.991 108.32 388.019 107.985 390.046 107.651C385.499 108.413 381.099 109.809 376.842 111.918C378.665 110.974 380.487 110.031 382.309 109.087C378.576 111.03 375.115 113.463 371.868 116.446C373.412 114.982 374.956 113.518 376.499 112.055C372.721 115.661 369.395 119.77 366.452 124.4C367.645 122.506 368.838 120.612 370.031 118.718C366.973 123.699 364.472 129.059 362.454 134.78C363.223 132.544 363.992 130.309 364.761 128.073C362.42 134.993 360.862 142.183 360.014 149.601C360.286 147.113 360.559 144.624 360.831 142.137C360.017 150.032 360.03 157.943 360.869 165.835C360.597 163.347 360.324 160.859 360.051 158.371C360.93 165.84 362.531 173.072 364.921 180.027C364.152 177.791 363.383 175.555 362.614 173.319C365.265 180.731 368.627 187.631 372.632 194.06C371.44 192.166 370.246 190.271 369.054 188.377C373.773 195.76 379.208 202.294 385.231 208.067C383.687 206.604 382.144 205.14 380.6 203.676C387.856 210.479 395.761 216.029 404.164 220.405C402.342 219.462 400.519 218.519 398.697 217.575C408.355 222.472 418.423 225.604 428.769 227.352C426.741 227.018 424.713 226.683 422.685 226.349C437.052 228.604 451.517 228.132 465.86 225.858C463.832 226.193 461.804 226.527 459.776 226.861C483.281 222.948 506.27 214.702 528.118 203.447C526.296 204.39 524.474 205.333 522.651 206.277C546.983 193.622 569.824 177.037 590.74 157.232C589.196 158.695 587.652 160.159 586.108 161.623C607.814 140.934 627.291 116.919 644.099 90.2388C642.906 92.1332 641.713 94.0271 640.52 95.9215C657.039 69.5327 670.849 40.7151 681.432 10.0727C680.663 12.3088 679.894 14.5443 679.125 16.7804C689.097 -12.3611 696.066 -42.9366 699.561 -74.2607C699.288 -71.7725 699.015 -69.2842 698.743 -66.7964C698.876 -68.0197 699.005 -69.243 699.131 -70.4673C699.923 -78.1956 701.16 -84.5878 705.834 -90.322C709.803 -95.1924 716.316 -98.8595 722.017 -98.5464C727.936 -98.2212 734.075 -95.8359 738.2 -90.322C742.007 -85.2341 745.642 -77.6611 744.904 -70.4673C742.679 -48.7794 739.492 -27.4228 734.415 -6.44908C729.483 13.9285 723.041 33.7982 715.64 53.0081C701.377 90.0287 682.118 124.229 659.704 154.524C614.381 215.784 552.718 261.874 486.267 278.089C444.435 288.296 397.978 286.75 361.719 255.953C345.775 242.411 331.603 224.737 323.51 202.836C314.912 179.566 312.628 155.115 316.49 129.997C319.855 108.115 329.819 86.2094 344.133 72.3439C358.784 58.1532 377.104 50.1829 395.963 52.2046C414.326 54.173 433.102 62.5686 445.473 80.1158C460.357 101.229 465.005 128.209 460.378 155.311C456.222 179.661 443.835 201.815 430.216 219.705C416.77 237.368 400.217 251.969 383.476 264.571C348.936 290.568 309.14 307.41 268.444 308.904C232.276 310.232 195.279 297.772 165.481 272.314C136.013 247.138 112.171 210.793 103.902 167.229C87.5867 81.2689 133.468 -9.53781 200.678 -36.8125C218.283 -43.9568 239.497 -47.2093 257.278 -39.1861C269.468 -33.6854 279.738 -24.4436 286.629 -10.7541C292.174 0.260435 294.802 14.1718 294.318 27.0508C292.497 75.4906 261.089 114.55 227.454 135.232C193.813 155.92 155.231 162.443 118.44 152.071C81.9883 141.794 51.1855 113.462 29.3321 76.8838C8.6178 42.2131 -2.64129 -3.1423 0.529275 -46.1245C3.92719 -92.1921 20.1577 -135.785 46.8798 -168.609C59.0513 -183.559 73.4684 -196.416 89.1461 -205.23C94.8861 -208.457 100.469 -210.193 106.782 -208.061C112.09 -206.267 117.844 -201.231 120.46 -195.157C123.266 -188.64 124.673 -180.745 122.767 -173.52C121.035 -166.956 117.571 -159.728 112.248 -156.735Z" fill="white"/>
</svg>
