<svg width="106" height="141" viewBox="0 0 106 141" fill="none" xmlns="http://www.w3.org/2000/svg">
<path d="M106.231 152.036H50.7599C50.2076 152.036 49.7599 151.588 49.7599 151.036V104.87C49.7599 104.317 49.3122 103.87 48.7599 103.87H1.72534C1.17306 103.87 0.725342 103.422 0.725342 102.87V49.4071C0.725342 48.8548 1.17306 48.4071 1.72534 48.4071H36.7437C37.0058 48.4071 37.2574 48.51 37.4444 48.6937L62.5553 73.3562C62.9543 73.7481 62.9543 74.3911 62.5553 74.7831L59.7779 77.5109C59.3889 77.893 58.7655 77.8929 58.3764 77.5109L34.9798 54.532C34.7928 54.3484 34.5412 54.2455 34.2791 54.2455H7.66989C7.1176 54.2455 6.66989 54.6932 6.66989 55.2455V97.0312C6.66989 97.5835 7.1176 98.0312 7.66989 98.0312H54.7117C55.264 98.0312 55.7117 98.4789 55.7117 99.0312V145.197C55.7117 145.75 56.1594 146.197 56.7117 146.197H99.2935C99.8458 146.197 100.294 145.75 100.294 145.197V102.581C100.294 102.313 100.186 102.056 99.9942 101.868L50.0674 52.8323C49.8759 52.6443 49.7681 52.3872 49.7681 52.1189V1.25086C49.7681 0.698571 50.2158 0.250854 50.7681 0.250854H105.239C105.791 0.250854 106.239 0.69857 106.239 1.25085V47.4169C106.239 47.9692 106.687 48.4169 107.239 48.4169H154.281C154.833 48.4169 155.281 48.8646 155.281 49.4169V102.879C155.281 103.432 154.833 103.879 154.281 103.879H119.262C119 103.879 118.749 103.777 118.562 103.593L94.8646 80.3189C93.6889 79.1642 93.6889 77.2697 94.8646 76.115C96.0107 74.9894 97.8473 74.9894 98.9934 76.115L121.026 97.7545C121.213 97.9381 121.465 98.041 121.727 98.041H148.344C148.896 98.041 149.344 97.5933 149.344 97.041V55.2553C149.344 54.703 148.896 54.2553 148.344 54.2553H101.302C100.749 54.2553 100.302 53.8077 100.302 53.2555L100.295 7.0891C100.295 6.53687 99.847 6.08925 99.2948 6.08925H56.7128C56.1605 6.08925 55.7128 6.53696 55.7128 7.08925V49.7055C55.7128 49.9738 55.8206 50.2309 56.0121 50.4189L105.939 99.4542C106.13 99.6423 106.238 99.8993 106.238 100.168V152.028C106.238 152.032 106.235 152.036 106.231 152.036Z" fill="white" stroke="white" stroke-width="0.5"/>
</svg>
