<svg width="103" height="130" viewBox="0 0 103 130" fill="none" xmlns="http://www.w3.org/2000/svg">
<path d="M38.1906 0.212548C37.7455 0.214032 37.3052 0.298167 36.8946 0.460147C36.484 0.622127 36.1113 0.858779 35.7978 1.15659C35.4843 1.45439 35.236 1.80752 35.0673 2.1958C34.8985 2.58407 34.8125 2.99989 34.8142 3.41951V131.203C34.8174 132.046 35.1741 132.854 35.8066 133.45C36.4391 134.047 37.2961 134.383 38.1906 134.386H112.72C113.165 134.388 113.606 134.307 114.018 134.147C114.43 133.988 114.805 133.754 115.12 133.459C115.436 133.163 115.687 132.812 115.859 132.425C116.031 132.037 116.12 131.622 116.122 131.203V3.41951C116.123 2.99791 116.037 2.58016 115.866 2.19034C115.696 1.80052 115.445 1.44635 115.129 1.14823C114.813 0.850114 114.437 0.613953 114.024 0.453362C113.611 0.292772 113.167 0.210927 112.72 0.212548H38.1906ZM41.5919 6.60288H109.344V127.996H41.5919V6.60288Z" fill="white"/>
<path d="M3.97725 64.1157C3.14031 64.1946 2.36442 64.5642 1.80047 65.1526C1.23652 65.741 0.924836 66.5061 0.926029 67.2991V131.202C0.929193 132.046 1.28593 132.854 1.91843 133.45C2.55094 134.047 3.40789 134.383 4.30238 134.386H38.1909V127.995H7.70373V70.5061H38.1909V64.1157H4.30238C4.19406 64.1108 4.08556 64.1108 3.97725 64.1157Z" fill="white"/>
<path d="M58.5239 99.2511C58.0789 99.2495 57.6378 99.3306 57.226 99.4897C56.8142 99.6488 56.4397 99.8829 56.1238 100.178C55.808 100.474 55.557 100.825 55.3852 101.213C55.2134 101.6 55.1241 102.015 55.1226 102.434V131.203H61.9003V105.641H89.0111V131.203H95.7888V102.434C95.7856 101.591 95.4289 100.783 94.7964 100.187C94.1639 99.5905 93.3069 99.2541 92.4124 99.2511H58.5239Z" fill="white"/>
<path d="M68.6781 12.9933C68.2331 12.9948 67.7927 13.0789 67.3821 13.2409C66.9716 13.4029 66.5989 13.6395 66.2853 13.9373C65.9718 14.2352 65.7236 14.5883 65.5548 14.9766C65.386 15.3648 65.3001 15.7807 65.3018 16.2003V25.774H55.1227C54.6777 25.7755 54.2373 25.8596 53.8267 26.0216C53.4162 26.1836 53.0435 26.4202 52.7299 26.718C52.4164 27.0158 52.1682 27.3689 51.9994 27.7572C51.8306 28.1455 51.7447 28.5613 51.7464 28.9809V41.738C51.7447 42.1576 51.8306 42.5735 51.9994 42.9617C52.1682 43.35 52.4164 43.7031 52.7299 44.0009C53.0435 44.2988 53.4162 44.5354 53.8267 44.6974C54.2373 44.8594 54.6777 44.9435 55.1227 44.945H65.3018V54.5187C65.3001 54.9383 65.386 55.3541 65.5548 55.7424C65.7236 56.1307 65.9718 56.4838 66.2853 56.7816C66.5989 57.0794 66.9716 57.3161 67.3821 57.4781C67.7927 57.64 68.2331 57.7242 68.6781 57.7257H82.2335C82.6807 57.7273 83.1238 57.6454 83.5372 57.4848C83.9507 57.3242 84.3263 57.0881 84.6425 56.79C84.9587 56.4919 85.2091 56.1377 85.3795 55.7479C85.5498 55.358 85.6366 54.9403 85.6349 54.5187V44.945H95.7889C96.234 44.9435 96.6744 44.8594 97.0849 44.6974C97.4955 44.5354 97.8682 44.2988 98.1817 44.0009C98.4953 43.7031 98.7435 43.35 98.9123 42.9617C99.081 42.5735 99.167 42.1576 99.1653 41.738V28.9809C99.167 28.5613 99.081 28.1455 98.9123 27.7572C98.7435 27.3689 98.4953 27.0158 98.1817 26.718C97.8682 26.4202 97.4955 26.1836 97.0849 26.0216C96.6744 25.8596 96.234 25.7755 95.7889 25.774H85.6349V16.2003C85.6366 15.7787 85.5498 15.3609 85.3795 14.9711C85.2091 14.5813 84.9587 14.2271 84.6425 13.929C84.3263 13.6309 83.9507 13.3947 83.5372 13.2341C83.1238 13.0735 82.6807 12.9917 82.2335 12.9933H68.6781ZM72.0795 19.3836H78.8572V28.9809C78.8603 29.8243 79.2171 30.6323 79.8496 31.2286C80.4821 31.825 81.339 32.1613 82.2335 32.1643H92.4126V38.5546H82.2335C81.339 38.5576 80.4821 38.894 79.8496 39.4903C79.2171 40.0867 78.8603 40.8947 78.8572 41.738V51.3353H72.0795V41.738C72.0779 41.3184 71.9887 40.9032 71.8169 40.5161C71.6451 40.129 71.3941 39.7776 71.0782 39.482C70.7624 39.1864 70.3878 38.9523 69.976 38.7932C69.5642 38.6341 69.1232 38.553 68.6781 38.5546H58.5241V32.1643H68.6781C69.1232 32.1659 69.5642 32.0849 69.976 31.9257C70.3878 31.7666 70.7624 31.5326 71.0782 31.237C71.3941 30.9413 71.6451 30.5899 71.8169 30.2029C71.9887 29.8158 72.0779 29.4006 72.0795 28.9809V19.3836Z" fill="white"/>
</svg>
