<svg width="67" height="127" viewBox="0 0 67 127" fill="none" xmlns="http://www.w3.org/2000/svg">
<path d="M78.8371 38.937L7.639 96.138C2.78516 100.048 0 105.829 0 111.998V122.571C0 133.838 9.26872 143 20.6667 143H72.3333C83.7313 143 93 133.838 93 122.571V111.998C93 105.829 90.2148 100.048 85.356 96.133L65.7741 80.4026C63.5641 78.6271 60.3097 78.9612 58.5034 81.1457C56.7072 83.3352 57.0402 86.5521 59.2552 88.3326L78.832 104.058C81.269 106.018 82.6667 108.911 82.6667 111.998V122.571C82.6667 128.202 78.0298 132.786 72.3333 132.786H20.6667C14.9702 132.786 10.3333 128.202 10.3333 122.571V111.998C10.3333 108.911 11.731 106.018 14.1629 104.063L85.361 46.862C90.2148 42.9519 93 37.1714 93 31.002V20.4286C93 9.16194 83.7313 0 72.3333 0H20.6667C9.26872 0 0 9.16194 0 20.4286V31.002C0 37.1714 2.78516 42.9519 7.64404 46.867L27.2259 62.5974C29.446 64.3779 32.6903 64.0438 34.4966 61.8543C36.2928 59.6648 35.9598 56.4479 33.7448 54.6674L14.168 38.942C11.731 36.9819 10.3333 34.0892 10.3333 31.002V20.4286C10.3333 14.7977 14.9702 10.2143 20.6667 10.2143H72.3333C78.0298 10.2143 82.6667 14.7977 82.6667 20.4286V31.002C82.6667 34.0892 81.269 36.9819 78.8371 38.937Z" fill="white"/>
</svg>
