<svg width="117" height="139" viewBox="0 0 117 139" fill="none" xmlns="http://www.w3.org/2000/svg">
<path d="M76.0596 152C115.791 152 148 119.006 148 78.3051C148 37.6044 115.791 4.60999 76.0596 4.60999C36.328 4.60999 4.11914 37.6044 4.11914 78.3051C4.11914 119.006 36.328 152 76.0596 152Z" stroke="white" stroke-width="8"/>
<path d="M46.8806 70.1986C46.8806 72.558 45.0382 74.3051 42.9672 74.3051C40.8961 74.3051 39.0537 72.558 39.0537 70.1986C39.0537 67.8393 40.8961 66.0922 42.9672 66.0922C45.0382 66.0922 46.8806 67.8393 46.8806 70.1986Z" fill="white" stroke="white" stroke-width="8"/>
<path d="M113.065 70.1986C113.065 72.558 111.223 74.3051 109.152 74.3051C107.081 74.3051 105.239 72.558 105.239 70.1986C105.239 67.8393 107.081 66.0922 109.152 66.0922C111.223 66.0922 113.065 67.8393 113.065 70.1986Z" fill="white" stroke="white" stroke-width="8"/>
<path d="M57.6431 111.689C57.6431 109.363 58.1993 107.152 59.201 105.152C62.0561 99.4535 68.5303 95.4757 76.0598 95.4757C83.7452 95.4757 90.331 99.6199 93.0912 105.508C93.984 107.413 94.4766 109.5 94.4766 111.689" stroke="white" stroke-width="8"/>
</svg>
