<svg width="109" height="132" viewBox="0 0 109 132" fill="none" xmlns="http://www.w3.org/2000/svg">
<path d="M131.741 30.0534C129.656 30.0534 127.968 28.4105 127.968 26.3802C127.968 24.35 129.656 22.707 131.741 22.707H157.226C159.312 22.707 161 24.3499 161 26.3802V66.7037C161 71.7385 158.889 76.3175 155.481 79.6408C153.389 81.6772 150.815 83.2327 147.946 84.1385V112.167C147.946 118.183 145.431 123.643 141.368 127.597C137.306 131.551 131.697 134 125.517 134H35.4896C29.3094 134 23.7003 131.551 19.638 127.597C15.5756 123.643 13.0599 118.177 13.0599 112.167V84.1129C10.204 83.2009 7.63055 81.6391 5.55127 79.6152C2.13071 76.2857 0 71.6818 0 66.6218V26.3863C0 24.3561 1.68777 22.7131 3.77363 22.7131H29.2586C31.3443 22.7131 33.0323 24.3559 33.0323 26.3863C33.0323 28.4164 31.3445 30.0594 29.2586 30.0594H7.54085V66.628C7.54085 69.6577 8.81796 72.4251 10.878 74.4303C12.9316 76.4293 15.7747 77.6786 18.8936 77.6786H142.197C145.29 77.6786 148.107 76.4479 150.148 74.4552C152.195 72.4687 153.459 69.7327 153.459 66.7155V30.0653H131.742L131.741 30.0534ZM55.1204 40.117C55.1204 42.1472 53.4326 43.7902 51.3467 43.7902C49.2611 43.7902 47.5731 42.1474 47.5731 40.117V3.67317C47.5731 1.643 49.2609 0 51.3467 0H109.651C111.736 0 113.424 1.64284 113.424 3.67317V40.117C113.424 42.1472 111.737 43.7902 109.651 43.7902C107.565 43.7902 105.877 42.1474 105.877 40.117V7.3529H55.1191L55.1204 40.117ZM140.398 85.0062H20.5993V112.156C20.5993 116.141 22.2678 119.764 24.9698 122.388C27.6652 125.011 31.3874 126.642 35.4819 126.642H125.509C129.604 126.642 133.326 125.018 136.021 122.388C138.717 119.764 140.392 116.141 140.392 112.156V85.0062H140.398Z" fill="white"/>
</svg>
