<svg width="91" height="158" viewBox="0 0 91 158" fill="none" xmlns="http://www.w3.org/2000/svg">
<path fill-rule="evenodd" clip-rule="evenodd" d="M42.2812 141.098L30.128 164.799C29.6461 165.728 28.6823 166.313 27.622 166.313H7.17112V160.809H25.8959L40.2308 132.843C39.9328 130.762 39.7751 128.638 39.7751 126.48C39.7751 101.911 60.1033 81.9587 85.1376 81.9587V87.4625C63.1973 87.4625 45.3829 104.945 45.3829 126.48C45.3829 148.014 63.1964 165.497 85.1376 165.497C107.079 165.497 124.892 148.014 124.892 126.48C124.892 116.581 121.124 107.543 114.93 100.663L119.127 97.0165C126.206 104.868 130.5 115.187 130.5 126.479C130.5 151.048 110.172 171 85.1376 171C65.3177 171 48.4515 158.496 42.2829 141.099L42.2812 141.098ZM85.1358 99.6127C100.242 99.6127 112.508 111.652 112.508 126.478C112.508 141.312 100.241 153.351 85.1358 153.351C70.0211 153.351 57.7542 141.312 57.7542 126.478C57.7542 111.652 70.0213 99.6127 85.1358 99.6127ZM32.1872 125.066C32.1872 125.066 27.2102 136.409 23.1973 145.559C21.6814 149.016 18.5621 151.536 14.8293 152.336C11.0878 153.144 7.18884 152.129 4.34098 149.61C0.941315 146.6 -0.34668 141.913 1.06403 137.648L10.3958 109.33C12.4111 103.207 17.572 98.5802 23.9684 97.1614L39.3286 93.7645L36.4984 69.4533C35.9727 64.9643 37.3484 60.4668 40.2924 57.0012C43.2453 53.5356 47.5036 51.4028 52.095 51.1019C63.0827 50.3881 77.7069 49.4336 86.6793 48.8489C92.6727 48.4533 98.5169 50.844 102.451 55.3072C106.937 60.3981 113.325 67.6477 117.82 72.7386C121.789 77.2363 121.448 84.0041 117.058 88.1062C114.753 90.2561 111.669 91.3913 108.497 91.2622C105.325 91.1332 102.346 89.7401 100.234 87.4096L88.379 74.3125L75.262 76.1098L74.4909 70.6576L89.0886 68.6625C90.0174 68.5335 90.955 68.8689 91.5772 69.5568L104.431 83.7547C105.527 84.9673 107.086 85.6896 108.734 85.7584C110.381 85.8272 111.993 85.2339 113.194 84.1159C115.419 82.0434 115.586 78.6122 113.579 76.342L98.2102 58.9105C95.4238 55.7545 91.297 54.0604 87.0472 54.3442C78.0747 54.929 63.4496 55.8749 52.4718 56.5972C49.4051 56.795 46.5662 58.214 44.6035 60.5273C42.632 62.8407 41.7206 65.842 42.0712 68.8345C43.4469 80.6847 45.1817 95.5958 45.1817 95.5958C45.3482 96.989 44.4107 98.279 43.0175 98.5886C43.0175 98.5886 32.941 100.816 25.204 102.536C20.7353 103.525 17.134 106.75 15.7321 111.024L6.40028 139.333C5.67301 141.543 6.33017 143.968 8.09137 145.516V145.524C9.5897 146.849 11.6575 147.382 13.6292 146.961C15.6007 146.539 17.248 145.206 18.0454 143.383C22.0673 134.225 27.0441 122.89 27.0441 122.89L32.1872 125.066ZM85.1358 105.115C73.1141 105.115 63.3619 114.687 63.3619 126.477C63.3619 138.267 73.1143 147.847 85.1358 147.847C97.1488 147.847 106.901 138.267 106.901 126.477C106.901 114.687 97.1486 105.115 85.1358 105.115ZM53.1894 1C64.9833 1 74.5602 10.3993 74.5602 21.9743C74.5602 33.5494 64.9833 42.9486 53.1894 42.9486C41.3956 42.9486 31.8186 33.5494 31.8186 21.9743C31.8186 10.3993 41.3956 1 53.1894 1ZM53.1894 6.50374C44.4886 6.50374 37.4264 13.4349 37.4264 21.9743C37.4264 30.5137 44.4886 37.4449 53.1894 37.4449C61.8902 37.4449 68.9524 30.5137 68.9524 21.9743C68.9524 13.4349 61.8902 6.50374 53.1894 6.50374Z" fill="white" stroke="white" stroke-width="0.7"/>
</svg>
