<svg width="827" height="982" viewBox="0 0 827 982" fill="none" xmlns="http://www.w3.org/2000/svg">
<mask id="path-1-inside-1_271_3073" fill="white">
<path d="M43.5606 1128.84C61.2475 1135.44 79.184 1140.95 97.3404 1145.24C106.023 1147.29 114.745 1149 123.491 1150.59C125.79 1151.01 128.912 1152.82 121.643 1150.29C123.84 1151.05 126.552 1151.03 128.822 1151.35C133.612 1152.01 138.413 1152.6 143.213 1153.1C179.236 1156.86 215.58 1156.1 251.472 1150.74C253.481 1150.44 261.384 1148.35 252.023 1150.7C253.575 1150.31 255.22 1150.14 256.792 1149.85C261.562 1148.98 266.316 1148.02 271.061 1146.98C279.848 1145.05 288.596 1142.85 297.289 1140.34C313.845 1135.57 330.199 1129.66 346.1 1122.23C348.216 1121.24 350.308 1120.18 352.42 1119.18C355.356 1117.78 355.987 1119.36 350.583 1120.18C354.439 1119.6 359.407 1115.34 362.903 1113.25C370.342 1108.8 377.618 1103.95 384.683 1098.67C391.374 1093.66 397.5 1087.76 404.034 1082.52C395.094 1089.69 403.867 1082.51 406.08 1080.17C409.482 1076.57 412.784 1072.83 415.979 1068.96C420.798 1063.12 425.371 1056.99 429.688 1050.59C430.699 1049.08 431.616 1047.34 432.73 1045.96C426.184 1054.07 430.518 1049.49 432.102 1046.8C434.373 1042.95 436.546 1039.02 438.62 1035.02C442.406 1027.7 445.863 1020.12 448.936 1012.31C449.769 1010.19 450.543 1008.04 451.352 1005.91C452.474 1002.93 452.054 1000.2 450.176 1009.37C451.164 1004.55 453.135 999.825 454.364 995.064C456.366 987.303 457.965 979.392 459.117 971.378C459.61 967.945 459.368 960.73 459.03 973.279C459.092 970.986 459.449 968.657 459.599 966.365C459.899 961.743 460.042 957.104 460.023 952.47C460.005 948.591 459.874 944.712 459.63 940.846C459.48 938.535 459.11 936.177 459.053 933.866C459.369 946.257 459.628 939.096 459.094 935.628C457.77 926.967 455.841 918.445 453.338 910.183L452.624 907.886C451.279 903.797 451.643 904.822 453.712 910.961C452.679 909.243 452.062 906.583 451.26 904.666C449.822 901.211 448.267 897.823 446.598 894.525C445.594 892.547 444.551 890.594 443.473 888.677C442.898 887.658 438.977 881.54 442.755 887.248C446.562 893.005 442.465 886.911 441.835 886.007C440.192 883.638 438.49 881.336 436.724 879.1C434.521 876.31 432.224 873.634 429.844 871.079C428.447 869.585 426.761 868.236 425.473 866.615C431.262 873.919 429.426 870.326 427.022 868.266C420.999 863.098 414.447 859.698 408.145 855.26C416.286 861.004 412.013 857.27 409.246 856.085C407.472 855.327 405.683 854.624 403.875 853.987C400.852 852.923 397.786 852.197 394.725 851.35C387.85 849.435 403.318 852.111 396.267 851.517C395.029 851.41 393.796 851.243 392.553 851.148C388.254 850.834 384.024 851.129 379.736 851.388C377.122 851.543 374.594 853.368 383.282 850.684C381.524 851.229 379.643 851.419 377.865 851.879C374.869 852.656 371.907 853.607 368.985 854.733C367.232 855.411 365.518 856.221 363.78 856.942C357.273 859.653 371.277 852.522 365.11 856.246C361.816 858.235 358.565 860.291 355.438 862.66C353.877 863.838 352.399 865.161 350.853 866.364C346.381 869.851 352.964 864.316 353.317 863.863C350.834 867.052 347.736 869.638 345.19 872.802C343.084 875.424 341.314 878.593 339.169 881.124C345.588 873.538 341.946 876.644 340.2 879.886C339.199 881.745 338.253 883.641 337.356 885.578C336.458 887.522 335.689 889.538 334.836 891.512C331.674 898.84 337.298 881.838 335.419 889.834C334.337 894.433 333.275 898.959 332.277 903.587C330.267 912.916 332.293 894.2 332.238 903.841C332.221 906.7 332.027 909.524 332.104 912.389C332.149 914.042 332.618 916.557 332.413 918.066C331.641 911.714 331.596 910.833 332.283 915.423C332.614 917.281 332.999 919.121 333.443 920.942C333.867 922.685 334.404 924.367 334.877 926.086C336.272 931.182 330.776 916.24 333.897 922.999C335.275 925.983 336.877 931.821 339.237 933.802C339.212 933.778 333.442 925.455 337.092 930.354C338.253 931.915 339.35 933.531 340.55 935.049C342.984 938.135 345.674 940.774 348.275 943.624C339.797 934.338 348.87 943.786 351.579 945.809C354.145 947.73 356.78 949.519 359.459 951.192C361.086 952.21 362.752 953.118 364.384 954.106C369.24 957.043 361.715 952.746 361.332 952.601C365.421 954.122 369.368 956.41 373.456 958.009C384.927 962.5 396.681 965.368 408.567 967.573C414.458 968.663 399.113 966.143 405.053 967.004C406.208 967.171 407.368 967.345 408.522 967.506C411.092 967.859 413.662 968.175 416.241 968.449C421.719 969.033 427.212 969.442 432.705 969.688C443.769 970.186 454.857 970.021 465.909 969.258C471.436 968.877 476.952 968.344 482.459 967.667C484.984 967.356 487.504 967.015 490.019 966.644C491.537 966.419 493.045 966.163 494.562 965.944C482.739 967.661 489.061 966.862 491.615 966.4C514.529 962.238 537.161 955.614 559.093 946.445C564.446 944.206 569.759 941.816 575.023 939.269C577.41 938.113 579.767 936.885 582.143 935.706C570.236 941.622 582.438 935.434 585.256 933.826C595.337 928.075 605.181 921.691 614.696 914.626C619.384 911.145 623.994 907.495 628.51 903.67C630.547 901.948 632.565 900.19 634.558 898.396C635.751 897.32 636.929 896.227 638.116 895.139C642.829 890.82 631.632 901.494 635.917 897.211C644.59 888.537 652.894 879.398 660.524 869.331C664.126 864.585 667.521 859.633 670.857 854.603C672.334 852.375 674.305 848.482 668.208 858.86C669.047 857.435 669.93 856.046 670.774 854.622C672.456 851.772 674.085 848.88 675.659 845.94C678.548 840.549 681.244 835.007 683.74 829.333C684.877 826.743 685.97 824.13 687.024 821.486C688.465 817.858 692.79 803.639 688.333 818.492C692.09 805.963 695.532 793.567 697.702 780.442C698.205 777.407 698.649 774.354 699.044 771.295C699.469 767.988 699.737 760.724 698.699 774.909C698.834 773.021 699.059 771.132 699.209 769.243C699.865 761.038 700.167 752.791 700.061 744.544C700.003 739.73 699.807 734.916 699.473 730.114C699.324 727.943 699.101 725.777 698.937 723.606C698.484 717.591 700.455 734.529 699.15 725.614C697.632 715.3 695.904 705.143 693.463 695.09C692.447 690.904 691.342 686.749 690.16 682.624C689.026 678.674 685.502 671.958 685.543 667.88C685.534 668.646 688.922 677.118 686.41 670.539C685.494 668.139 684.622 665.715 683.692 663.322C681.825 658.516 679.856 653.777 677.808 649.086C669.887 630.944 660.689 613.66 650.706 597.131C649.835 595.69 648.945 594.268 648.079 592.827C643.464 585.177 652.885 600.157 648.03 592.743C645.526 588.915 643.031 585.076 640.473 581.296C635.037 573.268 629.425 565.42 623.724 557.67C600.925 526.697 576.6 497.477 553.796 466.504C530.27 434.549 507.247 400.356 490.705 362.172C473.942 323.487 463.062 281.471 460.717 237.634C458.543 196.867 466.089 153.257 484.701 119.002C505.722 80.316 536.261 54.8773 570.939 37.7101C636.091 5.45655 718.256 4.36406 773.911 62.5191C821.094 111.823 834.135 195.909 822.513 267.613C809.811 345.96 761.714 408.771 708.223 450.089C679.941 471.935 648.814 488.579 617.227 501.76C580.71 516.999 542.439 526.503 503.921 529.378C435.457 534.482 362.73 514.103 306.812 463.852C277.581 437.581 253.313 405.609 234.659 367.338C216.792 330.676 204.227 289.82 194.718 248.828C174.511 161.728 163.964 70.1943 160.064 -20.124C156.084 -112.318 160.677 -204.633 172.355 -295.799C177.862 -338.766 185.212 -381.349 194.297 -423.392C198.841 -444.434 218.641 -459.38 235.969 -452.519C253.573 -445.551 264.563 -423.901 259.69 -401.344C250.19 -357.37 242.586 -312.802 237.002 -267.826C236.329 -262.389 235.706 -256.947 235.062 -251.504C233.838 -241.162 236.026 -261.049 234.965 -250.684C234.76 -248.699 234.551 -246.72 234.351 -244.734C233.144 -232.83 232.074 -220.902 231.141 -208.962C229.354 -186.071 228.073 -163.12 227.298 -140.146C225.782 -95.1935 226.211 -50.147 228.581 -5.24777C229.741 16.6981 231.367 38.6133 233.455 60.4554C234.021 66.3548 234.316 72.4838 235.27 78.3103C233.644 68.3703 234.759 73.7983 235.032 76.1628C235.378 79.1306 235.715 82.1043 236.067 85.0719C237.483 96.9426 239.041 108.789 240.732 120.599C246.724 162.399 254.053 204.172 264.485 244.669C266.906 254.071 269.518 263.4 272.356 272.627C273.642 276.806 275.007 280.948 276.357 285.097C279.234 293.944 273.121 276.348 276.342 285.007C277.548 288.245 278.711 291.501 279.952 294.721C286.728 312.334 294.584 329.342 303.761 345.232C305.01 347.396 306.309 349.518 307.584 351.664C311.928 358.97 303.796 346.053 306.929 350.585C309.507 354.316 312.001 358.12 314.672 361.754C320.24 369.348 326.181 376.531 332.437 383.267C335.043 386.069 337.728 388.744 340.398 391.443C346.151 397.263 334.04 385.853 340.117 391.154C341.529 392.383 342.915 393.66 344.331 394.883C350.846 400.521 357.6 405.742 364.542 410.541C371.203 415.148 378.035 419.368 385.01 423.207C385.644 423.556 386.283 423.899 386.917 424.249C390.244 426.012 389.468 425.621 384.582 423.069C386.155 423.381 387.934 424.73 389.438 425.44C393.665 427.449 397.931 429.326 402.236 431.069C416.808 436.968 431.79 441.34 446.959 444.192C447.647 444.317 448.334 444.443 449.027 444.569C452.717 445.204 451.784 445.054 446.222 444.114C448.142 443.689 451.16 444.814 453.11 445.046C457.124 445.536 461.148 445.922 465.177 446.207C474.831 446.9 484.509 447.038 494.177 446.657C503.044 446.307 511.896 445.523 520.714 444.341C522.718 444.073 524.722 443.745 526.726 443.47C531.938 442.746 518.106 445.153 526.117 443.55C531.304 442.511 536.491 441.509 541.658 440.289C559.556 436.079 577.207 430.354 594.523 423.376C602.709 420.077 610.827 416.501 618.851 412.653C621.969 411.159 625.048 409.538 628.166 408.032C618.703 412.599 625.5 409.405 627.483 408.328C629.948 406.992 632.404 405.631 634.844 404.234C648.288 396.549 661.387 387.928 673.94 378.235C680.185 373.413 686.292 368.325 692.231 362.948C693.964 361.383 699.422 355.717 691.755 363.515C692.781 362.47 693.851 361.486 694.887 360.459C698.504 356.87 702.052 353.168 705.503 349.344C710.656 343.636 715.617 337.663 720.337 331.413C722.801 328.152 725.205 324.819 727.535 321.407C728.737 319.65 729.89 317.29 731.279 315.767C725.34 322.255 728.811 319.764 730.768 316.48C735.051 309.283 739.008 301.797 742.602 294.052C744.411 290.153 746.122 286.187 747.74 282.167C748.397 280.531 749.039 278.883 749.656 277.223C753.386 267.204 747.609 284.182 749.617 277.368C751.792 269.981 753.848 262.6 755.404 254.967C756.113 251.497 756.743 248.003 757.295 244.497C757.627 242.385 757.896 240.267 758.208 238.15C759.38 230.233 757.348 248.195 757.965 240.702C758.611 232.852 759.071 225.021 759.054 217.13C759.05 212.847 758.928 208.564 758.693 204.293C758.468 200.203 756.244 185.745 758.636 200.516C757.4 192.874 756.45 185.286 754.748 177.759C753.989 174.388 753.146 171.047 752.219 167.742C751.667 165.764 751.086 163.804 750.475 161.857C747.607 152.715 752.055 165.697 750.957 163.159C748.186 156.75 745.763 150.219 742.583 144.07C740.915 140.839 733.408 129.96 741.126 140.742C738.913 137.644 736.881 134.401 734.569 131.394C732.454 128.64 730.241 126 727.939 123.481C726.887 122.331 725.795 121.234 724.733 120.101C719.821 114.847 731.626 126.016 726.213 121.499C723.72 119.421 721.267 117.319 718.686 115.416C716.858 114.067 714.989 112.784 713.102 111.562C711.391 110.454 706.531 108.862 705.439 107.054C705.847 107.729 713.185 110.579 707.646 108.312C705.636 107.488 703.66 106.555 701.635 105.762C697.925 104.313 694.16 103.081 690.362 102.036C686.681 101.022 682.358 100.943 678.825 99.4576C680.412 99.7269 681.999 99.9964 683.586 100.266C682.166 100.069 680.741 99.8895 679.316 99.7405C677.174 99.5082 675.022 99.336 672.875 99.2061C664.945 98.7279 656.987 98.9195 649.073 99.6539C645.802 99.96 641.49 101.601 638.271 100.996C639.843 100.734 641.41 100.473 642.982 100.217C641.553 100.472 640.123 100.746 638.699 101.031C635.855 101.608 633.021 102.245 630.197 102.943C622.819 104.768 615.501 106.992 608.297 109.65C605.041 110.849 601.805 112.138 598.593 113.518C596.668 114.347 594.748 115.206 592.842 116.108C590.191 117.36 585.807 121.209 593.382 115.679C587.049 120.302 579.894 123.395 573.497 128.036C570.036 130.55 566.649 133.215 563.36 136.055C562.28 136.986 561.225 138.091 560.115 138.937C568.643 132.447 561.2 137.952 559.183 140.091C556.67 142.761 554.245 145.551 551.91 148.45C549.422 151.542 546.848 157.126 543.941 159.416C547.928 156.274 547.586 153.234 545.59 156.862C544.457 158.921 543.275 160.919 542.186 163.008C540.023 167.149 538.042 171.435 536.253 175.842C535.405 177.936 534.769 180.501 533.739 182.457C538.408 173.582 535.341 177.767 534.254 181.509C533.157 185.299 532.193 189.143 531.351 193.029C530.339 197.712 529.645 202.437 528.868 207.18C527.755 214.004 529.234 203.952 529.224 203.3C529.276 206.455 528.655 209.816 528.491 212.984C528.017 221.979 528.104 231.016 528.677 239.999C528.807 242.062 528.966 244.125 529.15 246.182C529.487 250.012 531.318 253.684 528.833 243.787C530.204 249.251 530.445 255.483 531.482 261.092C533.008 269.355 534.882 277.515 537.061 285.547C538.377 290.39 539.801 295.19 541.328 299.942C541.644 300.925 544.048 308.927 541.993 302.059C539.914 295.106 543.195 305.17 543.668 306.412C550.597 324.58 559.126 341.684 568.573 358.032C570.748 361.794 572.967 365.513 575.225 369.196C575.678 369.932 576.131 370.667 576.588 371.402C578.802 374.953 578.414 374.332 575.417 369.546C576.092 371.427 577.862 373.337 578.925 374.959C584.351 383.229 589.954 391.317 595.675 399.279C607.166 415.263 619.128 430.709 631.148 446.089C680.151 508.795 728.845 572.655 754.069 655.446C775.213 724.843 771.422 802.473 743.681 868.141C721.21 921.326 682.698 963.504 640.539 992.494C595.419 1023.52 545.709 1041.03 494.668 1049.18C472.5 1052.72 450.089 1054.06 427.75 1052.65C402.369 1051.04 376.141 1047.05 352.025 1036.87C320.975 1023.76 289.38 1000.93 274.666 963.159C255.604 914.24 265.124 858.979 293.512 818.883C316.057 787.036 351.137 768.855 385.167 767.73C420.842 766.554 455.696 786.26 481.245 816.058C507.999 847.261 522.623 889.302 526.854 933.752C530.738 974.529 522.423 1015.36 508.347 1052.1C478.5 1130.03 418.178 1179.97 353.551 1207.19C318.316 1222.02 281.336 1230.1 244.372 1234.98C208.425 1239.72 172.076 1239.88 136.096 1235.51C98.6518 1230.98 61.6267 1222.56 25.614 1209.15C8.6642 1202.83 -3.83515 1179.78 1.88794 1157.97C7.40051 1136.98 25.3872 1122.07 43.5606 1128.84Z"/>
</mask>
<path d="M43.5606 1128.84C61.2475 1135.44 79.184 1140.95 97.3404 1145.24C106.023 1147.29 114.745 1149 123.491 1150.59C125.79 1151.01 128.912 1152.82 121.643 1150.29C123.84 1151.05 126.552 1151.03 128.822 1151.35C133.612 1152.01 138.413 1152.6 143.213 1153.1C179.236 1156.86 215.58 1156.1 251.472 1150.74C253.481 1150.44 261.384 1148.35 252.023 1150.7C253.575 1150.31 255.22 1150.14 256.792 1149.85C261.562 1148.98 266.316 1148.02 271.061 1146.98C279.848 1145.05 288.596 1142.85 297.289 1140.34C313.845 1135.57 330.199 1129.66 346.1 1122.23C348.216 1121.24 350.308 1120.18 352.42 1119.18C355.356 1117.78 355.987 1119.36 350.583 1120.18C354.439 1119.6 359.407 1115.34 362.903 1113.25C370.342 1108.8 377.618 1103.95 384.683 1098.67C391.374 1093.66 397.5 1087.76 404.034 1082.52C395.094 1089.69 403.867 1082.51 406.08 1080.17C409.482 1076.57 412.784 1072.83 415.979 1068.96C420.798 1063.12 425.371 1056.99 429.688 1050.59C430.699 1049.08 431.616 1047.34 432.73 1045.96C426.184 1054.07 430.518 1049.49 432.102 1046.8C434.373 1042.95 436.546 1039.02 438.62 1035.02C442.406 1027.7 445.863 1020.12 448.936 1012.31C449.769 1010.19 450.543 1008.04 451.352 1005.91C452.474 1002.93 452.054 1000.2 450.176 1009.37C451.164 1004.55 453.135 999.825 454.364 995.064C456.366 987.303 457.965 979.392 459.117 971.378C459.61 967.945 459.368 960.73 459.03 973.279C459.092 970.986 459.449 968.657 459.599 966.365C459.899 961.743 460.042 957.104 460.023 952.47C460.005 948.591 459.874 944.712 459.63 940.846C459.48 938.535 459.11 936.177 459.053 933.866C459.369 946.257 459.628 939.096 459.094 935.628C457.77 926.967 455.841 918.445 453.338 910.183L452.624 907.886C451.279 903.797 451.643 904.822 453.712 910.961C452.679 909.243 452.062 906.583 451.26 904.666C449.822 901.211 448.267 897.823 446.598 894.525C445.594 892.547 444.551 890.594 443.473 888.677C442.898 887.658 438.977 881.54 442.755 887.248C446.562 893.005 442.465 886.911 441.835 886.007C440.192 883.638 438.49 881.336 436.724 879.1C434.521 876.31 432.224 873.634 429.844 871.079C428.447 869.585 426.761 868.236 425.473 866.615C431.262 873.919 429.426 870.326 427.022 868.266C420.999 863.098 414.447 859.698 408.145 855.26C416.286 861.004 412.013 857.27 409.246 856.085C407.472 855.327 405.683 854.624 403.875 853.987C400.852 852.923 397.786 852.197 394.725 851.35C387.85 849.435 403.318 852.111 396.267 851.517C395.029 851.41 393.796 851.243 392.553 851.148C388.254 850.834 384.024 851.129 379.736 851.388C377.122 851.543 374.594 853.368 383.282 850.684C381.524 851.229 379.643 851.419 377.865 851.879C374.869 852.656 371.907 853.607 368.985 854.733C367.232 855.411 365.518 856.221 363.78 856.942C357.273 859.653 371.277 852.522 365.11 856.246C361.816 858.235 358.565 860.291 355.438 862.66C353.877 863.838 352.399 865.161 350.853 866.364C346.381 869.851 352.964 864.316 353.317 863.863C350.834 867.052 347.736 869.638 345.19 872.802C343.084 875.424 341.314 878.593 339.169 881.124C345.588 873.538 341.946 876.644 340.2 879.886C339.199 881.745 338.253 883.641 337.356 885.578C336.458 887.522 335.689 889.538 334.836 891.512C331.674 898.84 337.298 881.838 335.419 889.834C334.337 894.433 333.275 898.959 332.277 903.587C330.267 912.916 332.293 894.2 332.238 903.841C332.221 906.7 332.027 909.524 332.104 912.389C332.149 914.042 332.618 916.557 332.413 918.066C331.641 911.714 331.596 910.833 332.283 915.423C332.614 917.281 332.999 919.121 333.443 920.942C333.867 922.685 334.404 924.367 334.877 926.086C336.272 931.182 330.776 916.24 333.897 922.999C335.275 925.983 336.877 931.821 339.237 933.802C339.212 933.778 333.442 925.455 337.092 930.354C338.253 931.915 339.35 933.531 340.55 935.049C342.984 938.135 345.674 940.774 348.275 943.624C339.797 934.338 348.87 943.786 351.579 945.809C354.145 947.73 356.78 949.519 359.459 951.192C361.086 952.21 362.752 953.118 364.384 954.106C369.24 957.043 361.715 952.746 361.332 952.601C365.421 954.122 369.368 956.41 373.456 958.009C384.927 962.5 396.681 965.368 408.567 967.573C414.458 968.663 399.113 966.143 405.053 967.004C406.208 967.171 407.368 967.345 408.522 967.506C411.092 967.859 413.662 968.175 416.241 968.449C421.719 969.033 427.212 969.442 432.705 969.688C443.769 970.186 454.857 970.021 465.909 969.258C471.436 968.877 476.952 968.344 482.459 967.667C484.984 967.356 487.504 967.015 490.019 966.644C491.537 966.419 493.045 966.163 494.562 965.944C482.739 967.661 489.061 966.862 491.615 966.4C514.529 962.238 537.161 955.614 559.093 946.445C564.446 944.206 569.759 941.816 575.023 939.269C577.41 938.113 579.767 936.885 582.143 935.706C570.236 941.622 582.438 935.434 585.256 933.826C595.337 928.075 605.181 921.691 614.696 914.626C619.384 911.145 623.994 907.495 628.51 903.67C630.547 901.948 632.565 900.19 634.558 898.396C635.751 897.32 636.929 896.227 638.116 895.139C642.829 890.82 631.632 901.494 635.917 897.211C644.59 888.537 652.894 879.398 660.524 869.331C664.126 864.585 667.521 859.633 670.857 854.603C672.334 852.375 674.305 848.482 668.208 858.86C669.047 857.435 669.93 856.046 670.774 854.622C672.456 851.772 674.085 848.88 675.659 845.94C678.548 840.549 681.244 835.007 683.74 829.333C684.877 826.743 685.97 824.13 687.024 821.486C688.465 817.858 692.79 803.639 688.333 818.492C692.09 805.963 695.532 793.567 697.702 780.442C698.205 777.407 698.649 774.354 699.044 771.295C699.469 767.988 699.737 760.724 698.699 774.909C698.834 773.021 699.059 771.132 699.209 769.243C699.865 761.038 700.167 752.791 700.061 744.544C700.003 739.73 699.807 734.916 699.473 730.114C699.324 727.943 699.101 725.777 698.937 723.606C698.484 717.591 700.455 734.529 699.15 725.614C697.632 715.3 695.904 705.143 693.463 695.09C692.447 690.904 691.342 686.749 690.16 682.624C689.026 678.674 685.502 671.958 685.543 667.88C685.534 668.646 688.922 677.118 686.41 670.539C685.494 668.139 684.622 665.715 683.692 663.322C681.825 658.516 679.856 653.777 677.808 649.086C669.887 630.944 660.689 613.66 650.706 597.131C649.835 595.69 648.945 594.268 648.079 592.827C643.464 585.177 652.885 600.157 648.03 592.743C645.526 588.915 643.031 585.076 640.473 581.296C635.037 573.268 629.425 565.42 623.724 557.67C600.925 526.697 576.6 497.477 553.796 466.504C530.27 434.549 507.247 400.356 490.705 362.172C473.942 323.487 463.062 281.471 460.717 237.634C458.543 196.867 466.089 153.257 484.701 119.002C505.722 80.316 536.261 54.8773 570.939 37.7101C636.091 5.45655 718.256 4.36406 773.911 62.5191C821.094 111.823 834.135 195.909 822.513 267.613C809.811 345.96 761.714 408.771 708.223 450.089C679.941 471.935 648.814 488.579 617.227 501.76C580.71 516.999 542.439 526.503 503.921 529.378C435.457 534.482 362.73 514.103 306.812 463.852C277.581 437.581 253.313 405.609 234.659 367.338C216.792 330.676 204.227 289.82 194.718 248.828C174.511 161.728 163.964 70.1943 160.064 -20.124C156.084 -112.318 160.677 -204.633 172.355 -295.799C177.862 -338.766 185.212 -381.349 194.297 -423.392C198.841 -444.434 218.641 -459.38 235.969 -452.519C253.573 -445.551 264.563 -423.901 259.69 -401.344C250.19 -357.37 242.586 -312.802 237.002 -267.826C236.329 -262.389 235.706 -256.947 235.062 -251.504C233.838 -241.162 236.026 -261.049 234.965 -250.684C234.76 -248.699 234.551 -246.72 234.351 -244.734C233.144 -232.83 232.074 -220.902 231.141 -208.962C229.354 -186.071 228.073 -163.12 227.298 -140.146C225.782 -95.1935 226.211 -50.147 228.581 -5.24777C229.741 16.6981 231.367 38.6133 233.455 60.4554C234.021 66.3548 234.316 72.4838 235.27 78.3103C233.644 68.3703 234.759 73.7983 235.032 76.1628C235.378 79.1306 235.715 82.1043 236.067 85.0719C237.483 96.9426 239.041 108.789 240.732 120.599C246.724 162.399 254.053 204.172 264.485 244.669C266.906 254.071 269.518 263.4 272.356 272.627C273.642 276.806 275.007 280.948 276.357 285.097C279.234 293.944 273.121 276.348 276.342 285.007C277.548 288.245 278.711 291.501 279.952 294.721C286.728 312.334 294.584 329.342 303.761 345.232C305.01 347.396 306.309 349.518 307.584 351.664C311.928 358.97 303.796 346.053 306.929 350.585C309.507 354.316 312.001 358.12 314.672 361.754C320.24 369.348 326.181 376.531 332.437 383.267C335.043 386.069 337.728 388.744 340.398 391.443C346.151 397.263 334.04 385.853 340.117 391.154C341.529 392.383 342.915 393.66 344.331 394.883C350.846 400.521 357.6 405.742 364.542 410.541C371.203 415.148 378.035 419.368 385.01 423.207C385.644 423.556 386.283 423.899 386.917 424.249C390.244 426.012 389.468 425.621 384.582 423.069C386.155 423.381 387.934 424.73 389.438 425.44C393.665 427.449 397.931 429.326 402.236 431.069C416.808 436.968 431.79 441.34 446.959 444.192C447.647 444.317 448.334 444.443 449.027 444.569C452.717 445.204 451.784 445.054 446.222 444.114C448.142 443.689 451.16 444.814 453.11 445.046C457.124 445.536 461.148 445.922 465.177 446.207C474.831 446.9 484.509 447.038 494.177 446.657C503.044 446.307 511.896 445.523 520.714 444.341C522.718 444.073 524.722 443.745 526.726 443.47C531.938 442.746 518.106 445.153 526.117 443.55C531.304 442.511 536.491 441.509 541.658 440.289C559.556 436.079 577.207 430.354 594.523 423.376C602.709 420.077 610.827 416.501 618.851 412.653C621.969 411.159 625.048 409.538 628.166 408.032C618.703 412.599 625.5 409.405 627.483 408.328C629.948 406.992 632.404 405.631 634.844 404.234C648.288 396.549 661.387 387.928 673.94 378.235C680.185 373.413 686.292 368.325 692.231 362.948C693.964 361.383 699.422 355.717 691.755 363.515C692.781 362.47 693.851 361.486 694.887 360.459C698.504 356.87 702.052 353.168 705.503 349.344C710.656 343.636 715.617 337.663 720.337 331.413C722.801 328.152 725.205 324.819 727.535 321.407C728.737 319.65 729.89 317.29 731.279 315.767C725.34 322.255 728.811 319.764 730.768 316.48C735.051 309.283 739.008 301.797 742.602 294.052C744.411 290.153 746.122 286.187 747.74 282.167C748.397 280.531 749.039 278.883 749.656 277.223C753.386 267.204 747.609 284.182 749.617 277.368C751.792 269.981 753.848 262.6 755.404 254.967C756.113 251.497 756.743 248.003 757.295 244.497C757.627 242.385 757.896 240.267 758.208 238.15C759.38 230.233 757.348 248.195 757.965 240.702C758.611 232.852 759.071 225.021 759.054 217.13C759.05 212.847 758.928 208.564 758.693 204.293C758.468 200.203 756.244 185.745 758.636 200.516C757.4 192.874 756.45 185.286 754.748 177.759C753.989 174.388 753.146 171.047 752.219 167.742C751.667 165.764 751.086 163.804 750.475 161.857C747.607 152.715 752.055 165.697 750.957 163.159C748.186 156.75 745.763 150.219 742.583 144.07C740.915 140.839 733.408 129.96 741.126 140.742C738.913 137.644 736.881 134.401 734.569 131.394C732.454 128.64 730.241 126 727.939 123.481C726.887 122.331 725.795 121.234 724.733 120.101C719.821 114.847 731.626 126.016 726.213 121.499C723.72 119.421 721.267 117.319 718.686 115.416C716.858 114.067 714.989 112.784 713.102 111.562C711.391 110.454 706.531 108.862 705.439 107.054C705.847 107.729 713.185 110.579 707.646 108.312C705.636 107.488 703.66 106.555 701.635 105.762C697.925 104.313 694.16 103.081 690.362 102.036C686.681 101.022 682.358 100.943 678.825 99.4576C680.412 99.7269 681.999 99.9964 683.586 100.266C682.166 100.069 680.741 99.8895 679.316 99.7405C677.174 99.5082 675.022 99.336 672.875 99.2061C664.945 98.7279 656.987 98.9195 649.073 99.6539C645.802 99.96 641.49 101.601 638.271 100.996C639.843 100.734 641.41 100.473 642.982 100.217C641.553 100.472 640.123 100.746 638.699 101.031C635.855 101.608 633.021 102.245 630.197 102.943C622.819 104.768 615.501 106.992 608.297 109.65C605.041 110.849 601.805 112.138 598.593 113.518C596.668 114.347 594.748 115.206 592.842 116.108C590.191 117.36 585.807 121.209 593.382 115.679C587.049 120.302 579.894 123.395 573.497 128.036C570.036 130.55 566.649 133.215 563.36 136.055C562.28 136.986 561.225 138.091 560.115 138.937C568.643 132.447 561.2 137.952 559.183 140.091C556.67 142.761 554.245 145.551 551.91 148.45C549.422 151.542 546.848 157.126 543.941 159.416C547.928 156.274 547.586 153.234 545.59 156.862C544.457 158.921 543.275 160.919 542.186 163.008C540.023 167.149 538.042 171.435 536.253 175.842C535.405 177.936 534.769 180.501 533.739 182.457C538.408 173.582 535.341 177.767 534.254 181.509C533.157 185.299 532.193 189.143 531.351 193.029C530.339 197.712 529.645 202.437 528.868 207.18C527.755 214.004 529.234 203.952 529.224 203.3C529.276 206.455 528.655 209.816 528.491 212.984C528.017 221.979 528.104 231.016 528.677 239.999C528.807 242.062 528.966 244.125 529.15 246.182C529.487 250.012 531.318 253.684 528.833 243.787C530.204 249.251 530.445 255.483 531.482 261.092C533.008 269.355 534.882 277.515 537.061 285.547C538.377 290.39 539.801 295.19 541.328 299.942C541.644 300.925 544.048 308.927 541.993 302.059C539.914 295.106 543.195 305.17 543.668 306.412C550.597 324.58 559.126 341.684 568.573 358.032C570.748 361.794 572.967 365.513 575.225 369.196C575.678 369.932 576.131 370.667 576.588 371.402C578.802 374.953 578.414 374.332 575.417 369.546C576.092 371.427 577.862 373.337 578.925 374.959C584.351 383.229 589.954 391.317 595.675 399.279C607.166 415.263 619.128 430.709 631.148 446.089C680.151 508.795 728.845 572.655 754.069 655.446C775.213 724.843 771.422 802.473 743.681 868.141C721.21 921.326 682.698 963.504 640.539 992.494C595.419 1023.52 545.709 1041.03 494.668 1049.18C472.5 1052.72 450.089 1054.06 427.75 1052.65C402.369 1051.04 376.141 1047.05 352.025 1036.87C320.975 1023.76 289.38 1000.93 274.666 963.159C255.604 914.24 265.124 858.979 293.512 818.883C316.057 787.036 351.137 768.855 385.167 767.73C420.842 766.554 455.696 786.26 481.245 816.058C507.999 847.261 522.623 889.302 526.854 933.752C530.738 974.529 522.423 1015.36 508.347 1052.1C478.5 1130.03 418.178 1179.97 353.551 1207.19C318.316 1222.02 281.336 1230.1 244.372 1234.98C208.425 1239.72 172.076 1239.88 136.096 1235.51C98.6518 1230.98 61.6267 1222.56 25.614 1209.15C8.6642 1202.83 -3.83515 1179.78 1.88794 1157.97C7.40051 1136.98 25.3872 1122.07 43.5606 1128.84Z" fill="#D3ECF2" stroke="#D3ECF2" stroke-width="30" mask="url(#path-1-inside-1_271_3073)"/>
</svg>
