<svg width="547" height="1404" viewBox="0 0 547 1404" fill="none" xmlns="http://www.w3.org/2000/svg">
<mask id="path-1-inside-1_67_23" fill="white">
<path d="M-236.44 1312.84C-218.753 1318.31 -200.817 1322.88 -182.66 1326.43C-173.978 1328.13 -165.256 1329.55 -156.51 1330.87C-154.21 1331.21 -151.089 1332.71 -158.357 1330.62C-156.161 1331.25 -153.449 1331.23 -151.179 1331.49C-146.388 1332.04 -141.588 1332.53 -136.788 1332.94C-100.764 1336.06 -64.4207 1335.43 -28.5283 1330.99C-26.5193 1330.74 -18.6167 1329.01 -27.9782 1330.96C-26.4261 1330.64 -24.7805 1330.5 -23.2087 1330.25C-18.4392 1329.53 -13.6845 1328.73 -8.9398 1327.87C-0.152698 1326.28 8.59487 1324.45 17.2881 1322.37C33.8445 1318.41 50.1985 1313.52 66.0992 1307.36C68.2156 1306.54 70.3075 1305.66 72.419 1304.83C75.3556 1303.67 75.9859 1304.98 70.5826 1305.66C74.4386 1305.18 79.4064 1301.65 82.9023 1299.91C90.341 1296.22 97.6173 1292.21 104.682 1287.83C111.373 1283.68 117.499 1278.79 124.033 1274.44C115.094 1280.39 123.866 1274.44 126.08 1272.49C129.481 1269.51 132.784 1266.41 135.978 1263.21C140.797 1258.36 145.37 1253.28 149.688 1247.97C150.698 1246.73 151.615 1245.28 152.729 1244.14C146.183 1250.86 150.517 1247.07 152.101 1244.84C154.372 1241.65 156.545 1238.39 158.62 1235.07C162.406 1229 165.862 1222.72 168.935 1216.25C169.769 1214.49 170.543 1212.71 171.351 1210.94C172.474 1208.47 172.054 1206.21 170.175 1213.81C171.163 1209.82 173.134 1205.9 174.363 1201.95C176.365 1195.52 177.964 1188.96 179.116 1182.32C179.609 1179.47 179.367 1173.49 179.03 1183.89C179.091 1181.99 179.448 1180.06 179.598 1178.16C179.899 1174.33 180.042 1170.49 180.023 1166.65C180.004 1163.43 179.873 1160.22 179.629 1157.01C179.479 1155.1 179.109 1153.14 179.053 1151.23C179.369 1161.5 179.627 1155.56 179.094 1152.69C177.769 1145.51 175.84 1138.44 173.337 1131.59L172.623 1129.69C171.278 1126.3 171.642 1127.15 173.711 1132.24C172.678 1130.81 172.062 1128.61 171.259 1127.02C169.821 1124.16 168.266 1121.35 166.597 1118.61C165.593 1116.98 164.55 1115.36 163.473 1113.77C162.897 1112.92 158.976 1107.85 162.754 1112.58C166.562 1117.35 162.464 1112.3 161.834 1111.55C160.191 1109.59 158.489 1107.68 156.724 1105.83C154.52 1103.52 152.223 1101.3 149.843 1099.18C148.447 1097.94 146.76 1096.82 145.472 1095.48C151.261 1101.53 149.425 1098.56 147.021 1096.85C140.998 1092.57 134.446 1089.75 128.144 1086.07C136.285 1090.83 132.012 1087.73 129.245 1086.75C127.471 1086.12 125.682 1085.54 123.874 1085.01C120.851 1084.13 117.785 1083.53 114.724 1082.83C107.849 1081.24 123.317 1083.46 116.267 1082.97C115.029 1082.88 113.795 1082.74 112.552 1082.66C108.253 1082.4 104.024 1082.64 99.7352 1082.86C97.1218 1082.99 94.5934 1084.5 103.282 1082.28C101.523 1082.73 99.6418 1082.88 97.8639 1083.27C94.8678 1083.91 91.9063 1084.7 88.9842 1085.63C87.231 1086.19 85.5173 1086.87 83.7788 1087.46C77.2719 1089.71 91.2765 1083.8 85.1095 1086.89C81.8149 1088.53 78.5645 1090.24 75.4373 1092.2C73.8761 1093.18 72.3986 1094.28 70.8522 1095.27C66.3799 1098.16 72.9628 1093.58 73.3161 1093.2C70.8332 1095.84 67.7356 1097.99 65.1888 1100.61C63.0836 1102.78 61.313 1105.41 59.1685 1107.51C65.5874 1101.22 61.945 1103.79 60.199 1106.48C59.1985 1108.02 58.252 1109.59 57.3548 1111.2C56.4575 1112.81 55.6881 1114.48 54.8351 1116.12C51.6731 1122.19 57.2973 1108.1 55.4181 1114.73C54.3366 1118.54 53.2747 1122.29 52.2767 1126.13C50.2661 1133.86 52.2927 1118.35 52.2376 1126.34C52.2206 1128.71 52.0267 1131.05 52.103 1133.42C52.1487 1134.79 52.6177 1136.88 52.4127 1138.13C51.6406 1132.86 51.5956 1132.13 52.2826 1135.94C52.6135 1137.48 52.9983 1139 53.4421 1140.51C53.8662 1141.96 54.4032 1143.35 54.8764 1144.78C56.2714 1149 50.7752 1136.61 53.896 1142.22C55.2743 1144.69 56.8762 1149.53 59.2361 1151.17C59.2116 1151.15 53.4413 1144.25 57.0911 1148.31C58.2519 1149.61 59.3489 1150.95 60.549 1152.21C62.9836 1154.76 65.6733 1156.95 68.2747 1159.31C59.7967 1151.62 68.8693 1159.45 71.5781 1161.12C74.1442 1162.72 76.7791 1164.2 79.458 1165.59C81.0851 1166.43 82.7513 1167.18 84.3833 1168C89.2397 1170.44 81.7144 1166.87 81.3311 1166.75C85.4199 1168.02 89.3669 1169.91 93.4558 1171.24C104.926 1174.96 116.68 1177.34 128.566 1179.16C134.457 1180.07 119.112 1177.98 125.053 1178.69C126.207 1178.83 127.367 1178.98 128.522 1179.11C131.091 1179.4 133.661 1179.66 136.24 1179.89C141.719 1180.37 147.211 1180.71 152.704 1180.92C163.768 1181.33 174.856 1181.19 185.909 1180.56C191.435 1180.24 196.952 1179.8 202.458 1179.24C204.983 1178.98 207.503 1178.7 210.018 1178.39C211.536 1178.21 213.044 1178 214.562 1177.81C202.738 1179.24 209.06 1178.58 211.614 1178.19C234.529 1174.74 257.16 1169.25 279.092 1161.65C284.445 1159.8 289.758 1157.81 295.023 1155.7C297.409 1154.75 299.766 1153.73 302.143 1152.75C290.235 1157.65 302.437 1152.52 305.256 1151.19C315.336 1146.42 325.18 1141.13 334.695 1135.28C339.383 1132.39 343.993 1129.37 348.509 1126.2C350.547 1124.77 352.564 1123.31 354.557 1121.82C355.75 1120.93 356.928 1120.03 358.116 1119.12C362.828 1115.54 351.632 1124.39 355.917 1120.84C364.59 1113.65 372.894 1106.08 380.524 1097.73C384.125 1093.8 387.52 1089.69 390.856 1085.52C392.333 1083.68 394.305 1080.45 388.207 1089.05C389.046 1087.87 389.929 1086.72 390.773 1085.54C392.455 1083.18 394.084 1080.78 395.658 1078.34C398.547 1073.87 401.244 1069.28 403.739 1064.58C404.877 1062.43 405.97 1060.26 407.023 1058.07C408.464 1055.07 412.789 1043.28 408.332 1055.59C412.089 1045.21 415.532 1034.93 417.701 1024.05C418.204 1021.54 418.648 1019.01 419.043 1016.47C419.468 1013.73 419.736 1007.71 418.698 1019.47C418.834 1017.9 419.058 1016.34 419.209 1014.77C419.864 1007.97 420.166 1001.13 420.06 994.297C420.002 990.306 419.806 986.316 419.473 982.336C419.323 980.536 419.1 978.741 418.936 976.941C418.484 971.956 420.454 985.995 419.149 978.606C417.632 970.056 415.903 961.637 413.462 953.304C412.446 949.835 411.342 946.391 410.159 942.971C409.025 939.697 405.502 934.131 405.542 930.75C405.533 931.385 408.921 938.407 406.409 932.954C405.493 930.965 404.622 928.956 403.691 926.972C401.825 922.988 399.855 919.06 397.807 915.172C389.886 900.134 380.688 885.807 370.705 872.107C369.835 870.912 368.944 869.733 368.078 868.539C363.463 862.198 372.885 874.614 368.029 868.469C365.525 865.296 363.031 862.114 360.472 858.981C355.037 852.327 349.424 845.822 343.723 839.397C320.924 813.725 296.599 789.503 273.796 763.831C250.269 737.343 227.246 709 210.705 677.35C193.941 645.285 183.061 610.457 180.717 574.121C178.543 540.329 186.088 504.182 204.701 475.788C225.721 443.721 256.26 422.635 290.938 408.405C356.091 381.67 438.255 380.765 493.91 428.969C541.093 469.837 554.134 539.536 542.512 598.971C529.811 663.912 481.713 715.976 428.222 750.224C399.94 768.332 368.813 782.128 337.227 793.054C300.709 805.686 262.438 813.564 223.92 815.946C155.456 820.177 82.7291 803.285 26.8108 761.632C-2.41928 739.857 -26.6878 713.355 -45.342 681.632C-63.2086 651.243 -75.7733 617.378 -85.2825 583.4C-105.489 511.203 -116.037 435.331 -119.937 360.467C-123.916 284.047 -119.324 207.528 -107.646 131.961C-102.139 96.3461 -94.7886 61.0491 -85.7041 26.1999C-81.1593 8.75792 -61.3599 -3.63033 -44.0314 2.05629C-26.4277 7.83258 -15.4378 25.7775 -20.3103 44.4752C-29.8107 80.9248 -37.4142 117.867 -42.9983 155.148C-43.6713 159.654 -44.2951 164.165 -44.9387 168.677C-46.1623 177.249 -43.9747 160.765 -45.0362 169.357C-45.2407 171.002 -45.4501 172.643 -45.6497 174.288C-46.8572 184.156 -47.9272 194.043 -48.8595 203.94C-50.6465 222.914 -51.9275 241.938 -52.7024 260.981C-54.2187 298.242 -53.7895 335.581 -51.4199 372.798C-50.2601 390.988 -48.6337 409.154 -46.5455 427.259C-45.9801 432.149 -45.6846 437.229 -44.7311 442.058C-46.3565 433.819 -45.2413 438.319 -44.9689 440.279C-44.6223 442.738 -44.2855 445.203 -43.934 447.663C-42.5182 457.503 -40.9598 467.322 -39.2689 477.112C-33.2766 511.759 -25.948 546.385 -15.5157 579.952C-13.095 587.746 -10.4827 595.479 -7.64459 603.126C-6.35855 606.59 -4.99396 610.024 -3.64408 613.463C-0.766985 620.796 -6.87975 606.211 -3.65893 613.388C-2.45236 616.072 -1.28994 618.771 -0.0489908 621.44C6.72697 636.039 14.5832 650.138 23.7599 663.309C25.0097 665.103 26.3087 666.862 27.583 668.64C31.9276 674.696 23.7951 663.989 26.9286 667.746C29.5063 670.839 32.0005 673.991 34.6714 677.004C40.2396 683.298 46.1807 689.252 52.4358 694.836C55.0421 697.158 57.7269 699.376 60.397 701.613C66.1502 706.437 54.0397 696.98 60.1167 701.373C61.5278 702.392 62.9143 703.451 64.3303 704.464C70.8448 709.137 77.5997 713.466 84.5408 717.443C91.2018 721.262 98.0343 724.759 105.009 727.942C105.643 728.231 106.282 728.516 106.916 728.805C110.244 730.267 109.467 729.942 104.581 727.827C106.154 728.086 107.933 729.204 109.437 729.792C113.664 731.458 117.93 733.013 122.235 734.459C136.807 739.348 151.79 742.972 166.958 745.336C167.646 745.44 168.334 745.544 169.027 745.649C172.717 746.175 171.783 746.051 166.221 745.272C168.141 744.92 171.159 745.851 173.109 746.044C177.124 746.45 181.147 746.771 185.176 747.006C194.83 747.581 204.508 747.695 214.176 747.379C223.044 747.089 231.896 746.44 240.713 745.46C242.717 745.238 244.721 744.965 246.725 744.738C251.937 744.137 238.105 746.133 246.116 744.804C251.303 743.943 256.49 743.112 261.657 742.101C279.555 738.611 297.206 733.866 314.522 728.082C322.709 725.347 330.826 722.383 338.85 719.194C341.968 717.955 345.047 716.612 348.165 715.363C338.703 719.149 345.499 716.501 347.483 715.609C349.948 714.501 352.403 713.373 354.843 712.215C368.287 705.845 381.386 698.7 393.939 690.665C400.184 686.667 406.291 682.45 412.23 677.993C413.963 676.696 419.421 672 411.754 678.464C412.78 677.598 413.85 676.781 414.886 675.93C418.503 672.956 422.052 669.886 425.502 666.717C430.655 661.986 435.616 657.035 440.337 651.854C442.8 649.151 445.204 646.388 447.535 643.56C448.737 642.104 449.889 640.147 451.278 638.886C445.339 644.263 448.81 642.199 450.768 639.476C455.05 633.511 459.007 627.306 462.602 620.886C464.411 617.654 466.122 614.366 467.739 611.034C468.396 609.678 469.038 608.313 469.656 606.937C473.385 598.632 467.608 612.705 469.616 607.057C471.791 600.934 473.847 594.816 475.403 588.488C476.112 585.612 476.743 582.716 477.294 579.81C477.627 578.06 477.895 576.304 478.207 574.549C479.379 567.986 477.347 582.875 477.964 576.664C478.61 570.158 479.07 563.666 479.053 557.126C479.049 553.575 478.927 550.025 478.692 546.485C478.468 543.095 476.244 531.111 478.635 543.354C477.4 537.02 476.449 530.73 474.748 524.491C473.988 521.697 473.145 518.928 472.218 516.188C471.666 514.549 471.085 512.924 470.474 511.31C467.606 503.732 472.054 514.493 470.957 512.389C468.185 507.077 465.762 501.664 462.583 496.567C460.914 493.888 453.408 484.87 461.125 493.808C458.912 491.24 456.88 488.552 454.568 486.059C452.453 483.776 450.24 481.588 447.939 479.501C446.886 478.547 445.795 477.638 444.732 476.699C439.82 472.344 451.625 481.602 446.212 477.857C443.72 476.135 441.266 474.392 438.685 472.815C436.857 471.697 434.989 470.634 433.101 469.621C431.39 468.703 426.53 467.383 425.438 465.884C425.846 466.443 433.184 468.806 427.645 466.927C425.635 466.244 423.659 465.471 421.634 464.813C417.924 463.612 414.16 462.591 410.361 461.725C406.681 460.884 402.357 460.819 398.824 459.587C400.411 459.811 401.998 460.034 403.585 460.257C402.165 460.094 400.74 459.945 399.315 459.822C397.173 459.629 395.021 459.487 392.874 459.379C384.945 458.983 376.986 459.141 369.072 459.75C365.801 460.004 361.489 461.364 358.271 460.862C359.842 460.645 361.409 460.429 362.981 460.217C361.552 460.428 360.122 460.655 358.698 460.892C355.854 461.37 353.02 461.898 350.196 462.476C342.819 463.99 335.501 465.833 328.296 468.036C325.04 469.03 321.804 470.098 318.592 471.242C316.667 471.929 314.747 472.641 312.842 473.389C310.19 474.427 305.806 477.617 313.382 473.033C307.049 476.865 299.893 479.429 293.496 483.276C290.035 485.36 286.648 487.569 283.359 489.923C282.279 490.694 281.224 491.611 280.114 492.312C288.642 486.932 281.199 491.496 279.182 493.268C276.669 495.481 274.245 497.794 271.909 500.197C269.421 502.76 266.847 507.388 263.941 509.287C267.927 506.682 267.585 504.162 265.589 507.17C264.456 508.876 263.274 510.533 262.185 512.264C260.022 515.697 258.042 519.249 256.253 522.902C255.405 524.638 254.768 526.764 253.738 528.385C258.407 521.029 255.34 524.498 254.253 527.599C253.156 530.741 252.192 533.927 251.351 537.149C250.338 541.03 249.645 544.947 248.868 548.878C247.754 554.535 249.233 546.202 249.223 545.662C249.275 548.277 248.654 551.063 248.49 553.689C248.017 561.145 248.103 568.636 248.677 576.081C248.806 577.791 248.965 579.501 249.149 581.206C249.487 584.381 251.317 587.425 248.832 579.221C250.203 583.75 250.445 588.916 251.481 593.565C253.007 600.414 254.881 607.178 257.06 613.836C258.376 617.85 259.8 621.829 261.328 625.768C261.643 626.583 264.048 633.216 261.993 627.523C259.913 621.759 263.194 630.102 263.667 631.131C270.596 646.19 279.125 660.368 288.572 673.919C290.747 677.037 292.966 680.12 295.225 683.173C295.677 683.782 296.13 684.392 296.587 685.001C298.801 687.944 298.413 687.43 295.417 683.462C296.091 685.022 297.862 686.605 298.924 687.949C304.351 694.804 309.954 701.508 315.674 708.108C327.165 721.357 339.127 734.16 351.148 746.908C400.15 798.886 448.845 851.818 474.068 920.443C495.212 977.967 491.422 1042.31 463.68 1096.75C441.209 1140.83 402.697 1175.79 360.538 1199.82C315.418 1225.54 265.708 1240.05 214.667 1246.81C192.499 1249.74 170.089 1250.86 147.749 1249.69C122.368 1248.35 96.1407 1245.04 72.0247 1236.6C40.9741 1225.74 9.37913 1206.81 -5.33453 1175.51C-24.3963 1134.96 -14.8767 1089.15 13.5117 1055.92C36.0567 1029.52 71.1366 1014.45 105.166 1013.52C140.841 1012.54 175.695 1028.87 201.244 1053.57C227.998 1079.44 242.622 1114.29 246.853 1151.13C250.737 1184.93 242.423 1218.78 228.347 1249.23C198.499 1313.82 138.177 1355.22 73.5507 1377.78C38.3154 1390.08 1.33486 1396.77 -35.629 1400.82C-71.576 1404.75 -107.925 1404.88 -143.905 1401.26C-181.349 1397.5 -218.374 1390.53 -254.387 1379.4C-271.337 1374.17 -283.836 1355.06 -278.113 1336.98C-272.6 1319.58 -254.614 1307.23 -236.44 1312.84Z"/>
</mask>
<path d="M-236.44 1312.84C-218.753 1318.31 -200.817 1322.88 -182.66 1326.43C-173.978 1328.13 -165.256 1329.55 -156.51 1330.87C-154.21 1331.21 -151.089 1332.71 -158.357 1330.62C-156.161 1331.25 -153.449 1331.23 -151.179 1331.49C-146.388 1332.04 -141.588 1332.53 -136.788 1332.94C-100.764 1336.06 -64.4207 1335.43 -28.5283 1330.99C-26.5193 1330.74 -18.6167 1329.01 -27.9782 1330.96C-26.4261 1330.64 -24.7805 1330.5 -23.2087 1330.25C-18.4392 1329.53 -13.6845 1328.73 -8.9398 1327.87C-0.152698 1326.28 8.59487 1324.45 17.2881 1322.37C33.8445 1318.41 50.1985 1313.52 66.0992 1307.36C68.2156 1306.54 70.3075 1305.66 72.419 1304.83C75.3556 1303.67 75.9859 1304.98 70.5826 1305.66C74.4386 1305.18 79.4064 1301.65 82.9023 1299.91C90.341 1296.22 97.6173 1292.21 104.682 1287.83C111.373 1283.68 117.499 1278.79 124.033 1274.44C115.094 1280.39 123.866 1274.44 126.08 1272.49C129.481 1269.51 132.784 1266.41 135.978 1263.21C140.797 1258.36 145.37 1253.28 149.688 1247.97C150.698 1246.73 151.615 1245.28 152.729 1244.14C146.183 1250.86 150.517 1247.07 152.101 1244.84C154.372 1241.65 156.545 1238.39 158.62 1235.07C162.406 1229 165.862 1222.72 168.935 1216.25C169.769 1214.49 170.543 1212.71 171.351 1210.94C172.474 1208.47 172.054 1206.21 170.175 1213.81C171.163 1209.82 173.134 1205.9 174.363 1201.95C176.365 1195.52 177.964 1188.96 179.116 1182.32C179.609 1179.47 179.367 1173.49 179.03 1183.89C179.091 1181.99 179.448 1180.06 179.598 1178.16C179.899 1174.33 180.042 1170.49 180.023 1166.65C180.004 1163.43 179.873 1160.22 179.629 1157.01C179.479 1155.1 179.109 1153.14 179.053 1151.23C179.369 1161.5 179.627 1155.56 179.094 1152.69C177.769 1145.51 175.84 1138.44 173.337 1131.59L172.623 1129.69C171.278 1126.3 171.642 1127.15 173.711 1132.24C172.678 1130.81 172.062 1128.61 171.259 1127.02C169.821 1124.16 168.266 1121.35 166.597 1118.61C165.593 1116.98 164.55 1115.36 163.473 1113.77C162.897 1112.92 158.976 1107.85 162.754 1112.58C166.562 1117.35 162.464 1112.3 161.834 1111.55C160.191 1109.59 158.489 1107.68 156.724 1105.83C154.52 1103.52 152.223 1101.3 149.843 1099.18C148.447 1097.94 146.76 1096.82 145.472 1095.48C151.261 1101.53 149.425 1098.56 147.021 1096.85C140.998 1092.57 134.446 1089.75 128.144 1086.07C136.285 1090.83 132.012 1087.73 129.245 1086.75C127.471 1086.12 125.682 1085.54 123.874 1085.01C120.851 1084.13 117.785 1083.53 114.724 1082.83C107.849 1081.24 123.317 1083.46 116.267 1082.97C115.029 1082.88 113.795 1082.74 112.552 1082.66C108.253 1082.4 104.024 1082.64 99.7352 1082.86C97.1218 1082.99 94.5934 1084.5 103.282 1082.28C101.523 1082.73 99.6418 1082.88 97.8639 1083.27C94.8678 1083.91 91.9063 1084.7 88.9842 1085.63C87.231 1086.19 85.5173 1086.87 83.7788 1087.46C77.2719 1089.71 91.2765 1083.8 85.1095 1086.89C81.8149 1088.53 78.5645 1090.24 75.4373 1092.2C73.8761 1093.18 72.3986 1094.28 70.8522 1095.27C66.3799 1098.16 72.9628 1093.58 73.3161 1093.2C70.8332 1095.84 67.7356 1097.99 65.1888 1100.61C63.0836 1102.78 61.313 1105.41 59.1685 1107.51C65.5874 1101.22 61.945 1103.79 60.199 1106.48C59.1985 1108.02 58.252 1109.59 57.3548 1111.2C56.4575 1112.81 55.6881 1114.48 54.8351 1116.12C51.6731 1122.19 57.2973 1108.1 55.4181 1114.73C54.3366 1118.54 53.2747 1122.29 52.2767 1126.13C50.2661 1133.86 52.2927 1118.35 52.2376 1126.34C52.2206 1128.71 52.0267 1131.05 52.103 1133.42C52.1487 1134.79 52.6177 1136.88 52.4127 1138.13C51.6406 1132.86 51.5956 1132.13 52.2826 1135.94C52.6135 1137.48 52.9983 1139 53.4421 1140.51C53.8662 1141.96 54.4032 1143.35 54.8764 1144.78C56.2714 1149 50.7752 1136.61 53.896 1142.22C55.2743 1144.69 56.8762 1149.53 59.2361 1151.17C59.2116 1151.15 53.4413 1144.25 57.0911 1148.31C58.2519 1149.61 59.3489 1150.95 60.549 1152.21C62.9836 1154.76 65.6733 1156.95 68.2747 1159.31C59.7967 1151.62 68.8693 1159.45 71.5781 1161.12C74.1442 1162.72 76.7791 1164.2 79.458 1165.59C81.0851 1166.43 82.7513 1167.18 84.3833 1168C89.2397 1170.44 81.7144 1166.87 81.3311 1166.75C85.4199 1168.02 89.3669 1169.91 93.4558 1171.24C104.926 1174.96 116.68 1177.34 128.566 1179.16C134.457 1180.07 119.112 1177.98 125.053 1178.69C126.207 1178.83 127.367 1178.98 128.522 1179.11C131.091 1179.4 133.661 1179.66 136.24 1179.89C141.719 1180.37 147.211 1180.71 152.704 1180.92C163.768 1181.33 174.856 1181.19 185.909 1180.56C191.435 1180.24 196.952 1179.8 202.458 1179.24C204.983 1178.98 207.503 1178.7 210.018 1178.39C211.536 1178.21 213.044 1178 214.562 1177.81C202.738 1179.24 209.06 1178.58 211.614 1178.19C234.529 1174.74 257.16 1169.25 279.092 1161.65C284.445 1159.8 289.758 1157.81 295.023 1155.7C297.409 1154.75 299.766 1153.73 302.143 1152.75C290.235 1157.65 302.437 1152.52 305.256 1151.19C315.336 1146.42 325.18 1141.13 334.695 1135.28C339.383 1132.39 343.993 1129.37 348.509 1126.2C350.547 1124.77 352.564 1123.31 354.557 1121.82C355.75 1120.93 356.928 1120.03 358.116 1119.12C362.828 1115.54 351.632 1124.39 355.917 1120.84C364.59 1113.65 372.894 1106.08 380.524 1097.73C384.125 1093.8 387.52 1089.69 390.856 1085.52C392.333 1083.68 394.305 1080.45 388.207 1089.05C389.046 1087.87 389.929 1086.72 390.773 1085.54C392.455 1083.18 394.084 1080.78 395.658 1078.34C398.547 1073.87 401.244 1069.28 403.739 1064.58C404.877 1062.43 405.97 1060.26 407.023 1058.07C408.464 1055.07 412.789 1043.28 408.332 1055.59C412.089 1045.21 415.532 1034.93 417.701 1024.05C418.204 1021.54 418.648 1019.01 419.043 1016.47C419.468 1013.73 419.736 1007.71 418.698 1019.47C418.834 1017.9 419.058 1016.34 419.209 1014.77C419.864 1007.97 420.166 1001.13 420.06 994.297C420.002 990.306 419.806 986.316 419.473 982.336C419.323 980.536 419.1 978.741 418.936 976.941C418.484 971.956 420.454 985.995 419.149 978.606C417.632 970.056 415.903 961.637 413.462 953.304C412.446 949.835 411.342 946.391 410.159 942.971C409.025 939.697 405.502 934.131 405.542 930.75C405.533 931.385 408.921 938.407 406.409 932.954C405.493 930.965 404.622 928.956 403.691 926.972C401.825 922.988 399.855 919.06 397.807 915.172C389.886 900.134 380.688 885.807 370.705 872.107C369.835 870.912 368.944 869.733 368.078 868.539C363.463 862.198 372.885 874.614 368.029 868.469C365.525 865.296 363.031 862.114 360.472 858.981C355.037 852.327 349.424 845.822 343.723 839.397C320.924 813.725 296.599 789.503 273.796 763.831C250.269 737.343 227.246 709 210.705 677.35C193.941 645.285 183.061 610.457 180.717 574.121C178.543 540.329 186.088 504.182 204.701 475.788C225.721 443.721 256.26 422.635 290.938 408.405C356.091 381.67 438.255 380.765 493.91 428.969C541.093 469.837 554.134 539.536 542.512 598.971C529.811 663.912 481.713 715.976 428.222 750.224C399.94 768.332 368.813 782.128 337.227 793.054C300.709 805.686 262.438 813.564 223.92 815.946C155.456 820.177 82.7291 803.285 26.8108 761.632C-2.41928 739.857 -26.6878 713.355 -45.342 681.632C-63.2086 651.243 -75.7733 617.378 -85.2825 583.4C-105.489 511.203 -116.037 435.331 -119.937 360.467C-123.916 284.047 -119.324 207.528 -107.646 131.961C-102.139 96.3461 -94.7886 61.0491 -85.7041 26.1999C-81.1593 8.75792 -61.3599 -3.63033 -44.0314 2.05629C-26.4277 7.83258 -15.4378 25.7775 -20.3103 44.4752C-29.8107 80.9248 -37.4142 117.867 -42.9983 155.148C-43.6713 159.654 -44.2951 164.165 -44.9387 168.677C-46.1623 177.249 -43.9747 160.765 -45.0362 169.357C-45.2407 171.002 -45.4501 172.643 -45.6497 174.288C-46.8572 184.156 -47.9272 194.043 -48.8595 203.94C-50.6465 222.914 -51.9275 241.938 -52.7024 260.981C-54.2187 298.242 -53.7895 335.581 -51.4199 372.798C-50.2601 390.988 -48.6337 409.154 -46.5455 427.259C-45.9801 432.149 -45.6846 437.229 -44.7311 442.058C-46.3565 433.819 -45.2413 438.319 -44.9689 440.279C-44.6223 442.738 -44.2855 445.203 -43.934 447.663C-42.5182 457.503 -40.9598 467.322 -39.2689 477.112C-33.2766 511.759 -25.948 546.385 -15.5157 579.952C-13.095 587.746 -10.4827 595.479 -7.64459 603.126C-6.35855 606.59 -4.99396 610.024 -3.64408 613.463C-0.766985 620.796 -6.87975 606.211 -3.65893 613.388C-2.45236 616.072 -1.28994 618.771 -0.0489908 621.44C6.72697 636.039 14.5832 650.138 23.7599 663.309C25.0097 665.103 26.3087 666.862 27.583 668.64C31.9276 674.696 23.7951 663.989 26.9286 667.746C29.5063 670.839 32.0005 673.991 34.6714 677.004C40.2396 683.298 46.1807 689.252 52.4358 694.836C55.0421 697.158 57.7269 699.376 60.397 701.613C66.1502 706.437 54.0397 696.98 60.1167 701.373C61.5278 702.392 62.9143 703.451 64.3303 704.464C70.8448 709.137 77.5997 713.466 84.5408 717.443C91.2018 721.262 98.0343 724.759 105.009 727.942C105.643 728.231 106.282 728.516 106.916 728.805C110.244 730.267 109.467 729.942 104.581 727.827C106.154 728.086 107.933 729.204 109.437 729.792C113.664 731.458 117.93 733.013 122.235 734.459C136.807 739.348 151.79 742.972 166.958 745.336C167.646 745.44 168.334 745.544 169.027 745.649C172.717 746.175 171.783 746.051 166.221 745.272C168.141 744.92 171.159 745.851 173.109 746.044C177.124 746.45 181.147 746.771 185.176 747.006C194.83 747.581 204.508 747.695 214.176 747.379C223.044 747.089 231.896 746.44 240.713 745.46C242.717 745.238 244.721 744.965 246.725 744.738C251.937 744.137 238.105 746.133 246.116 744.804C251.303 743.943 256.49 743.112 261.657 742.101C279.555 738.611 297.206 733.866 314.522 728.082C322.709 725.347 330.826 722.383 338.85 719.194C341.968 717.955 345.047 716.612 348.165 715.363C338.703 719.149 345.499 716.501 347.483 715.609C349.948 714.501 352.403 713.373 354.843 712.215C368.287 705.845 381.386 698.7 393.939 690.665C400.184 686.667 406.291 682.45 412.23 677.993C413.963 676.696 419.421 672 411.754 678.464C412.78 677.598 413.85 676.781 414.886 675.93C418.503 672.956 422.052 669.886 425.502 666.717C430.655 661.986 435.616 657.035 440.337 651.854C442.8 649.151 445.204 646.388 447.535 643.56C448.737 642.104 449.889 640.147 451.278 638.886C445.339 644.263 448.81 642.199 450.768 639.476C455.05 633.511 459.007 627.306 462.602 620.886C464.411 617.654 466.122 614.366 467.739 611.034C468.396 609.678 469.038 608.313 469.656 606.937C473.385 598.632 467.608 612.705 469.616 607.057C471.791 600.934 473.847 594.816 475.403 588.488C476.112 585.612 476.743 582.716 477.294 579.81C477.627 578.06 477.895 576.304 478.207 574.549C479.379 567.986 477.347 582.875 477.964 576.664C478.61 570.158 479.07 563.666 479.053 557.126C479.049 553.575 478.927 550.025 478.692 546.485C478.468 543.095 476.244 531.111 478.635 543.354C477.4 537.02 476.449 530.73 474.748 524.491C473.988 521.697 473.145 518.928 472.218 516.188C471.666 514.549 471.085 512.924 470.474 511.31C467.606 503.732 472.054 514.493 470.957 512.389C468.185 507.077 465.762 501.664 462.583 496.567C460.914 493.888 453.408 484.87 461.125 493.808C458.912 491.24 456.88 488.552 454.568 486.059C452.453 483.776 450.24 481.588 447.939 479.501C446.886 478.547 445.795 477.638 444.732 476.699C439.82 472.344 451.625 481.602 446.212 477.857C443.72 476.135 441.266 474.392 438.685 472.815C436.857 471.697 434.989 470.634 433.101 469.621C431.39 468.703 426.53 467.383 425.438 465.884C425.846 466.443 433.184 468.806 427.645 466.927C425.635 466.244 423.659 465.471 421.634 464.813C417.924 463.612 414.16 462.591 410.361 461.725C406.681 460.884 402.357 460.819 398.824 459.587C400.411 459.811 401.998 460.034 403.585 460.257C402.165 460.094 400.74 459.945 399.315 459.822C397.173 459.629 395.021 459.487 392.874 459.379C384.945 458.983 376.986 459.141 369.072 459.75C365.801 460.004 361.489 461.364 358.271 460.862C359.842 460.645 361.409 460.429 362.981 460.217C361.552 460.428 360.122 460.655 358.698 460.892C355.854 461.37 353.02 461.898 350.196 462.476C342.819 463.99 335.501 465.833 328.296 468.036C325.04 469.03 321.804 470.098 318.592 471.242C316.667 471.929 314.747 472.641 312.842 473.389C310.19 474.427 305.806 477.617 313.382 473.033C307.049 476.865 299.893 479.429 293.496 483.276C290.035 485.36 286.648 487.569 283.359 489.923C282.279 490.694 281.224 491.611 280.114 492.312C288.642 486.932 281.199 491.496 279.182 493.268C276.669 495.481 274.245 497.794 271.909 500.197C269.421 502.76 266.847 507.388 263.941 509.287C267.927 506.682 267.585 504.162 265.589 507.17C264.456 508.876 263.274 510.533 262.185 512.264C260.022 515.697 258.042 519.249 256.253 522.902C255.405 524.638 254.768 526.764 253.738 528.385C258.407 521.029 255.34 524.498 254.253 527.599C253.156 530.741 252.192 533.927 251.351 537.149C250.338 541.03 249.645 544.947 248.868 548.878C247.754 554.535 249.233 546.202 249.223 545.662C249.275 548.277 248.654 551.063 248.49 553.689C248.017 561.145 248.103 568.636 248.677 576.081C248.806 577.791 248.965 579.501 249.149 581.206C249.487 584.381 251.317 587.425 248.832 579.221C250.203 583.75 250.445 588.916 251.481 593.565C253.007 600.414 254.881 607.178 257.06 613.836C258.376 617.85 259.8 621.829 261.328 625.768C261.643 626.583 264.048 633.216 261.993 627.523C259.913 621.759 263.194 630.102 263.667 631.131C270.596 646.19 279.125 660.368 288.572 673.919C290.747 677.037 292.966 680.12 295.225 683.173C295.677 683.782 296.13 684.392 296.587 685.001C298.801 687.944 298.413 687.43 295.417 683.462C296.091 685.022 297.862 686.605 298.924 687.949C304.351 694.804 309.954 701.508 315.674 708.108C327.165 721.357 339.127 734.16 351.148 746.908C400.15 798.886 448.845 851.818 474.068 920.443C495.212 977.967 491.422 1042.31 463.68 1096.75C441.209 1140.83 402.697 1175.79 360.538 1199.82C315.418 1225.54 265.708 1240.05 214.667 1246.81C192.499 1249.74 170.089 1250.86 147.749 1249.69C122.368 1248.35 96.1407 1245.04 72.0247 1236.6C40.9741 1225.74 9.37913 1206.81 -5.33453 1175.51C-24.3963 1134.96 -14.8767 1089.15 13.5117 1055.92C36.0567 1029.52 71.1366 1014.45 105.166 1013.52C140.841 1012.54 175.695 1028.87 201.244 1053.57C227.998 1079.44 242.622 1114.29 246.853 1151.13C250.737 1184.93 242.423 1218.78 228.347 1249.23C198.499 1313.82 138.177 1355.22 73.5507 1377.78C38.3154 1390.08 1.33486 1396.77 -35.629 1400.82C-71.576 1404.75 -107.925 1404.88 -143.905 1401.26C-181.349 1397.5 -218.374 1390.53 -254.387 1379.4C-271.337 1374.17 -283.836 1355.06 -278.113 1336.98C-272.6 1319.58 -254.614 1307.23 -236.44 1312.84Z" fill="#D3ECF2" stroke="#D3ECF2" stroke-width="30" mask="url(#path-1-inside-1_67_23)"/>
</svg>
