<svg width="657" height="1402" viewBox="0 0 657 1402" fill="none" xmlns="http://www.w3.org/2000/svg">
<mask id="path-1-inside-1_193_591" fill="white">
<path d="M678.456 1326.12C660.188 1329.18 641.791 1331.33 623.311 1332.44C614.474 1332.97 605.635 1333.22 596.786 1333.36C594.459 1333.4 591.164 1334.47 598.652 1333.36C596.389 1333.69 593.702 1333.31 591.415 1333.27C586.591 1333.18 581.766 1333.02 576.95 1332.8C540.806 1331.1 504.844 1325.64 469.835 1316.47C467.876 1315.96 460.268 1313.19 469.294 1316.37C467.797 1315.84 466.184 1315.48 464.657 1315.03C460.023 1313.68 455.413 1312.26 450.821 1310.78C442.318 1308.03 433.884 1305.06 425.538 1301.84C409.643 1295.72 394.074 1288.69 379.121 1280.47C377.13 1279.38 375.172 1278.23 373.189 1277.13C370.43 1275.59 369.631 1276.8 374.9 1278.19C371.139 1277.2 366.681 1273.04 363.444 1270.86C356.556 1266.21 349.873 1261.27 343.448 1255.99C337.362 1250.99 331.936 1245.32 326.032 1240.15C334.11 1247.23 326.199 1240.16 324.262 1237.94C321.284 1234.54 318.42 1231.03 315.678 1227.42C311.541 1221.99 307.68 1216.34 304.104 1210.51C303.267 1209.14 302.549 1207.58 301.596 1206.3C307.196 1213.83 303.402 1209.5 302.127 1207.08C300.297 1203.61 298.575 1200.1 296.959 1196.53C294.01 1190.01 291.415 1183.33 289.227 1176.51C288.634 1174.65 288.103 1172.78 287.536 1170.92C286.75 1168.33 287.468 1166.14 288.321 1173.92C287.872 1169.83 286.437 1165.69 285.743 1161.61C284.612 1154.97 283.896 1148.26 283.636 1141.53C283.525 1138.64 284.56 1132.74 283.513 1143.1C283.704 1141.21 283.607 1139.25 283.71 1137.34C283.921 1133.51 284.29 1129.68 284.819 1125.87C285.264 1122.69 285.821 1119.52 286.489 1116.37C286.891 1114.5 287.519 1112.61 287.829 1110.72C286.151 1120.85 286.683 1114.94 287.594 1112.16C289.861 1105.22 292.712 1098.48 296.105 1092.02L297.066 1090.23C298.85 1087.05 298.376 1087.84 295.648 1092.61C296.862 1091.34 297.766 1089.23 298.773 1087.76C300.58 1085.12 302.495 1082.54 304.513 1080.05C305.727 1078.56 306.976 1077.1 308.256 1075.66C308.939 1074.9 313.502 1070.4 309.126 1074.59C304.716 1078.81 309.451 1074.35 310.175 1073.69C312.066 1071.96 314.007 1070.3 316.004 1068.69C318.497 1066.69 321.069 1064.8 323.711 1063.02C325.261 1061.98 327.082 1061.09 328.539 1059.93C321.993 1065.16 324.209 1062.46 326.82 1061.08C333.363 1057.64 340.235 1055.72 346.975 1052.91C338.268 1056.55 342.917 1054.05 345.792 1053.44C347.635 1053.05 349.486 1052.71 351.35 1052.43C354.465 1051.96 357.586 1051.77 360.715 1051.48C367.745 1050.82 352.109 1050.96 359.167 1051.41C360.407 1051.49 361.648 1051.52 362.891 1051.6C367.19 1051.92 371.352 1052.72 375.577 1053.5C378.152 1053.98 380.459 1055.81 372.137 1052.45C373.821 1053.14 375.666 1053.54 377.379 1054.16C380.265 1055.19 383.098 1056.37 385.872 1057.68C387.536 1058.47 389.147 1059.36 390.792 1060.19C396.947 1063.28 383.842 1055.56 389.548 1059.44C392.597 1061.51 395.595 1063.63 398.435 1065.99C399.854 1067.17 401.174 1068.45 402.575 1069.65C406.627 1073.1 400.707 1067.68 400.407 1067.26C402.518 1070.21 405.306 1072.75 407.483 1075.69C409.283 1078.12 410.69 1080.96 412.538 1083.32C407.007 1076.24 410.278 1079.27 411.653 1082.17C412.44 1083.83 413.17 1085.51 413.847 1087.22C414.523 1088.94 415.064 1090.7 415.693 1092.43C418.022 1098.87 414.316 1084.16 415.299 1090.98C415.866 1094.9 416.42 1098.76 416.901 1102.69C417.868 1110.62 417.918 1094.98 416.912 1102.91C416.614 1105.26 416.495 1107.6 416.104 1109.95C415.877 1111.3 415.135 1113.3 415.172 1114.57C416.637 1109.45 416.779 1108.74 415.592 1112.42C415.059 1113.9 414.475 1115.36 413.834 1116.8C413.222 1118.17 412.504 1119.48 411.845 1120.83C409.901 1124.83 416.997 1113.29 413.158 1118.42C411.462 1120.69 409.231 1125.28 406.672 1126.59C406.699 1126.57 413.338 1120.5 409.179 1124.04C407.856 1125.17 406.59 1126.35 405.232 1127.44C402.478 1129.65 399.52 1131.46 396.626 1133.46C406.057 1126.96 396.018 1133.51 393.109 1134.81C390.352 1136.05 387.542 1137.17 384.701 1138.19C382.975 1138.81 381.223 1139.33 379.495 1139.93C374.355 1141.69 382.292 1139.16 382.688 1139.1C378.465 1139.8 374.299 1141.16 370.067 1141.93C358.196 1144.09 346.223 1144.89 334.192 1145.12C328.229 1145.23 343.725 1145.2 337.739 1145.12C336.575 1145.1 335.406 1145.09 334.243 1145.07C331.655 1145.02 329.072 1144.94 326.484 1144.82C320.986 1144.57 315.493 1144.17 310.018 1143.65C298.99 1142.59 288.011 1140.98 277.132 1138.88C271.693 1137.83 266.28 1136.66 260.894 1135.37C258.424 1134.78 255.962 1134.17 253.508 1133.53C252.028 1133.14 250.56 1132.73 249.079 1132.35C260.616 1135.33 254.434 1133.84 251.952 1133.12C229.683 1126.65 207.966 1118.2 187.223 1107.75C182.161 1105.2 177.154 1102.53 172.213 1099.74C169.973 1098.47 167.771 1097.15 165.543 1095.87C176.703 1102.31 165.281 1095.61 162.663 1093.91C153.298 1087.85 144.237 1081.29 135.578 1074.22C131.311 1070.74 127.141 1067.13 123.083 1063.39C121.252 1061.7 119.445 1059.99 117.666 1058.25C116.601 1057.21 115.553 1056.15 114.495 1055.1C110.296 1050.93 120.226 1061.19 116.447 1057.1C108.801 1048.82 101.571 1040.21 95.1111 1030.92C92.0615 1026.54 89.2393 1022.03 86.4843 1017.45C85.265 1015.42 83.7385 1011.96 88.643 1021.3C87.968 1020.02 87.2451 1018.76 86.5652 1017.48C85.2102 1014.91 83.9135 1012.32 82.6758 1009.7C80.4043 1004.88 78.3395 999.972 76.4891 994.978C75.6461 992.7 74.8497 990.407 74.0955 988.096C73.0657 984.924 70.3415 972.668 73.1269 985.462C70.7804 974.67 68.7308 964.029 68.0242 952.959C67.8591 950.399 67.7547 947.831 67.6995 945.266C67.6427 942.493 68.1761 936.49 67.6443 948.281C67.7175 946.711 67.703 945.13 67.7616 943.559C68.0145 936.731 68.623 929.915 69.6358 923.155C70.2238 919.208 70.9481 915.279 71.8075 911.379C72.1947 909.615 72.6543 907.865 73.0561 906.103C74.1671 901.223 70.3479 914.875 72.6237 907.725C75.2644 899.453 78.0972 891.339 81.625 883.405C83.0932 880.101 84.6459 876.835 86.2731 873.603C87.8322 870.509 92.0664 865.46 92.4752 862.105C92.3999 862.735 88.1073 869.244 91.3225 864.174C92.4951 862.324 93.6266 860.449 94.8132 858.606C97.1933 854.906 99.6684 851.275 102.216 847.693C112.07 833.842 123.095 820.866 134.816 808.614C135.838 807.546 136.878 806.496 137.895 805.428C143.315 799.757 132.321 810.81 137.953 805.365C140.858 802.553 143.755 799.731 146.708 796.966C152.983 791.093 159.414 785.392 165.921 779.783C191.943 757.369 219.286 736.597 245.313 714.184C272.165 691.06 298.764 666.03 319.374 636.86C340.259 607.309 355.676 574.239 362.827 538.538C369.471 505.336 366.789 468.508 352.099 437.894C335.51 403.319 308.021 378.362 275.517 359.65C214.449 324.494 133.077 312.675 71.4746 353.053C19.2503 387.285 -2.94146 454.629 0.69155 515.078C4.66396 581.129 45.4527 639.121 93.9576 680.174C119.603 701.88 148.643 719.69 178.52 734.717C213.061 752.089 249.972 764.984 287.859 772.465C355.201 785.758 429.576 778.683 490.569 744.833C522.452 727.137 550.042 704.098 572.756 675.137C594.513 647.394 611.473 615.5 625.417 583.089C655.047 514.222 675.586 440.428 689.396 366.75C703.493 291.541 709.101 215.093 707.555 138.648C706.823 102.619 704.222 66.6594 699.84 30.9136C697.649 13.0231 679.657 -1.88631 661.715 1.44636C643.488 4.83132 630.205 21.1557 632.554 40.3341C637.136 77.7215 639.77 115.345 640.357 153.036C640.426 157.591 640.446 162.145 640.485 166.702C640.56 175.36 640.58 158.732 640.491 167.389C640.476 169.047 640.466 170.7 640.445 172.358C640.332 182.297 640.08 192.239 639.69 202.172C638.943 221.214 637.686 240.239 635.926 259.215C632.481 296.345 627.096 333.294 619.803 369.864C616.236 387.738 612.211 405.526 607.735 423.191C606.525 427.963 605.557 432.958 603.97 437.618C606.676 429.668 604.972 433.979 604.442 435.886C603.772 438.278 603.11 440.676 602.435 443.067C599.724 452.631 596.874 462.155 593.897 471.633C583.352 505.175 571.484 538.518 556.679 570.399C553.243 577.801 549.625 585.118 545.794 592.321C544.059 595.583 542.249 598.805 540.454 602.033C536.626 608.918 544.626 595.276 540.478 601.961C538.925 604.461 537.414 606.981 535.829 609.461C527.169 623.03 517.505 635.958 506.654 647.792C505.176 649.404 503.654 650.974 502.154 652.568C497.04 657.992 506.528 648.462 502.922 651.769C499.954 654.491 497.062 657.284 494.013 659.915C487.654 665.413 480.971 670.524 474.025 675.227C471.132 677.182 468.174 679.023 465.229 680.885C458.882 684.902 472.15 677.138 465.539 680.685C464.004 681.507 462.488 682.372 460.949 683.188C453.867 686.954 446.593 690.346 439.18 693.365C432.067 696.264 424.826 698.823 417.485 701.05C416.818 701.252 416.146 701.449 415.479 701.652C411.985 702.658 412.798 702.44 417.924 700.993C416.331 701.04 414.417 701.912 412.847 702.295C408.434 703.384 403.996 704.359 399.534 705.219C384.433 708.128 369.091 709.728 353.733 710.055C353.037 710.067 352.341 710.079 351.64 710.09C347.91 710.121 348.852 710.122 354.472 710.089C352.614 709.485 349.498 710.007 347.538 709.939C343.503 709.808 339.469 709.591 335.442 709.289C325.791 708.575 316.176 707.402 306.63 705.804C297.873 704.338 289.18 702.518 280.565 700.375C278.607 699.888 276.655 699.352 274.698 698.86C269.609 697.572 283.062 701.388 275.293 699.006C270.263 697.464 265.229 695.951 260.238 694.262C242.95 688.424 226.074 681.376 209.668 673.341C201.912 669.543 194.254 665.526 186.72 661.299C183.791 659.657 180.916 657.916 177.989 656.264C186.872 661.274 180.483 657.746 178.634 656.599C176.336 655.173 174.051 653.729 171.784 652.257C159.296 644.156 147.253 635.334 135.87 625.702C130.208 620.91 124.711 615.919 119.412 610.712C117.866 609.197 113.076 603.817 119.822 611.242C118.919 610.247 117.966 609.296 117.052 608.315C113.859 604.886 110.748 601.373 107.747 597.773C103.264 592.399 99.0009 586.833 95.0073 581.071C92.9232 578.065 90.9056 575.007 88.9699 571.894C87.9711 570.291 87.088 568.199 85.878 566.764C91.0538 572.882 87.8853 570.375 86.3058 567.417C82.8508 560.935 79.7496 554.26 77.0377 547.42C75.6726 543.976 74.4123 540.49 73.2506 536.973C72.7792 535.542 72.3238 534.103 71.8941 532.657C69.2982 523.93 73.1584 538.645 71.9169 532.781C70.5734 526.424 69.3463 520.087 68.6442 513.609C68.3227 510.664 68.082 507.71 67.9205 504.757C67.8236 502.978 67.7907 501.202 67.7139 499.421C67.4232 492.762 67.4613 507.788 67.6743 501.55C67.8975 495.015 68.3038 488.521 69.1894 482.041C69.6648 478.523 70.2572 475.02 70.9602 471.543C71.6335 468.213 75.4308 456.631 71.433 468.448C73.4993 462.334 75.2771 456.227 77.7936 450.27C78.9181 447.601 80.1222 444.969 81.405 442.377C82.1703 440.825 82.9628 439.293 83.7832 437.774C87.6337 430.645 81.7928 440.719 83.1611 438.78C86.6157 433.883 89.7378 428.84 93.568 424.211C95.5785 421.778 104.221 413.839 95.3797 421.671C97.9162 419.42 100.288 417.026 102.912 414.863C105.313 412.881 107.799 411.007 110.359 409.244C111.529 408.438 112.733 407.682 113.911 406.893C119.362 403.23 106.423 410.836 112.289 407.845C114.99 406.469 117.655 405.068 120.424 403.848C122.386 402.983 124.38 402.177 126.387 401.424C128.206 400.741 133.201 400.079 134.484 398.739C134.004 399.239 126.413 400.605 132.156 399.479C134.241 399.069 136.303 398.566 138.399 398.183C142.238 397.486 146.107 396.974 149.99 396.621C153.752 396.277 158.048 396.787 161.716 396.036C160.113 396.046 158.509 396.057 156.905 396.067C158.335 396.094 159.768 396.136 161.198 396.203C163.348 396.297 165.501 396.442 167.645 396.62C175.562 397.281 183.435 398.497 191.203 400.152C194.414 400.838 198.51 402.759 201.768 402.69C200.238 402.266 198.713 401.843 197.182 401.424C198.572 401.824 199.959 402.238 201.341 402.662C204.098 403.514 206.838 404.414 209.563 405.362C216.679 407.843 223.692 410.642 230.545 413.783C233.642 415.201 236.71 416.69 239.744 418.251C241.562 419.188 243.371 420.149 245.162 421.142C247.654 422.524 251.578 426.268 244.674 420.718C250.446 425.358 257.202 428.85 263.036 433.513C266.192 436.039 269.258 438.678 272.207 441.448C273.176 442.356 274.101 443.404 275.108 444.247C267.365 437.781 274.141 443.294 275.906 445.318C278.104 447.846 280.202 450.46 282.199 453.152C284.326 456.023 286.265 460.952 288.895 463.22C285.287 460.109 285.961 457.657 287.541 460.903C288.438 462.745 289.391 464.543 290.241 466.404C291.93 470.094 293.423 473.878 294.712 477.736C295.322 479.569 295.671 481.76 296.477 483.504C292.824 475.593 295.404 479.439 296.071 482.657C296.742 485.916 297.275 489.203 297.682 492.507C298.17 496.489 298.338 500.462 298.586 504.462C298.94 510.216 298.579 501.761 298.661 501.227C298.262 503.812 298.508 506.656 298.322 509.28C297.801 516.733 296.72 524.145 295.163 531.448C294.807 533.125 294.422 534.799 294.014 536.464C293.257 539.566 291.037 542.339 294.591 534.539C292.63 538.846 291.705 543.933 290.059 548.403C287.636 554.988 284.879 561.443 281.833 567.752C279.995 571.555 278.054 575.31 276.016 579.01C275.595 579.776 272.329 586.03 275.123 580.661C277.951 575.225 273.589 583.057 272.984 584.014C264.111 598.018 253.769 610.936 242.599 623.11C240.028 625.911 237.418 628.672 234.772 631.397C234.242 631.941 233.712 632.485 233.178 633.029C230.591 635.651 231.045 635.193 234.543 631.659C233.667 633.115 231.701 634.449 230.468 635.639C224.176 641.712 217.729 647.612 211.178 653.392C198.022 664.996 184.457 676.095 170.842 687.132C115.337 732.133 60.0106 778.121 25.8788 842.782C-2.73205 896.982 -7.5187 961.259 12.7661 1018.89C29.1984 1065.57 62.7515 1105.34 101.374 1134.76C142.709 1166.24 190.085 1187.23 239.811 1200.71C261.408 1206.57 283.487 1210.65 305.799 1212.46C331.149 1214.51 357.602 1214.72 382.641 1209.56C414.881 1202.92 448.731 1188.36 467.482 1159.29C491.773 1121.64 488.416 1074.97 464.674 1038.26C445.819 1009.1 413.028 989.503 379.401 984.056C344.147 978.349 307.409 989.904 278.789 1010.99C248.819 1033.06 229.686 1065.66 220.596 1101.61C212.255 1134.59 216.005 1169.25 225.921 1201.3C246.946 1269.28 301.276 1318.32 362.378 1349.27C395.691 1366.15 431.479 1377.7 467.604 1386.62C502.735 1395.29 538.769 1400.25 574.935 1401.45C612.572 1402.7 650.22 1400.71 687.415 1394.47C704.922 1391.53 719.857 1374.26 716.581 1355.58C713.425 1337.6 697.227 1322.97 678.456 1326.12Z"/>
</mask>
<path d="M678.456 1326.12C660.188 1329.18 641.791 1331.33 623.311 1332.44C614.474 1332.97 605.635 1333.22 596.786 1333.36C594.459 1333.4 591.164 1334.47 598.652 1333.36C596.389 1333.69 593.702 1333.31 591.415 1333.27C586.591 1333.18 581.766 1333.02 576.95 1332.8C540.806 1331.1 504.844 1325.64 469.835 1316.47C467.876 1315.96 460.268 1313.19 469.294 1316.37C467.797 1315.84 466.184 1315.48 464.657 1315.03C460.023 1313.68 455.413 1312.26 450.821 1310.78C442.318 1308.03 433.884 1305.06 425.538 1301.84C409.643 1295.72 394.074 1288.69 379.121 1280.47C377.13 1279.38 375.172 1278.23 373.189 1277.13C370.43 1275.59 369.631 1276.8 374.9 1278.19C371.139 1277.2 366.681 1273.04 363.444 1270.86C356.556 1266.21 349.873 1261.27 343.448 1255.99C337.362 1250.99 331.936 1245.32 326.032 1240.15C334.11 1247.23 326.199 1240.16 324.262 1237.94C321.284 1234.54 318.42 1231.03 315.678 1227.42C311.541 1221.99 307.68 1216.34 304.104 1210.51C303.267 1209.14 302.549 1207.58 301.596 1206.3C307.196 1213.83 303.402 1209.5 302.127 1207.08C300.297 1203.61 298.575 1200.1 296.959 1196.53C294.01 1190.01 291.415 1183.33 289.227 1176.51C288.634 1174.65 288.103 1172.78 287.536 1170.92C286.75 1168.33 287.468 1166.14 288.321 1173.92C287.872 1169.83 286.437 1165.69 285.743 1161.61C284.612 1154.97 283.896 1148.26 283.636 1141.53C283.525 1138.64 284.56 1132.74 283.513 1143.1C283.704 1141.21 283.607 1139.25 283.71 1137.34C283.921 1133.51 284.29 1129.68 284.819 1125.87C285.264 1122.69 285.821 1119.52 286.489 1116.37C286.891 1114.5 287.519 1112.61 287.829 1110.72C286.151 1120.85 286.683 1114.94 287.594 1112.16C289.861 1105.22 292.712 1098.48 296.105 1092.02L297.066 1090.23C298.85 1087.05 298.376 1087.84 295.648 1092.61C296.862 1091.34 297.766 1089.23 298.773 1087.76C300.58 1085.12 302.495 1082.54 304.513 1080.05C305.727 1078.56 306.976 1077.1 308.256 1075.66C308.939 1074.9 313.502 1070.4 309.126 1074.59C304.716 1078.81 309.451 1074.35 310.175 1073.69C312.066 1071.96 314.007 1070.3 316.004 1068.69C318.497 1066.69 321.069 1064.8 323.711 1063.02C325.261 1061.98 327.082 1061.09 328.539 1059.93C321.993 1065.16 324.209 1062.46 326.82 1061.08C333.363 1057.64 340.235 1055.72 346.975 1052.91C338.268 1056.55 342.917 1054.05 345.792 1053.44C347.635 1053.05 349.486 1052.71 351.35 1052.43C354.465 1051.96 357.586 1051.77 360.715 1051.48C367.745 1050.82 352.109 1050.96 359.167 1051.41C360.407 1051.49 361.648 1051.52 362.891 1051.6C367.19 1051.92 371.352 1052.72 375.577 1053.5C378.152 1053.98 380.459 1055.81 372.137 1052.45C373.821 1053.14 375.666 1053.54 377.379 1054.16C380.265 1055.19 383.098 1056.37 385.872 1057.68C387.536 1058.47 389.147 1059.36 390.792 1060.19C396.947 1063.28 383.842 1055.56 389.548 1059.44C392.597 1061.51 395.595 1063.63 398.435 1065.99C399.854 1067.17 401.174 1068.45 402.575 1069.65C406.627 1073.1 400.707 1067.68 400.407 1067.26C402.518 1070.21 405.306 1072.75 407.483 1075.69C409.283 1078.12 410.69 1080.96 412.538 1083.32C407.007 1076.24 410.278 1079.27 411.653 1082.17C412.44 1083.83 413.17 1085.51 413.847 1087.22C414.523 1088.94 415.064 1090.7 415.693 1092.43C418.022 1098.87 414.316 1084.16 415.299 1090.98C415.866 1094.9 416.42 1098.76 416.901 1102.69C417.868 1110.62 417.918 1094.98 416.912 1102.91C416.614 1105.26 416.495 1107.6 416.104 1109.95C415.877 1111.3 415.135 1113.3 415.172 1114.57C416.637 1109.45 416.779 1108.74 415.592 1112.42C415.059 1113.9 414.475 1115.36 413.834 1116.8C413.222 1118.17 412.504 1119.48 411.845 1120.83C409.901 1124.83 416.997 1113.29 413.158 1118.42C411.462 1120.69 409.231 1125.28 406.672 1126.59C406.699 1126.57 413.338 1120.5 409.179 1124.04C407.856 1125.17 406.59 1126.35 405.232 1127.44C402.478 1129.65 399.52 1131.46 396.626 1133.46C406.057 1126.96 396.018 1133.51 393.109 1134.81C390.352 1136.05 387.542 1137.17 384.701 1138.19C382.975 1138.81 381.223 1139.33 379.495 1139.93C374.355 1141.69 382.292 1139.16 382.688 1139.1C378.465 1139.8 374.299 1141.16 370.067 1141.93C358.196 1144.09 346.223 1144.89 334.192 1145.12C328.229 1145.23 343.725 1145.2 337.739 1145.12C336.575 1145.1 335.406 1145.09 334.243 1145.07C331.655 1145.02 329.072 1144.94 326.484 1144.82C320.986 1144.57 315.493 1144.17 310.018 1143.65C298.99 1142.59 288.011 1140.98 277.132 1138.88C271.693 1137.83 266.28 1136.66 260.894 1135.37C258.424 1134.78 255.962 1134.17 253.508 1133.53C252.028 1133.14 250.56 1132.73 249.079 1132.35C260.616 1135.33 254.434 1133.84 251.952 1133.12C229.683 1126.65 207.966 1118.2 187.223 1107.75C182.161 1105.2 177.154 1102.53 172.213 1099.74C169.973 1098.47 167.771 1097.15 165.543 1095.87C176.703 1102.31 165.281 1095.61 162.663 1093.91C153.298 1087.85 144.237 1081.29 135.578 1074.22C131.311 1070.74 127.141 1067.13 123.083 1063.39C121.252 1061.7 119.445 1059.99 117.666 1058.25C116.601 1057.21 115.553 1056.15 114.495 1055.1C110.296 1050.93 120.226 1061.19 116.447 1057.1C108.801 1048.82 101.571 1040.21 95.1111 1030.92C92.0615 1026.54 89.2393 1022.03 86.4843 1017.45C85.265 1015.42 83.7385 1011.96 88.643 1021.3C87.968 1020.02 87.2451 1018.76 86.5652 1017.48C85.2102 1014.91 83.9135 1012.32 82.6758 1009.7C80.4043 1004.88 78.3395 999.972 76.4891 994.978C75.6461 992.7 74.8497 990.407 74.0955 988.096C73.0657 984.924 70.3415 972.668 73.1269 985.462C70.7804 974.67 68.7308 964.029 68.0242 952.959C67.8591 950.399 67.7547 947.831 67.6995 945.266C67.6427 942.493 68.1761 936.49 67.6443 948.281C67.7175 946.711 67.703 945.13 67.7616 943.559C68.0145 936.731 68.623 929.915 69.6358 923.155C70.2238 919.208 70.9481 915.279 71.8075 911.379C72.1947 909.615 72.6543 907.865 73.0561 906.103C74.1671 901.223 70.3479 914.875 72.6237 907.725C75.2644 899.453 78.0972 891.339 81.625 883.405C83.0932 880.101 84.6459 876.835 86.2731 873.603C87.8322 870.509 92.0664 865.46 92.4752 862.105C92.3999 862.735 88.1073 869.244 91.3225 864.174C92.4951 862.324 93.6266 860.449 94.8132 858.606C97.1933 854.906 99.6684 851.275 102.216 847.693C112.07 833.842 123.095 820.866 134.816 808.614C135.838 807.546 136.878 806.496 137.895 805.428C143.315 799.757 132.321 810.81 137.953 805.365C140.858 802.553 143.755 799.731 146.708 796.966C152.983 791.093 159.414 785.392 165.921 779.783C191.943 757.369 219.286 736.597 245.313 714.184C272.165 691.06 298.764 666.03 319.374 636.86C340.259 607.309 355.676 574.239 362.827 538.538C369.471 505.336 366.789 468.508 352.099 437.894C335.51 403.319 308.021 378.362 275.517 359.65C214.449 324.494 133.077 312.675 71.4746 353.053C19.2503 387.285 -2.94146 454.629 0.69155 515.078C4.66396 581.129 45.4527 639.121 93.9576 680.174C119.603 701.88 148.643 719.69 178.52 734.717C213.061 752.089 249.972 764.984 287.859 772.465C355.201 785.758 429.576 778.683 490.569 744.833C522.452 727.137 550.042 704.098 572.756 675.137C594.513 647.394 611.473 615.5 625.417 583.089C655.047 514.222 675.586 440.428 689.396 366.75C703.493 291.541 709.101 215.093 707.555 138.648C706.823 102.619 704.222 66.6594 699.84 30.9136C697.649 13.0231 679.657 -1.88631 661.715 1.44636C643.488 4.83132 630.205 21.1557 632.554 40.3341C637.136 77.7215 639.77 115.345 640.357 153.036C640.426 157.591 640.446 162.145 640.485 166.702C640.56 175.36 640.58 158.732 640.491 167.389C640.476 169.047 640.466 170.7 640.445 172.358C640.332 182.297 640.08 192.239 639.69 202.172C638.943 221.214 637.686 240.239 635.926 259.215C632.481 296.345 627.096 333.294 619.803 369.864C616.236 387.738 612.211 405.526 607.735 423.191C606.525 427.963 605.557 432.958 603.97 437.618C606.676 429.668 604.972 433.979 604.442 435.886C603.772 438.278 603.11 440.676 602.435 443.067C599.724 452.631 596.874 462.155 593.897 471.633C583.352 505.175 571.484 538.518 556.679 570.399C553.243 577.801 549.625 585.118 545.794 592.321C544.059 595.583 542.249 598.805 540.454 602.033C536.626 608.918 544.626 595.276 540.478 601.961C538.925 604.461 537.414 606.981 535.829 609.461C527.169 623.03 517.505 635.958 506.654 647.792C505.176 649.404 503.654 650.974 502.154 652.568C497.04 657.992 506.528 648.462 502.922 651.769C499.954 654.491 497.062 657.284 494.013 659.915C487.654 665.413 480.971 670.524 474.025 675.227C471.132 677.182 468.174 679.023 465.229 680.885C458.882 684.902 472.15 677.138 465.539 680.685C464.004 681.507 462.488 682.372 460.949 683.188C453.867 686.954 446.593 690.346 439.18 693.365C432.067 696.264 424.826 698.823 417.485 701.05C416.818 701.252 416.146 701.449 415.479 701.652C411.985 702.658 412.798 702.44 417.924 700.993C416.331 701.04 414.417 701.912 412.847 702.295C408.434 703.384 403.996 704.359 399.534 705.219C384.433 708.128 369.091 709.728 353.733 710.055C353.037 710.067 352.341 710.079 351.64 710.09C347.91 710.121 348.852 710.122 354.472 710.089C352.614 709.485 349.498 710.007 347.538 709.939C343.503 709.808 339.469 709.591 335.442 709.289C325.791 708.575 316.176 707.402 306.63 705.804C297.873 704.338 289.18 702.518 280.565 700.375C278.607 699.888 276.655 699.352 274.698 698.86C269.609 697.572 283.062 701.388 275.293 699.006C270.263 697.464 265.229 695.951 260.238 694.262C242.95 688.424 226.074 681.376 209.668 673.341C201.912 669.543 194.254 665.526 186.72 661.299C183.791 659.657 180.916 657.916 177.989 656.264C186.872 661.274 180.483 657.746 178.634 656.599C176.336 655.173 174.051 653.729 171.784 652.257C159.296 644.156 147.253 635.334 135.87 625.702C130.208 620.91 124.711 615.919 119.412 610.712C117.866 609.197 113.076 603.817 119.822 611.242C118.919 610.247 117.966 609.296 117.052 608.315C113.859 604.886 110.748 601.373 107.747 597.773C103.264 592.399 99.0009 586.833 95.0073 581.071C92.9232 578.065 90.9056 575.007 88.9699 571.894C87.9711 570.291 87.088 568.199 85.878 566.764C91.0538 572.882 87.8853 570.375 86.3058 567.417C82.8508 560.935 79.7496 554.26 77.0377 547.42C75.6726 543.976 74.4123 540.49 73.2506 536.973C72.7792 535.542 72.3238 534.103 71.8941 532.657C69.2982 523.93 73.1584 538.645 71.9169 532.781C70.5734 526.424 69.3463 520.087 68.6442 513.609C68.3227 510.664 68.082 507.71 67.9205 504.757C67.8236 502.978 67.7907 501.202 67.7139 499.421C67.4232 492.762 67.4613 507.788 67.6743 501.55C67.8975 495.015 68.3038 488.521 69.1894 482.041C69.6648 478.523 70.2572 475.02 70.9602 471.543C71.6335 468.213 75.4308 456.631 71.433 468.448C73.4993 462.334 75.2771 456.227 77.7936 450.27C78.9181 447.601 80.1222 444.969 81.405 442.377C82.1703 440.825 82.9628 439.293 83.7832 437.774C87.6337 430.645 81.7928 440.719 83.1611 438.78C86.6157 433.883 89.7378 428.84 93.568 424.211C95.5785 421.778 104.221 413.839 95.3797 421.671C97.9162 419.42 100.288 417.026 102.912 414.863C105.313 412.881 107.799 411.007 110.359 409.244C111.529 408.438 112.733 407.682 113.911 406.893C119.362 403.23 106.423 410.836 112.289 407.845C114.99 406.469 117.655 405.068 120.424 403.848C122.386 402.983 124.38 402.177 126.387 401.424C128.206 400.741 133.201 400.079 134.484 398.739C134.004 399.239 126.413 400.605 132.156 399.479C134.241 399.069 136.303 398.566 138.399 398.183C142.238 397.486 146.107 396.974 149.99 396.621C153.752 396.277 158.048 396.787 161.716 396.036C160.113 396.046 158.509 396.057 156.905 396.067C158.335 396.094 159.768 396.136 161.198 396.203C163.348 396.297 165.501 396.442 167.645 396.62C175.562 397.281 183.435 398.497 191.203 400.152C194.414 400.838 198.51 402.759 201.768 402.69C200.238 402.266 198.713 401.843 197.182 401.424C198.572 401.824 199.959 402.238 201.341 402.662C204.098 403.514 206.838 404.414 209.563 405.362C216.679 407.843 223.692 410.642 230.545 413.783C233.642 415.201 236.71 416.69 239.744 418.251C241.562 419.188 243.371 420.149 245.162 421.142C247.654 422.524 251.578 426.268 244.674 420.718C250.446 425.358 257.202 428.85 263.036 433.513C266.192 436.039 269.258 438.678 272.207 441.448C273.176 442.356 274.101 443.404 275.108 444.247C267.365 437.781 274.141 443.294 275.906 445.318C278.104 447.846 280.202 450.46 282.199 453.152C284.326 456.023 286.265 460.952 288.895 463.22C285.287 460.109 285.961 457.657 287.541 460.903C288.438 462.745 289.391 464.543 290.241 466.404C291.93 470.094 293.423 473.878 294.712 477.736C295.322 479.569 295.671 481.76 296.477 483.504C292.824 475.593 295.404 479.439 296.071 482.657C296.742 485.916 297.275 489.203 297.682 492.507C298.17 496.489 298.338 500.462 298.586 504.462C298.94 510.216 298.579 501.761 298.661 501.227C298.262 503.812 298.508 506.656 298.322 509.28C297.801 516.733 296.72 524.145 295.163 531.448C294.807 533.125 294.422 534.799 294.014 536.464C293.257 539.566 291.037 542.339 294.591 534.539C292.63 538.846 291.705 543.933 290.059 548.403C287.636 554.988 284.879 561.443 281.833 567.752C279.995 571.555 278.054 575.31 276.016 579.01C275.595 579.776 272.329 586.03 275.123 580.661C277.951 575.225 273.589 583.057 272.984 584.014C264.111 598.018 253.769 610.936 242.599 623.11C240.028 625.911 237.418 628.672 234.772 631.397C234.242 631.941 233.712 632.485 233.178 633.029C230.591 635.651 231.045 635.193 234.543 631.659C233.667 633.115 231.701 634.449 230.468 635.639C224.176 641.712 217.729 647.612 211.178 653.392C198.022 664.996 184.457 676.095 170.842 687.132C115.337 732.133 60.0106 778.121 25.8788 842.782C-2.73205 896.982 -7.5187 961.259 12.7661 1018.89C29.1984 1065.57 62.7515 1105.34 101.374 1134.76C142.709 1166.24 190.085 1187.23 239.811 1200.71C261.408 1206.57 283.487 1210.65 305.799 1212.46C331.149 1214.51 357.602 1214.72 382.641 1209.56C414.881 1202.92 448.731 1188.36 467.482 1159.29C491.773 1121.64 488.416 1074.97 464.674 1038.26C445.819 1009.1 413.028 989.503 379.401 984.056C344.147 978.349 307.409 989.904 278.789 1010.99C248.819 1033.06 229.686 1065.66 220.596 1101.61C212.255 1134.59 216.005 1169.25 225.921 1201.3C246.946 1269.28 301.276 1318.32 362.378 1349.27C395.691 1366.15 431.479 1377.7 467.604 1386.62C502.735 1395.29 538.769 1400.25 574.935 1401.45C612.572 1402.7 650.22 1400.71 687.415 1394.47C704.922 1391.53 719.857 1374.26 716.581 1355.58C713.425 1337.6 697.227 1322.97 678.456 1326.12Z" fill="#ECF6E8" stroke="#ECF6E8" stroke-width="30" mask="url(#path-1-inside-1_193_591)"/>
</svg>
