<svg width="828" height="933" viewBox="0 0 828 933" fill="none" xmlns="http://www.w3.org/2000/svg">
<mask id="path-1-inside-1_249_1140" fill="white">
<path d="M43.59 841.766C61.289 847.232 79.2377 851.803 97.4065 855.358C106.095 857.058 114.823 858.474 123.575 859.789C125.876 860.137 128.999 861.639 121.726 859.541C123.924 860.174 126.638 860.156 128.909 860.419C133.703 860.968 138.507 861.453 143.31 861.868C179.358 864.988 215.727 864.353 251.644 859.914C253.654 859.666 261.562 857.933 252.194 859.883C253.747 859.561 255.394 859.419 256.967 859.178C261.74 858.452 266.498 857.657 271.246 856.797C280.039 855.202 288.792 853.377 297.491 851.298C314.059 847.339 330.424 842.441 346.336 836.283C348.454 835.466 350.547 834.588 352.66 833.756C355.599 832.598 356.229 833.907 350.822 834.583C354.681 834.104 359.652 830.573 363.151 828.839C370.594 825.151 377.876 821.132 384.945 816.754C391.641 812.607 397.771 807.715 404.309 803.372C395.364 809.313 404.142 803.363 406.357 801.42C409.761 798.441 413.066 795.342 416.263 792.133C421.085 787.293 425.661 782.213 429.982 776.902C430.993 775.656 431.911 774.21 433.025 773.069C426.475 779.787 430.811 775.997 432.397 773.765C434.669 770.577 436.844 767.319 438.92 763.997C442.708 757.932 446.167 751.653 449.242 745.179C450.076 743.423 450.851 741.637 451.66 739.871C452.783 737.405 452.363 735.14 450.483 742.738C451.472 738.747 453.444 734.829 454.674 730.883C456.677 724.45 458.277 717.893 459.43 711.251C459.924 708.405 459.681 702.425 459.344 712.826C459.405 710.926 459.762 708.996 459.912 707.095C460.213 703.265 460.356 699.419 460.337 695.579C460.319 692.364 460.188 689.149 459.943 685.944C459.794 684.029 459.423 682.074 459.367 680.159C459.683 690.43 459.942 684.494 459.408 681.619C458.082 674.44 456.152 667.377 453.647 660.53L452.932 658.625C451.586 655.236 451.951 656.086 454.022 661.174C452.988 659.75 452.371 657.546 451.568 655.957C450.129 653.093 448.572 650.284 446.903 647.551C445.898 645.912 444.854 644.293 443.776 642.704C443.2 641.86 439.276 636.789 443.057 641.52C446.867 646.291 442.766 641.24 442.136 640.491C440.492 638.528 438.789 636.619 437.022 634.766C434.817 632.454 432.519 630.236 430.137 628.118C428.74 626.88 427.052 625.762 425.763 624.418C431.556 630.472 429.719 627.494 427.313 625.786C421.286 621.503 414.73 618.685 408.423 615.007C416.569 619.768 412.294 616.672 409.525 615.69C407.75 615.062 405.96 614.479 404.15 613.951C401.126 613.069 398.057 612.468 394.994 611.766C388.114 610.179 403.593 612.397 396.538 611.904C395.299 611.816 394.065 611.677 392.821 611.598C388.519 611.338 384.286 611.583 379.995 611.798C377.38 611.925 374.85 613.438 383.544 611.214C381.784 611.666 379.902 611.823 378.122 612.205C375.124 612.848 372.161 613.636 369.237 614.57C367.482 615.132 365.767 615.803 364.028 616.4C357.516 618.648 371.53 612.737 365.359 615.824C362.062 617.473 358.81 619.176 355.68 621.14C354.118 622.117 352.64 623.213 351.092 624.21C346.617 627.1 353.204 622.513 353.558 622.137C351.073 624.78 347.973 626.924 345.425 629.547C343.318 631.719 341.546 634.346 339.4 636.444C345.824 630.156 342.179 632.73 340.432 635.418C339.43 636.959 338.483 638.53 337.586 640.136C336.688 641.747 335.918 643.418 335.064 645.054C331.9 651.128 337.528 637.036 335.648 643.663C334.565 647.475 333.503 651.226 332.504 655.062C330.492 662.795 332.52 647.282 332.465 655.272C332.448 657.643 332.254 659.983 332.33 662.358C332.376 663.728 332.845 665.813 332.64 667.063C331.867 661.799 331.822 661.069 332.51 664.873C332.841 666.413 333.226 667.937 333.67 669.447C334.095 670.892 334.632 672.286 335.105 673.711C336.501 677.934 331.001 665.55 334.124 671.152C335.504 673.625 337.107 678.464 339.468 680.106C339.444 680.086 333.669 673.187 337.322 677.248C338.483 678.542 339.581 679.881 340.782 681.14C343.218 683.697 345.91 685.885 348.513 688.247C340.029 680.551 349.108 688.381 351.819 690.058C354.386 691.651 357.023 693.133 359.704 694.52C361.332 695.363 362.999 696.116 364.632 696.935C369.492 699.369 361.962 695.807 361.578 695.688C365.67 696.948 369.62 698.844 373.711 700.17C385.189 703.892 396.951 706.27 408.845 708.097C414.741 709 399.385 706.912 405.33 707.625C406.485 707.764 407.646 707.908 408.801 708.042C411.372 708.334 413.944 708.596 416.525 708.823C422.007 709.307 427.503 709.646 433 709.85C444.071 710.263 455.167 710.126 466.227 709.494C471.758 709.178 477.278 708.736 482.788 708.175C485.315 707.918 487.836 707.635 490.353 707.327C491.872 707.14 493.381 706.929 494.9 706.747C483.068 708.17 489.395 707.508 491.951 707.125C514.88 703.675 537.528 698.185 559.474 690.585C564.831 688.729 570.148 686.748 575.416 684.637C577.804 683.679 580.162 682.662 582.541 681.684C570.625 686.587 582.835 681.459 585.656 680.126C595.743 675.359 605.594 670.068 615.115 664.212C619.807 661.327 624.42 658.302 628.939 655.131C630.977 653.704 632.996 652.247 634.991 650.76C636.184 649.868 637.363 648.962 638.552 648.06C643.267 644.48 632.063 653.328 636.351 649.778C645.03 642.588 653.34 635.013 660.975 626.669C664.579 622.735 667.977 618.631 671.315 614.462C672.793 612.616 674.765 609.388 668.664 617.991C669.504 616.81 670.387 615.659 671.231 614.478C672.915 612.116 674.544 609.719 676.12 607.282C679.011 602.813 681.709 598.22 684.206 593.517C685.345 591.371 686.438 589.204 687.493 587.013C688.935 584.006 693.263 572.221 688.803 584.531C692.562 574.147 696.007 563.872 698.178 552.994C698.681 550.478 699.126 547.948 699.521 545.412C699.946 542.672 700.214 536.651 699.175 548.408C699.311 546.843 699.536 545.277 699.686 543.712C700.343 536.911 700.645 530.075 700.539 523.24C700.48 519.25 700.284 515.26 699.951 511.28C699.801 509.48 699.578 507.685 699.414 505.885C698.961 500.9 700.933 514.939 699.627 507.55C698.108 499.001 696.378 490.582 693.936 482.25C692.919 478.781 691.814 475.337 690.631 471.918C689.496 468.644 685.97 463.077 686.011 459.697C686.002 460.332 689.392 467.354 686.878 461.901C685.962 459.912 685.09 457.903 684.158 455.919C682.291 451.936 680.32 448.008 678.27 444.12C670.344 429.082 661.14 414.757 651.15 401.057C650.279 399.863 649.388 398.684 648.521 397.49C643.903 391.149 653.331 403.565 648.472 397.42C645.966 394.247 643.47 391.065 640.91 387.932C635.471 381.278 629.854 374.774 624.149 368.35C601.335 342.678 576.993 318.458 554.174 292.787C530.632 266.301 507.593 237.96 491.04 206.311C474.266 174.248 463.377 139.423 461.032 103.088C458.856 69.2984 466.407 33.153 485.032 4.76082C506.067 -27.3042 536.627 -48.3891 571.328 -62.6181C636.525 -89.3514 718.746 -90.2569 774.439 -42.0552C821.654 -1.18969 834.704 68.5052 823.074 127.937C810.364 192.874 762.234 244.935 708.706 279.181C680.405 297.288 649.257 311.084 617.648 322.009C581.106 334.64 542.809 342.517 504.265 344.9C435.754 349.131 362.977 332.24 307.021 290.589C277.771 268.815 253.486 242.315 234.819 210.593C216.94 180.206 204.367 146.343 194.851 112.366C174.63 40.1742 164.075 -35.6936 160.173 -110.554C156.191 -186.969 160.786 -263.484 172.472 -339.046C177.983 -374.659 185.338 -409.954 194.429 -444.802C198.977 -462.243 218.79 -474.63 236.13 -468.944C253.746 -463.168 264.743 -445.224 259.867 -426.527C250.361 -390.08 242.752 -353.139 237.164 -315.861C236.49 -311.355 235.866 -306.844 235.222 -302.333C233.998 -293.761 236.187 -310.244 235.125 -301.653C234.92 -300.007 234.71 -298.367 234.511 -296.722C233.302 -286.855 232.232 -276.968 231.299 -267.071C229.51 -248.098 228.229 -229.076 227.453 -210.034C225.936 -172.775 226.365 -135.438 228.737 -98.2236C229.897 -80.0338 231.525 -61.8694 233.614 -43.7656C234.18 -38.876 234.476 -33.796 235.43 -28.9667C233.803 -37.2054 234.919 -32.7064 235.192 -30.7466C235.539 -28.2868 235.876 -25.822 236.228 -23.3623C237.644 -13.5232 239.204 -3.70438 240.896 6.08435C246.892 40.7298 254.226 75.3538 264.665 108.919C267.088 116.712 269.702 124.445 272.542 132.092C273.829 135.556 275.194 138.99 276.545 142.428C279.424 149.761 273.307 135.176 276.53 142.353C277.738 145.037 278.901 147.736 280.143 150.405C286.923 165.003 294.785 179.1 303.968 192.271C305.218 194.065 306.518 195.824 307.793 197.602C312.141 203.658 304.003 192.951 307.139 196.708C309.718 199.8 312.214 202.953 314.887 205.965C320.459 212.259 326.404 218.213 332.663 223.796C335.271 226.119 337.958 228.336 340.63 230.573C346.387 235.397 334.268 225.94 340.349 230.333C341.761 231.352 343.149 232.41 344.566 233.424C351.085 238.097 357.844 242.425 364.79 246.402C371.456 250.22 378.293 253.718 385.272 256.901C385.907 257.19 386.546 257.474 387.181 257.764C390.51 259.225 389.733 258.901 384.844 256.786C386.418 257.044 388.199 258.162 389.704 258.751C393.933 260.416 398.202 261.972 402.51 263.417C417.092 268.306 432.085 271.93 447.264 274.293C447.952 274.398 448.64 274.502 449.334 274.606C453.026 275.132 452.092 275.008 446.526 274.229C448.448 273.877 451.467 274.809 453.419 275.002C457.436 275.407 461.463 275.728 465.494 275.963C475.155 276.538 484.84 276.652 494.514 276.337C503.387 276.047 512.246 275.397 521.069 274.417C523.074 274.195 525.08 273.923 527.085 273.696C532.301 273.095 518.459 275.09 526.476 273.761C531.666 272.901 536.857 272.07 542.027 271.059C559.938 267.569 577.601 262.824 594.929 257.04C603.121 254.306 611.244 251.342 619.273 248.153C622.393 246.914 625.474 245.571 628.595 244.322C619.126 248.108 625.926 245.46 627.912 244.568C630.378 243.46 632.835 242.332 635.277 241.175C648.73 234.804 661.838 227.66 674.4 219.625C680.649 215.628 686.76 211.411 692.703 206.954C694.437 205.657 699.899 200.961 692.227 207.425C693.254 206.559 694.324 205.743 695.361 204.891C698.981 201.917 702.532 198.848 705.984 195.679C711.141 190.948 716.105 185.998 720.829 180.817C723.294 178.114 725.7 175.351 728.032 172.524C729.235 171.067 730.388 169.111 731.778 167.849C725.835 173.226 729.308 171.162 731.267 168.44C735.552 162.475 739.513 156.27 743.109 149.851C744.92 146.619 746.632 143.331 748.25 139.999C748.907 138.644 749.55 137.278 750.168 135.902C753.9 127.597 748.119 141.67 750.129 136.022C752.305 129.899 754.363 123.782 755.919 117.455C756.629 114.579 757.26 111.683 757.812 108.777C758.144 107.027 758.413 105.271 758.725 103.516C759.898 96.9541 757.865 111.842 758.482 105.631C759.129 99.125 759.589 92.6341 759.572 86.0938C759.568 82.5435 759.446 78.9934 759.211 75.4535C758.986 72.0636 756.76 60.0804 759.153 72.3235C757.917 65.9894 756.966 59.7 755.264 53.4615C754.503 50.6672 753.66 47.898 752.733 45.1588C752.18 43.5194 751.598 41.8949 750.987 40.2805C748.117 32.7032 752.568 43.4639 751.47 41.36C748.696 36.0477 746.272 30.6351 743.09 25.5383C741.421 22.86 733.909 13.8426 741.632 22.7797C739.417 20.212 737.384 17.5241 735.07 15.0315C732.954 12.7487 730.739 10.5609 728.436 8.47331C727.383 7.51945 726.291 6.61062 725.228 5.67172C720.312 1.31684 732.125 10.5744 726.709 6.83013C724.214 5.10777 721.759 3.36542 719.177 1.78818C717.347 0.670073 715.477 -0.392935 713.589 -1.40587C711.877 -2.3241 707.013 -3.64376 705.92 -5.14268C706.329 -4.58307 713.671 -2.22103 708.129 -4.10007C706.117 -4.78291 704.14 -5.55576 702.114 -6.21357C698.401 -7.41457 694.634 -8.43551 690.833 -9.30139C687.15 -10.1424 682.824 -10.2077 679.288 -11.4388C680.876 -11.2155 682.464 -10.9922 684.052 -10.769C682.631 -10.9324 681.206 -11.0808 679.78 -11.2043C677.636 -11.3969 675.483 -11.5396 673.334 -11.6473C665.399 -12.0436 657.435 -11.8848 649.516 -11.276C646.242 -11.0224 641.928 -9.66258 638.707 -10.164C640.28 -10.3808 641.848 -10.5976 643.421 -10.8094C641.99 -10.5978 640.56 -10.3712 639.135 -10.1345C636.289 -9.65638 633.453 -9.12824 630.627 -8.55012C623.244 -7.03687 615.921 -5.19379 608.712 -2.99074C605.454 -1.9971 602.215 -0.928475 599.001 0.215135C597.075 0.902313 595.154 1.61445 593.247 2.3616C590.593 3.39962 586.207 6.58968 593.787 2.00609C587.45 5.83825 580.29 8.40131 573.888 12.2486C570.425 14.3325 567.035 16.5413 563.744 18.8951C562.663 19.6663 561.608 20.5826 560.497 21.2839C569.031 15.9041 561.583 20.4675 559.564 22.2399C557.05 24.4528 554.624 26.7655 552.286 29.1683C549.797 31.7312 547.221 36.3593 544.312 38.2577C548.302 35.6531 547.96 33.1333 545.962 36.1407C544.828 37.8471 543.645 39.5034 542.556 41.2348C540.392 44.6673 538.409 48.2197 536.619 51.8719C535.771 53.6079 535.134 55.7338 534.103 57.355C538.775 49.9994 535.706 53.468 534.618 56.5694C533.521 59.7108 532.556 62.897 531.714 66.1181C530.7 69.9995 530.007 73.9155 529.229 77.8466C528.115 83.5032 529.595 75.171 529.585 74.631C529.637 77.246 529.015 80.032 528.851 82.6573C528.378 90.1132 528.464 97.6036 529.038 105.048C529.168 106.758 529.327 108.468 529.511 110.173C529.848 113.348 531.681 116.391 529.194 108.188C530.566 112.717 530.807 117.882 531.845 122.531C533.371 129.38 535.247 136.143 537.427 142.801C538.744 146.815 540.169 150.794 541.698 154.732C542.013 155.547 544.419 162.18 542.363 156.487C540.282 150.724 543.566 159.066 544.039 160.095C550.972 175.153 559.507 189.33 568.961 202.88C571.138 205.998 573.358 209.081 575.618 212.134C576.071 212.743 576.524 213.353 576.982 213.962C579.197 216.905 578.808 216.39 575.81 212.423C576.485 213.983 578.257 215.566 579.32 216.91C584.75 223.764 590.357 230.468 596.082 237.068C607.58 250.316 619.55 263.118 631.579 275.866C680.615 327.84 729.343 380.77 754.584 449.391C775.742 506.911 771.949 571.254 744.189 625.683C721.702 669.765 683.164 704.725 640.976 728.753C595.825 754.469 546.081 768.979 495.005 775.736C472.822 778.67 450.396 779.785 428.042 778.615C402.644 777.283 376.398 773.971 352.265 765.532C321.194 754.671 289.577 735.744 274.853 704.439C255.779 663.892 265.305 618.089 293.713 584.856C316.273 558.459 351.377 543.39 385.429 542.458C421.129 541.483 456.007 557.816 481.573 582.514C508.345 608.376 522.979 643.222 527.213 680.065C531.1 713.863 522.78 747.709 508.694 778.161C478.826 842.748 418.463 884.142 353.792 906.699C318.533 918.999 281.527 925.695 244.538 929.736C208.567 933.665 172.193 933.8 136.188 930.18C98.7187 926.421 61.6684 919.446 25.6311 908.325C8.66975 903.088 -3.83814 883.981 1.88885 865.909C7.4052 848.506 25.4041 836.151 43.59 841.766Z"/>
</mask>
<path d="M43.59 841.766C61.289 847.232 79.2377 851.803 97.4065 855.358C106.095 857.058 114.823 858.474 123.575 859.789C125.876 860.137 128.999 861.639 121.726 859.541C123.924 860.174 126.638 860.156 128.909 860.419C133.703 860.968 138.507 861.453 143.31 861.868C179.358 864.988 215.727 864.353 251.644 859.914C253.654 859.666 261.562 857.933 252.194 859.883C253.747 859.561 255.394 859.419 256.967 859.178C261.74 858.452 266.498 857.657 271.246 856.797C280.039 855.202 288.792 853.377 297.491 851.298C314.059 847.339 330.424 842.441 346.336 836.283C348.454 835.466 350.547 834.588 352.66 833.756C355.599 832.598 356.229 833.907 350.822 834.583C354.681 834.104 359.652 830.573 363.151 828.839C370.594 825.151 377.876 821.132 384.945 816.754C391.641 812.607 397.771 807.715 404.309 803.372C395.364 809.313 404.142 803.363 406.357 801.42C409.761 798.441 413.066 795.342 416.263 792.133C421.085 787.293 425.661 782.213 429.982 776.902C430.993 775.656 431.911 774.21 433.025 773.069C426.475 779.787 430.811 775.997 432.397 773.765C434.669 770.577 436.844 767.319 438.92 763.997C442.708 757.932 446.167 751.653 449.242 745.179C450.076 743.423 450.851 741.637 451.66 739.871C452.783 737.405 452.363 735.14 450.483 742.738C451.472 738.747 453.444 734.829 454.674 730.883C456.677 724.45 458.277 717.893 459.43 711.251C459.924 708.405 459.681 702.425 459.344 712.826C459.405 710.926 459.762 708.996 459.912 707.095C460.213 703.265 460.356 699.419 460.337 695.579C460.319 692.364 460.188 689.149 459.943 685.944C459.794 684.029 459.423 682.074 459.367 680.159C459.683 690.43 459.942 684.494 459.408 681.619C458.082 674.44 456.152 667.377 453.647 660.53L452.932 658.625C451.586 655.236 451.951 656.086 454.022 661.174C452.988 659.75 452.371 657.546 451.568 655.957C450.129 653.093 448.572 650.284 446.903 647.551C445.898 645.912 444.854 644.293 443.776 642.704C443.2 641.86 439.276 636.789 443.057 641.52C446.867 646.291 442.766 641.24 442.136 640.491C440.492 638.528 438.789 636.619 437.022 634.766C434.817 632.454 432.519 630.236 430.137 628.118C428.74 626.88 427.052 625.762 425.763 624.418C431.556 630.472 429.719 627.494 427.313 625.786C421.286 621.503 414.73 618.685 408.423 615.007C416.569 619.768 412.294 616.672 409.525 615.69C407.75 615.062 405.96 614.479 404.15 613.951C401.126 613.069 398.057 612.468 394.994 611.766C388.114 610.179 403.593 612.397 396.538 611.904C395.299 611.816 394.065 611.677 392.821 611.598C388.519 611.338 384.286 611.583 379.995 611.798C377.38 611.925 374.85 613.438 383.544 611.214C381.784 611.666 379.902 611.823 378.122 612.205C375.124 612.848 372.161 613.636 369.237 614.57C367.482 615.132 365.767 615.803 364.028 616.4C357.516 618.648 371.53 612.737 365.359 615.824C362.062 617.473 358.81 619.176 355.68 621.14C354.118 622.117 352.64 623.213 351.092 624.21C346.617 627.1 353.204 622.513 353.558 622.137C351.073 624.78 347.973 626.924 345.425 629.547C343.318 631.719 341.546 634.346 339.4 636.444C345.824 630.156 342.179 632.73 340.432 635.418C339.43 636.959 338.483 638.53 337.586 640.136C336.688 641.747 335.918 643.418 335.064 645.054C331.9 651.128 337.528 637.036 335.648 643.663C334.565 647.475 333.503 651.226 332.504 655.062C330.492 662.795 332.52 647.282 332.465 655.272C332.448 657.643 332.254 659.983 332.33 662.358C332.376 663.728 332.845 665.813 332.64 667.063C331.867 661.799 331.822 661.069 332.51 664.873C332.841 666.413 333.226 667.937 333.67 669.447C334.095 670.892 334.632 672.286 335.105 673.711C336.501 677.934 331.001 665.55 334.124 671.152C335.504 673.625 337.107 678.464 339.468 680.106C339.444 680.086 333.669 673.187 337.322 677.248C338.483 678.542 339.581 679.881 340.782 681.14C343.218 683.697 345.91 685.885 348.513 688.247C340.029 680.551 349.108 688.381 351.819 690.058C354.386 691.651 357.023 693.133 359.704 694.52C361.332 695.363 362.999 696.116 364.632 696.935C369.492 699.369 361.962 695.807 361.578 695.688C365.67 696.948 369.62 698.844 373.711 700.17C385.189 703.892 396.951 706.27 408.845 708.097C414.741 709 399.385 706.912 405.33 707.625C406.485 707.764 407.646 707.908 408.801 708.042C411.372 708.334 413.944 708.596 416.525 708.823C422.007 709.307 427.503 709.646 433 709.85C444.071 710.263 455.167 710.126 466.227 709.494C471.758 709.178 477.278 708.736 482.788 708.175C485.315 707.918 487.836 707.635 490.353 707.327C491.872 707.14 493.381 706.929 494.9 706.747C483.068 708.17 489.395 707.508 491.951 707.125C514.88 703.675 537.528 698.185 559.474 690.585C564.831 688.729 570.148 686.748 575.416 684.637C577.804 683.679 580.162 682.662 582.541 681.684C570.625 686.587 582.835 681.459 585.656 680.126C595.743 675.359 605.594 670.068 615.115 664.212C619.807 661.327 624.42 658.302 628.939 655.131C630.977 653.704 632.996 652.247 634.991 650.76C636.184 649.868 637.363 648.962 638.552 648.06C643.267 644.48 632.063 653.328 636.351 649.778C645.03 642.588 653.34 635.013 660.975 626.669C664.579 622.735 667.977 618.631 671.315 614.462C672.793 612.616 674.765 609.388 668.664 617.991C669.504 616.81 670.387 615.659 671.231 614.478C672.915 612.116 674.544 609.719 676.12 607.282C679.011 602.813 681.709 598.22 684.206 593.517C685.345 591.371 686.438 589.204 687.493 587.013C688.935 584.006 693.263 572.221 688.803 584.531C692.562 574.147 696.007 563.872 698.178 552.994C698.681 550.478 699.126 547.948 699.521 545.412C699.946 542.672 700.214 536.651 699.175 548.408C699.311 546.843 699.536 545.277 699.686 543.712C700.343 536.911 700.645 530.075 700.539 523.24C700.48 519.25 700.284 515.26 699.951 511.28C699.801 509.48 699.578 507.685 699.414 505.885C698.961 500.9 700.933 514.939 699.627 507.55C698.108 499.001 696.378 490.582 693.936 482.25C692.919 478.781 691.814 475.337 690.631 471.918C689.496 468.644 685.97 463.077 686.011 459.697C686.002 460.332 689.392 467.354 686.878 461.901C685.962 459.912 685.09 457.903 684.158 455.919C682.291 451.936 680.32 448.008 678.27 444.12C670.344 429.082 661.14 414.757 651.15 401.057C650.279 399.863 649.388 398.684 648.521 397.49C643.903 391.149 653.331 403.565 648.472 397.42C645.966 394.247 643.47 391.065 640.91 387.932C635.471 381.278 629.854 374.774 624.149 368.35C601.335 342.678 576.993 318.458 554.174 292.787C530.632 266.301 507.593 237.96 491.04 206.311C474.266 174.248 463.377 139.423 461.032 103.088C458.856 69.2984 466.407 33.153 485.032 4.76082C506.067 -27.3042 536.627 -48.3891 571.328 -62.6181C636.525 -89.3514 718.746 -90.2569 774.439 -42.0552C821.654 -1.18969 834.704 68.5052 823.074 127.937C810.364 192.874 762.234 244.935 708.706 279.181C680.405 297.288 649.257 311.084 617.648 322.009C581.106 334.64 542.809 342.517 504.265 344.9C435.754 349.131 362.977 332.24 307.021 290.589C277.771 268.815 253.486 242.315 234.819 210.593C216.94 180.206 204.367 146.343 194.851 112.366C174.63 40.1742 164.075 -35.6936 160.173 -110.554C156.191 -186.969 160.786 -263.484 172.472 -339.046C177.983 -374.659 185.338 -409.954 194.429 -444.802C198.977 -462.243 218.79 -474.63 236.13 -468.944C253.746 -463.168 264.743 -445.224 259.867 -426.527C250.361 -390.08 242.752 -353.139 237.164 -315.861C236.49 -311.355 235.866 -306.844 235.222 -302.333C233.998 -293.761 236.187 -310.244 235.125 -301.653C234.92 -300.007 234.71 -298.367 234.511 -296.722C233.302 -286.855 232.232 -276.968 231.299 -267.071C229.51 -248.098 228.229 -229.076 227.453 -210.034C225.936 -172.775 226.365 -135.438 228.737 -98.2236C229.897 -80.0338 231.525 -61.8694 233.614 -43.7656C234.18 -38.876 234.476 -33.796 235.43 -28.9667C233.803 -37.2054 234.919 -32.7064 235.192 -30.7466C235.539 -28.2868 235.876 -25.822 236.228 -23.3623C237.644 -13.5232 239.204 -3.70438 240.896 6.08435C246.892 40.7298 254.226 75.3538 264.665 108.919C267.088 116.712 269.702 124.445 272.542 132.092C273.829 135.556 275.194 138.99 276.545 142.428C279.424 149.761 273.307 135.176 276.53 142.353C277.738 145.037 278.901 147.736 280.143 150.405C286.923 165.003 294.785 179.1 303.968 192.271C305.218 194.065 306.518 195.824 307.793 197.602C312.141 203.658 304.003 192.951 307.139 196.708C309.718 199.8 312.214 202.953 314.887 205.965C320.459 212.259 326.404 218.213 332.663 223.796C335.271 226.119 337.958 228.336 340.63 230.573C346.387 235.397 334.268 225.94 340.349 230.333C341.761 231.352 343.149 232.41 344.566 233.424C351.085 238.097 357.844 242.425 364.79 246.402C371.456 250.22 378.293 253.718 385.272 256.901C385.907 257.19 386.546 257.474 387.181 257.764C390.51 259.225 389.733 258.901 384.844 256.786C386.418 257.044 388.199 258.162 389.704 258.751C393.933 260.416 398.202 261.972 402.51 263.417C417.092 268.306 432.085 271.93 447.264 274.293C447.952 274.398 448.64 274.502 449.334 274.606C453.026 275.132 452.092 275.008 446.526 274.229C448.448 273.877 451.467 274.809 453.419 275.002C457.436 275.407 461.463 275.728 465.494 275.963C475.155 276.538 484.84 276.652 494.514 276.337C503.387 276.047 512.246 275.397 521.069 274.417C523.074 274.195 525.08 273.923 527.085 273.696C532.301 273.095 518.459 275.09 526.476 273.761C531.666 272.901 536.857 272.07 542.027 271.059C559.938 267.569 577.601 262.824 594.929 257.04C603.121 254.306 611.244 251.342 619.273 248.153C622.393 246.914 625.474 245.571 628.595 244.322C619.126 248.108 625.926 245.46 627.912 244.568C630.378 243.46 632.835 242.332 635.277 241.175C648.73 234.804 661.838 227.66 674.4 219.625C680.649 215.628 686.76 211.411 692.703 206.954C694.437 205.657 699.899 200.961 692.227 207.425C693.254 206.559 694.324 205.743 695.361 204.891C698.981 201.917 702.532 198.848 705.984 195.679C711.141 190.948 716.105 185.998 720.829 180.817C723.294 178.114 725.7 175.351 728.032 172.524C729.235 171.067 730.388 169.111 731.778 167.849C725.835 173.226 729.308 171.162 731.267 168.44C735.552 162.475 739.513 156.27 743.109 149.851C744.92 146.619 746.632 143.331 748.25 139.999C748.907 138.644 749.55 137.278 750.168 135.902C753.9 127.597 748.119 141.67 750.129 136.022C752.305 129.899 754.363 123.782 755.919 117.455C756.629 114.579 757.26 111.683 757.812 108.777C758.144 107.027 758.413 105.271 758.725 103.516C759.898 96.9541 757.865 111.842 758.482 105.631C759.129 99.125 759.589 92.6341 759.572 86.0938C759.568 82.5435 759.446 78.9934 759.211 75.4535C758.986 72.0636 756.76 60.0804 759.153 72.3235C757.917 65.9894 756.966 59.7 755.264 53.4615C754.503 50.6672 753.66 47.898 752.733 45.1588C752.18 43.5194 751.598 41.8949 750.987 40.2805C748.117 32.7032 752.568 43.4639 751.47 41.36C748.696 36.0477 746.272 30.6351 743.09 25.5383C741.421 22.86 733.909 13.8426 741.632 22.7797C739.417 20.212 737.384 17.5241 735.07 15.0315C732.954 12.7487 730.739 10.5609 728.436 8.47331C727.383 7.51945 726.291 6.61062 725.228 5.67172C720.312 1.31684 732.125 10.5744 726.709 6.83013C724.214 5.10777 721.759 3.36542 719.177 1.78818C717.347 0.670073 715.477 -0.392935 713.589 -1.40587C711.877 -2.3241 707.013 -3.64376 705.92 -5.14268C706.329 -4.58307 713.671 -2.22103 708.129 -4.10007C706.117 -4.78291 704.14 -5.55576 702.114 -6.21357C698.401 -7.41457 694.634 -8.43551 690.833 -9.30139C687.15 -10.1424 682.824 -10.2077 679.288 -11.4388C680.876 -11.2155 682.464 -10.9922 684.052 -10.769C682.631 -10.9324 681.206 -11.0808 679.78 -11.2043C677.636 -11.3969 675.483 -11.5396 673.334 -11.6473C665.399 -12.0436 657.435 -11.8848 649.516 -11.276C646.242 -11.0224 641.928 -9.66258 638.707 -10.164C640.28 -10.3808 641.848 -10.5976 643.421 -10.8094C641.99 -10.5978 640.56 -10.3712 639.135 -10.1345C636.289 -9.65638 633.453 -9.12824 630.627 -8.55012C623.244 -7.03687 615.921 -5.19379 608.712 -2.99074C605.454 -1.9971 602.215 -0.928475 599.001 0.215135C597.075 0.902313 595.154 1.61445 593.247 2.3616C590.593 3.39962 586.207 6.58968 593.787 2.00609C587.45 5.83825 580.29 8.40131 573.888 12.2486C570.425 14.3325 567.035 16.5413 563.744 18.8951C562.663 19.6663 561.608 20.5826 560.497 21.2839C569.031 15.9041 561.583 20.4675 559.564 22.2399C557.05 24.4528 554.624 26.7655 552.286 29.1683C549.797 31.7312 547.221 36.3593 544.312 38.2577C548.302 35.6531 547.96 33.1333 545.962 36.1407C544.828 37.8471 543.645 39.5034 542.556 41.2348C540.392 44.6673 538.409 48.2197 536.619 51.8719C535.771 53.6079 535.134 55.7338 534.103 57.355C538.775 49.9994 535.706 53.468 534.618 56.5694C533.521 59.7108 532.556 62.897 531.714 66.1181C530.7 69.9995 530.007 73.9155 529.229 77.8466C528.115 83.5032 529.595 75.171 529.585 74.631C529.637 77.246 529.015 80.032 528.851 82.6573C528.378 90.1132 528.464 97.6036 529.038 105.048C529.168 106.758 529.327 108.468 529.511 110.173C529.848 113.348 531.681 116.391 529.194 108.188C530.566 112.717 530.807 117.882 531.845 122.531C533.371 129.38 535.247 136.143 537.427 142.801C538.744 146.815 540.169 150.794 541.698 154.732C542.013 155.547 544.419 162.18 542.363 156.487C540.282 150.724 543.566 159.066 544.039 160.095C550.972 175.153 559.507 189.33 568.961 202.88C571.138 205.998 573.358 209.081 575.618 212.134C576.071 212.743 576.524 213.353 576.982 213.962C579.197 216.905 578.808 216.39 575.81 212.423C576.485 213.983 578.257 215.566 579.32 216.91C584.75 223.764 590.357 230.468 596.082 237.068C607.58 250.316 619.55 263.118 631.579 275.866C680.615 327.84 729.343 380.77 754.584 449.391C775.742 506.911 771.949 571.254 744.189 625.683C721.702 669.765 683.164 704.725 640.976 728.753C595.825 754.469 546.081 768.979 495.005 775.736C472.822 778.67 450.396 779.785 428.042 778.615C402.644 777.283 376.398 773.971 352.265 765.532C321.194 754.671 289.577 735.744 274.853 704.439C255.779 663.892 265.305 618.089 293.713 584.856C316.273 558.459 351.377 543.39 385.429 542.458C421.129 541.483 456.007 557.816 481.573 582.514C508.345 608.376 522.979 643.222 527.213 680.065C531.1 713.863 522.78 747.709 508.694 778.161C478.826 842.748 418.463 884.142 353.792 906.699C318.533 918.999 281.527 925.695 244.538 929.736C208.567 933.665 172.193 933.8 136.188 930.18C98.7187 926.421 61.6684 919.446 25.6311 908.325C8.66975 903.088 -3.83814 883.981 1.88885 865.909C7.4052 848.506 25.4041 836.151 43.59 841.766Z" fill="#E7F2F5" stroke="#E7F2F5" stroke-width="30" mask="url(#path-1-inside-1_249_1140)"/>
</svg>
