<svg width="56" height="56" viewBox="0 0 56 56" fill="none" xmlns="http://www.w3.org/2000/svg">
<path d="M7.10938 23.0417V22.4219C7.10938 12.4708 15.2053 4.375 25.1564 4.375C35.1074 4.375 43.2032 12.4708 43.2032 22.4219V23.0417C43.2032 24.936 42.7639 26.9019 42.0201 28.875H46.6316C47.2601 26.8434 47.5781 24.8967 47.5781 23.0417V22.4219C47.5781 10.0585 37.5197 0 25.1562 0C12.7928 0 2.73438 10.0585 2.73438 22.4219V23.0417C2.73438 29.2945 6.31925 36.5808 13.3895 44.6982C18.515 50.5828 23.5689 54.6861 23.7815 54.8578L25.1562 55.9685L26.531 54.8579C26.6102 54.7939 27.362 54.1833 28.5375 53.1401C27.5623 52.2948 26.4423 51.346 25.1562 50.2829C20.7232 46.3985 7.10938 33.6078 7.10938 23.0417Z" fill="#21A0BE"/>
<path d="M44.0781 42.4375V33.25H39.7031V42.4375H30.5156V46.8125H39.7031V56H44.0781V46.8125H53.2656V42.4375H44.0781Z" fill="#21A0BE"/>
<path d="M14.7656 22.4219C14.7656 28.1513 19.4269 32.8125 25.1562 32.8125C30.8856 32.8125 35.5469 28.1513 35.5469 22.4219C35.5469 16.6925 30.8856 12.0312 25.1562 12.0312C19.4269 12.0312 14.7656 16.6925 14.7656 22.4219ZM31.1719 22.4219C31.1719 25.7389 28.4733 28.4375 25.1562 28.4375C21.8392 28.4375 19.1406 25.7389 19.1406 22.4219C19.1406 19.1049 21.8392 16.4062 25.1562 16.4062C28.4733 16.4062 31.1719 19.1049 31.1719 22.4219Z" fill="#21A0BE"/>
</svg>
