<svg width="684" height="1491" viewBox="0 0 684 1491" fill="none" xmlns="http://www.w3.org/2000/svg">
<mask id="path-1-inside-1_193_367" fill="white">
<path d="M-99.4394 1583.7C-81.7525 1590.29 -63.816 1595.81 -45.6596 1600.1C-36.9769 1602.15 -28.2553 1603.86 -19.5092 1605.44C-17.2096 1605.86 -14.0884 1607.67 -21.3566 1605.14C-19.1599 1605.91 -16.4481 1605.88 -14.1782 1606.2C-9.38765 1606.86 -4.58737 1607.45 0.212811 1607.95C36.2364 1611.71 72.58 1610.95 108.472 1605.59C110.481 1605.29 118.384 1603.2 109.023 1605.56C110.575 1605.17 112.22 1605 113.792 1604.7C118.562 1603.83 123.316 1602.87 128.061 1601.83C136.848 1599.91 145.596 1597.71 154.289 1595.2C170.845 1590.42 187.199 1584.51 203.1 1577.08C205.216 1576.1 207.308 1575.04 209.42 1574.03C212.356 1572.64 212.987 1574.22 207.583 1575.03C211.439 1574.45 216.407 1570.19 219.903 1568.1C227.342 1563.65 234.618 1558.8 241.683 1553.52C248.374 1548.52 254.5 1542.61 261.034 1537.38C252.094 1544.54 260.867 1537.36 263.08 1535.02C266.482 1531.43 269.784 1527.69 272.979 1523.82C277.798 1517.98 282.371 1511.85 286.688 1505.44C287.699 1503.94 288.616 1502.19 289.73 1500.81C283.184 1508.92 287.518 1504.35 289.102 1501.65C291.373 1497.81 293.546 1493.88 295.62 1489.87C299.406 1482.55 302.863 1474.98 305.936 1467.17C306.769 1465.05 307.543 1462.89 308.352 1460.76C309.474 1457.79 309.054 1455.05 307.176 1464.22C308.164 1459.4 310.135 1454.68 311.364 1449.92C313.366 1442.16 314.965 1434.25 316.117 1426.23C316.61 1422.8 316.368 1415.58 316.03 1428.13C316.092 1425.84 316.449 1423.51 316.599 1421.22C316.899 1416.6 317.042 1411.96 317.023 1407.32C317.005 1403.44 316.874 1399.57 316.63 1395.7C316.48 1393.39 316.11 1391.03 316.053 1388.72C316.369 1401.11 316.628 1393.95 316.094 1390.48C314.77 1381.82 312.841 1373.3 310.338 1365.04L309.624 1362.74C308.279 1358.65 308.643 1359.68 310.712 1365.81C309.679 1364.1 309.062 1361.44 308.26 1359.52C306.822 1356.06 305.267 1352.68 303.598 1349.38C302.594 1347.4 301.551 1345.45 300.473 1343.53C299.898 1342.51 295.977 1336.39 299.755 1342.1C303.562 1347.86 299.465 1341.76 298.835 1340.86C297.192 1338.49 295.49 1336.19 293.724 1333.95C291.521 1331.16 289.224 1328.49 286.844 1325.93C285.447 1324.44 283.761 1323.09 282.473 1321.47C288.262 1328.77 286.426 1325.18 284.022 1323.12C277.999 1317.95 271.447 1314.55 265.145 1310.11C273.286 1315.86 269.013 1312.12 266.246 1310.94C264.472 1310.18 262.683 1309.48 260.875 1308.84C257.852 1307.78 254.786 1307.05 251.725 1306.2C244.85 1304.29 260.318 1306.96 253.267 1306.37C252.029 1306.26 250.796 1306.1 249.553 1306C245.254 1305.69 241.024 1305.98 236.736 1306.24C234.122 1306.4 231.594 1308.22 240.282 1305.54C238.524 1306.08 236.643 1306.27 234.865 1306.73C231.869 1307.51 228.907 1308.46 225.985 1309.59C224.232 1310.26 222.518 1311.07 220.78 1311.8C214.273 1314.51 228.277 1307.38 222.11 1311.1C218.816 1313.09 215.565 1315.14 212.438 1317.51C210.877 1318.69 209.399 1320.01 207.853 1321.22C203.381 1324.7 209.964 1319.17 210.317 1318.72C207.834 1321.91 204.736 1324.49 202.19 1327.66C200.084 1330.28 198.314 1333.45 196.169 1335.98C202.588 1328.39 198.946 1331.5 197.2 1334.74C196.199 1336.6 195.253 1338.49 194.356 1340.43C193.458 1342.38 192.689 1344.39 191.836 1346.37C188.674 1353.69 194.298 1336.69 192.419 1344.69C191.337 1349.29 190.275 1353.81 189.277 1358.44C187.267 1367.77 189.293 1349.05 189.238 1358.69C189.221 1361.55 189.027 1364.38 189.104 1367.24C189.149 1368.9 189.618 1371.41 189.413 1372.92C188.641 1366.57 188.596 1365.69 189.283 1370.28C189.614 1372.13 189.999 1373.97 190.443 1375.8C190.867 1377.54 191.404 1379.22 191.877 1380.94C193.272 1386.04 187.776 1371.09 190.897 1377.85C192.275 1380.84 193.877 1386.67 196.237 1388.66C196.212 1388.63 190.442 1380.31 194.092 1385.21C195.253 1386.77 196.35 1388.38 197.55 1389.9C199.984 1392.99 202.674 1395.63 205.275 1398.48C196.797 1389.19 205.87 1398.64 208.579 1400.66C211.145 1402.58 213.78 1404.37 216.459 1406.05C218.086 1407.06 219.752 1407.97 221.384 1408.96C226.24 1411.9 218.715 1407.6 218.332 1407.45C222.421 1408.98 226.368 1411.26 230.456 1412.86C241.927 1417.35 253.681 1420.22 265.567 1422.43C271.458 1423.52 256.113 1421 262.053 1421.86C263.208 1422.02 264.368 1422.2 265.522 1422.36C268.092 1422.71 270.662 1423.03 273.241 1423.3C278.719 1423.89 284.212 1424.3 289.705 1424.54C300.769 1425.04 311.857 1424.87 322.909 1424.11C328.436 1423.73 333.952 1423.2 339.459 1422.52C341.984 1422.21 344.504 1421.87 347.019 1421.5C348.537 1421.27 350.045 1421.02 351.562 1420.8C339.739 1422.51 346.061 1421.72 348.615 1421.25C371.529 1417.09 394.161 1410.47 416.093 1401.3C421.446 1399.06 426.759 1396.67 432.023 1394.12C434.41 1392.97 436.767 1391.74 439.143 1390.56C427.236 1396.48 439.438 1390.29 442.256 1388.68C452.337 1382.93 462.181 1376.54 471.696 1369.48C476.384 1366 480.994 1362.35 485.51 1358.52C487.547 1356.8 489.565 1355.04 491.558 1353.25C492.751 1352.17 493.929 1351.08 495.116 1349.99C499.829 1345.67 488.632 1356.35 492.917 1352.06C501.59 1343.39 509.894 1334.25 517.524 1324.18C521.126 1319.44 524.521 1314.49 527.857 1309.46C529.334 1307.23 531.305 1303.34 525.208 1313.71C526.047 1312.29 526.93 1310.9 527.774 1309.48C529.456 1306.63 531.085 1303.73 532.659 1300.79C535.548 1295.4 538.244 1289.86 540.74 1284.19C541.877 1281.6 542.97 1278.98 544.024 1276.34C545.465 1272.71 549.79 1258.49 545.333 1273.35C549.09 1260.82 552.532 1248.42 554.702 1235.3C555.205 1232.26 555.649 1229.21 556.044 1226.15C556.469 1222.84 556.737 1215.58 555.699 1229.76C555.834 1227.87 556.059 1225.99 556.209 1224.1C556.865 1215.89 557.167 1207.64 557.061 1199.4C557.003 1194.58 556.807 1189.77 556.473 1184.97C556.324 1182.8 556.101 1180.63 555.937 1178.46C555.484 1172.44 557.455 1189.38 556.15 1180.47C554.632 1170.15 552.904 1160 550.463 1149.94C549.447 1145.76 548.342 1141.6 547.16 1137.48C546.026 1133.53 542.502 1126.81 542.543 1122.73C542.534 1123.5 545.922 1131.97 543.41 1125.39C542.494 1122.99 541.622 1120.57 540.692 1118.18C538.825 1113.37 536.856 1108.63 534.808 1103.94C526.887 1085.8 517.689 1068.51 507.706 1051.98C506.835 1050.54 505.945 1049.12 505.079 1047.68C500.464 1040.03 509.885 1055.01 505.03 1047.6C502.526 1043.77 500.031 1039.93 497.473 1036.15C492.037 1028.12 486.425 1020.27 480.724 1012.52C457.925 981.551 433.6 952.33 410.796 921.358C387.27 889.403 364.247 855.209 347.705 817.025C330.942 778.341 320.062 736.324 317.717 692.487C315.543 651.72 323.089 608.111 341.701 573.856C362.722 535.169 393.261 509.731 427.939 492.564C493.091 460.31 575.256 459.218 630.911 517.373C678.094 566.677 691.135 650.763 679.513 722.466C666.811 800.814 618.714 863.625 565.223 904.942C536.941 926.789 505.814 943.432 474.227 956.614C437.71 971.853 399.439 981.357 360.921 984.231C292.457 989.336 219.73 968.957 163.812 918.705C134.581 892.435 110.313 860.463 91.6588 822.191C73.7921 785.529 61.2274 744.674 51.7183 703.681C31.5114 616.582 20.9638 525.048 17.0642 434.73C13.0843 342.535 17.677 250.22 29.3549 159.055C34.8622 116.088 42.2121 73.5046 51.2967 31.4618C55.8414 10.4192 75.6408 -4.52629 92.9693 2.33414C110.573 9.30283 121.563 30.9522 116.69 53.5093C107.19 97.4832 99.5865 142.052 94.0024 187.028C93.3294 192.464 92.7056 197.907 92.0621 203.349C90.8384 213.691 93.0261 193.804 91.9646 204.17C91.76 206.155 91.5506 208.134 91.351 210.119C90.1435 222.023 89.0736 233.952 88.1412 245.892C86.3542 268.783 85.0733 291.733 84.2984 314.707C82.7821 359.66 83.2113 404.707 85.5808 449.606C86.7406 471.552 88.3671 493.467 90.4552 515.309C91.0207 521.208 91.3161 527.337 92.2696 533.164C90.6442 523.224 91.7595 528.652 92.0318 531.016C92.3784 533.984 92.7152 536.958 93.0667 539.925C94.4826 551.796 96.0409 563.643 97.7318 575.453C103.724 617.252 111.053 659.026 121.485 699.522C123.906 708.924 126.518 718.254 129.356 727.48C130.642 731.659 132.007 735.802 133.357 739.951C136.234 748.797 130.121 731.201 133.342 739.86C134.548 743.098 135.711 746.354 136.952 749.574C143.728 767.187 151.584 784.195 160.761 800.086C162.01 802.25 163.309 804.372 164.584 806.518C168.928 813.824 160.796 800.906 163.929 805.439C166.507 809.17 169.001 812.973 171.672 816.607C177.24 824.201 183.181 831.385 189.437 838.121C192.043 840.923 194.728 843.598 197.398 846.297C203.151 852.117 191.04 840.707 197.117 846.008C198.529 847.236 199.915 848.514 201.331 849.736C207.846 855.375 214.6 860.596 221.542 865.395C228.203 870.001 235.035 874.221 242.01 878.061C242.644 878.41 243.283 878.753 243.917 879.102C247.244 880.865 246.468 880.474 241.582 877.923C243.155 878.234 244.934 879.583 246.438 880.293C250.665 882.302 254.931 884.179 259.236 885.923C273.808 891.822 288.79 896.194 303.959 899.045C304.647 899.171 305.334 899.297 306.027 899.423C309.717 900.057 308.784 899.908 303.222 898.968C305.142 898.543 308.16 899.667 310.11 899.9C314.124 900.389 318.148 900.776 322.177 901.06C331.831 901.753 341.509 901.891 351.177 901.51C360.044 901.161 368.896 900.377 377.714 899.195C379.718 898.927 381.722 898.598 383.726 898.324C388.938 897.599 375.106 900.007 383.117 898.403C388.304 897.365 393.491 896.362 398.658 895.143C416.556 890.932 434.207 885.208 451.523 878.229C459.709 874.93 467.827 871.354 475.851 867.507C478.969 866.012 482.048 864.391 485.166 862.885C475.703 867.453 482.5 864.258 484.483 863.182C486.948 861.845 489.404 860.485 491.844 859.088C505.288 851.402 518.387 842.782 530.94 833.089C537.185 828.266 543.292 823.178 549.231 817.801C550.964 816.236 556.422 810.57 548.755 818.369C549.781 817.324 550.851 816.339 551.887 815.312C555.504 811.724 559.052 808.021 562.503 804.198C567.656 798.49 572.617 792.517 577.337 786.267C579.801 783.006 582.205 779.672 584.535 776.261C585.737 774.503 586.89 772.143 588.279 770.621C582.34 777.108 585.811 774.618 587.768 771.334C592.051 764.137 596.008 756.651 599.602 748.906C601.411 745.006 603.122 741.04 604.74 737.02C605.397 735.385 606.039 733.737 606.656 732.077C610.386 722.057 604.609 739.036 606.617 732.222C608.792 724.835 610.848 717.454 612.404 709.82C613.113 706.35 613.743 702.857 614.295 699.351C614.627 697.239 614.896 695.121 615.208 693.003C616.38 685.086 614.348 703.049 614.965 695.555C615.611 687.706 616.071 679.874 616.054 671.984C616.05 667.7 615.928 663.417 615.693 659.146C615.468 655.056 613.244 640.598 615.636 655.37C614.4 647.728 613.45 640.14 611.748 632.613C610.989 629.242 610.146 625.901 609.219 622.596C608.667 620.618 608.086 618.658 607.475 616.71C604.607 607.568 609.055 620.551 607.957 618.012C605.186 611.603 602.763 605.073 599.583 598.924C597.915 595.692 590.408 584.813 598.126 595.596C595.913 592.498 593.881 589.255 591.569 586.247C589.454 583.493 587.241 580.854 584.939 578.335C583.887 577.184 582.795 576.088 581.733 574.955C576.821 569.701 588.626 580.87 583.213 576.352C580.72 574.274 578.267 572.172 575.686 570.269C573.858 568.92 571.989 567.638 570.102 566.416C568.391 565.308 563.531 563.716 562.439 561.907C562.847 562.582 570.185 565.432 564.646 563.165C562.636 562.341 560.66 561.409 558.635 560.615C554.925 559.166 551.16 557.935 547.362 556.89C543.681 555.875 539.358 555.797 535.825 554.311C537.412 554.58 538.999 554.85 540.586 555.119C539.166 554.922 537.741 554.743 536.316 554.594C534.174 554.362 532.022 554.189 529.875 554.06C521.945 553.581 513.987 553.773 506.073 554.507C502.802 554.813 498.49 556.454 495.271 555.849C496.843 555.588 498.41 555.326 499.982 555.071C498.553 555.326 497.123 555.599 495.699 555.885C492.855 556.462 490.021 557.099 487.197 557.796C479.819 559.622 472.501 561.846 465.297 564.504C462.041 565.702 458.805 566.992 455.593 568.372C453.668 569.201 451.748 570.06 449.842 570.961C447.191 572.213 442.807 576.062 450.382 570.532C444.049 575.156 436.894 578.248 430.497 582.89C427.036 585.404 423.649 588.069 420.36 590.909C419.28 591.839 418.225 592.945 417.115 593.791C425.643 587.3 418.2 592.806 416.183 594.944C413.67 597.614 411.245 600.404 408.91 603.303C406.422 606.395 403.848 611.979 400.941 614.27C404.928 611.127 404.586 608.087 402.59 611.715C401.457 613.774 400.275 615.773 399.186 617.861C397.023 622.003 395.042 626.289 393.253 630.695C392.405 632.79 391.769 635.354 390.739 637.31C395.408 628.436 392.341 632.621 391.254 636.363C390.157 640.153 389.193 643.997 388.351 647.883C387.339 652.566 386.645 657.291 385.868 662.033C384.755 668.858 386.234 658.805 386.224 658.154C386.276 661.309 385.655 664.67 385.491 667.837C385.017 676.833 385.104 685.87 385.677 694.852C385.807 696.915 385.966 698.978 386.15 701.035C386.487 704.866 388.318 708.537 385.833 698.641C387.204 704.105 387.445 710.336 388.482 715.945C390.008 724.208 391.882 732.368 394.061 740.401C395.377 745.244 396.801 750.044 398.328 754.796C398.644 755.779 401.048 763.781 398.993 756.912C396.914 749.959 400.195 760.024 400.668 761.266C407.597 779.433 416.126 796.537 425.573 812.886C427.748 816.647 429.967 820.367 432.225 824.05C432.678 824.785 433.131 825.521 433.588 826.256C435.802 829.806 435.414 829.186 432.417 824.399C433.092 826.281 434.862 828.191 435.925 829.812C441.351 838.082 446.954 846.171 452.675 854.132C464.166 870.116 476.128 885.563 488.148 900.942C537.151 963.649 585.845 1027.51 611.069 1110.3C632.213 1179.7 628.422 1257.33 600.681 1322.99C578.21 1376.18 539.698 1418.36 497.539 1447.35C452.419 1478.37 402.709 1495.88 351.668 1504.03C329.5 1507.57 307.089 1508.92 284.75 1507.51C259.369 1505.9 233.141 1501.9 209.025 1491.72C177.975 1478.62 146.38 1455.78 131.666 1418.01C112.604 1369.09 122.124 1313.83 150.512 1273.74C173.057 1241.89 208.137 1223.71 242.167 1222.58C277.842 1221.41 312.696 1241.11 338.245 1270.91C364.999 1302.11 379.623 1344.16 383.854 1388.61C387.738 1429.38 379.423 1470.22 365.347 1506.96C335.5 1584.88 275.178 1634.82 210.551 1662.04C175.316 1676.88 138.336 1684.96 101.372 1689.83C65.4248 1694.57 29.0757 1694.74 -6.90422 1690.37C-44.3482 1685.83 -81.3733 1677.42 -117.386 1664C-134.336 1657.68 -146.835 1634.63 -141.112 1612.83C-135.599 1591.83 -117.613 1576.92 -99.4394 1583.7Z"/>
</mask>
<path d="M-99.4394 1583.7C-81.7525 1590.29 -63.816 1595.81 -45.6596 1600.1C-36.9769 1602.15 -28.2553 1603.86 -19.5092 1605.44C-17.2096 1605.86 -14.0884 1607.67 -21.3566 1605.14C-19.1599 1605.91 -16.4481 1605.88 -14.1782 1606.2C-9.38765 1606.86 -4.58737 1607.45 0.212811 1607.95C36.2364 1611.71 72.58 1610.95 108.472 1605.59C110.481 1605.29 118.384 1603.2 109.023 1605.56C110.575 1605.17 112.22 1605 113.792 1604.7C118.562 1603.83 123.316 1602.87 128.061 1601.83C136.848 1599.91 145.596 1597.71 154.289 1595.2C170.845 1590.42 187.199 1584.51 203.1 1577.08C205.216 1576.1 207.308 1575.04 209.42 1574.03C212.356 1572.64 212.987 1574.22 207.583 1575.03C211.439 1574.45 216.407 1570.19 219.903 1568.1C227.342 1563.65 234.618 1558.8 241.683 1553.52C248.374 1548.52 254.5 1542.61 261.034 1537.38C252.094 1544.54 260.867 1537.36 263.08 1535.02C266.482 1531.43 269.784 1527.69 272.979 1523.82C277.798 1517.98 282.371 1511.85 286.688 1505.44C287.699 1503.94 288.616 1502.19 289.73 1500.81C283.184 1508.92 287.518 1504.35 289.102 1501.65C291.373 1497.81 293.546 1493.88 295.62 1489.87C299.406 1482.55 302.863 1474.98 305.936 1467.17C306.769 1465.05 307.543 1462.89 308.352 1460.76C309.474 1457.79 309.054 1455.05 307.176 1464.22C308.164 1459.4 310.135 1454.68 311.364 1449.92C313.366 1442.16 314.965 1434.25 316.117 1426.23C316.61 1422.8 316.368 1415.58 316.03 1428.13C316.092 1425.84 316.449 1423.51 316.599 1421.22C316.899 1416.6 317.042 1411.96 317.023 1407.32C317.005 1403.44 316.874 1399.57 316.63 1395.7C316.48 1393.39 316.11 1391.03 316.053 1388.72C316.369 1401.11 316.628 1393.95 316.094 1390.48C314.77 1381.82 312.841 1373.3 310.338 1365.04L309.624 1362.74C308.279 1358.65 308.643 1359.68 310.712 1365.81C309.679 1364.1 309.062 1361.44 308.26 1359.52C306.822 1356.06 305.267 1352.68 303.598 1349.38C302.594 1347.4 301.551 1345.45 300.473 1343.53C299.898 1342.51 295.977 1336.39 299.755 1342.1C303.562 1347.86 299.465 1341.76 298.835 1340.86C297.192 1338.49 295.49 1336.19 293.724 1333.95C291.521 1331.16 289.224 1328.49 286.844 1325.93C285.447 1324.44 283.761 1323.09 282.473 1321.47C288.262 1328.77 286.426 1325.18 284.022 1323.12C277.999 1317.95 271.447 1314.55 265.145 1310.11C273.286 1315.86 269.013 1312.12 266.246 1310.94C264.472 1310.18 262.683 1309.48 260.875 1308.84C257.852 1307.78 254.786 1307.05 251.725 1306.2C244.85 1304.29 260.318 1306.96 253.267 1306.37C252.029 1306.26 250.796 1306.1 249.553 1306C245.254 1305.69 241.024 1305.98 236.736 1306.24C234.122 1306.4 231.594 1308.22 240.282 1305.54C238.524 1306.08 236.643 1306.27 234.865 1306.73C231.869 1307.51 228.907 1308.46 225.985 1309.59C224.232 1310.26 222.518 1311.07 220.78 1311.8C214.273 1314.51 228.277 1307.38 222.11 1311.1C218.816 1313.09 215.565 1315.14 212.438 1317.51C210.877 1318.69 209.399 1320.01 207.853 1321.22C203.381 1324.7 209.964 1319.17 210.317 1318.72C207.834 1321.91 204.736 1324.49 202.19 1327.66C200.084 1330.28 198.314 1333.45 196.169 1335.98C202.588 1328.39 198.946 1331.5 197.2 1334.74C196.199 1336.6 195.253 1338.49 194.356 1340.43C193.458 1342.38 192.689 1344.39 191.836 1346.37C188.674 1353.69 194.298 1336.69 192.419 1344.69C191.337 1349.29 190.275 1353.81 189.277 1358.44C187.267 1367.77 189.293 1349.05 189.238 1358.69C189.221 1361.55 189.027 1364.38 189.104 1367.24C189.149 1368.9 189.618 1371.41 189.413 1372.92C188.641 1366.57 188.596 1365.69 189.283 1370.28C189.614 1372.13 189.999 1373.97 190.443 1375.8C190.867 1377.54 191.404 1379.22 191.877 1380.94C193.272 1386.04 187.776 1371.09 190.897 1377.85C192.275 1380.84 193.877 1386.67 196.237 1388.66C196.212 1388.63 190.442 1380.31 194.092 1385.21C195.253 1386.77 196.35 1388.38 197.55 1389.9C199.984 1392.99 202.674 1395.63 205.275 1398.48C196.797 1389.19 205.87 1398.64 208.579 1400.66C211.145 1402.58 213.78 1404.37 216.459 1406.05C218.086 1407.06 219.752 1407.97 221.384 1408.96C226.24 1411.9 218.715 1407.6 218.332 1407.45C222.421 1408.98 226.368 1411.26 230.456 1412.86C241.927 1417.35 253.681 1420.22 265.567 1422.43C271.458 1423.52 256.113 1421 262.053 1421.86C263.208 1422.02 264.368 1422.2 265.522 1422.36C268.092 1422.71 270.662 1423.03 273.241 1423.3C278.719 1423.89 284.212 1424.3 289.705 1424.54C300.769 1425.04 311.857 1424.87 322.909 1424.11C328.436 1423.73 333.952 1423.2 339.459 1422.52C341.984 1422.21 344.504 1421.87 347.019 1421.5C348.537 1421.27 350.045 1421.02 351.562 1420.8C339.739 1422.51 346.061 1421.72 348.615 1421.25C371.529 1417.09 394.161 1410.47 416.093 1401.3C421.446 1399.06 426.759 1396.67 432.023 1394.12C434.41 1392.97 436.767 1391.74 439.143 1390.56C427.236 1396.48 439.438 1390.29 442.256 1388.68C452.337 1382.93 462.181 1376.54 471.696 1369.48C476.384 1366 480.994 1362.35 485.51 1358.52C487.547 1356.8 489.565 1355.04 491.558 1353.25C492.751 1352.17 493.929 1351.08 495.116 1349.99C499.829 1345.67 488.632 1356.35 492.917 1352.06C501.59 1343.39 509.894 1334.25 517.524 1324.18C521.126 1319.44 524.521 1314.49 527.857 1309.46C529.334 1307.23 531.305 1303.34 525.208 1313.71C526.047 1312.29 526.93 1310.9 527.774 1309.48C529.456 1306.63 531.085 1303.73 532.659 1300.79C535.548 1295.4 538.244 1289.86 540.74 1284.19C541.877 1281.6 542.97 1278.98 544.024 1276.34C545.465 1272.71 549.79 1258.49 545.333 1273.35C549.09 1260.82 552.532 1248.42 554.702 1235.3C555.205 1232.26 555.649 1229.21 556.044 1226.15C556.469 1222.84 556.737 1215.58 555.699 1229.76C555.834 1227.87 556.059 1225.99 556.209 1224.1C556.865 1215.89 557.167 1207.64 557.061 1199.4C557.003 1194.58 556.807 1189.77 556.473 1184.97C556.324 1182.8 556.101 1180.63 555.937 1178.46C555.484 1172.44 557.455 1189.38 556.15 1180.47C554.632 1170.15 552.904 1160 550.463 1149.94C549.447 1145.76 548.342 1141.6 547.16 1137.48C546.026 1133.53 542.502 1126.81 542.543 1122.73C542.534 1123.5 545.922 1131.97 543.41 1125.39C542.494 1122.99 541.622 1120.57 540.692 1118.18C538.825 1113.37 536.856 1108.63 534.808 1103.94C526.887 1085.8 517.689 1068.51 507.706 1051.98C506.835 1050.54 505.945 1049.12 505.079 1047.68C500.464 1040.03 509.885 1055.01 505.03 1047.6C502.526 1043.77 500.031 1039.93 497.473 1036.15C492.037 1028.12 486.425 1020.27 480.724 1012.52C457.925 981.551 433.6 952.33 410.796 921.358C387.27 889.403 364.247 855.209 347.705 817.025C330.942 778.341 320.062 736.324 317.717 692.487C315.543 651.72 323.089 608.111 341.701 573.856C362.722 535.169 393.261 509.731 427.939 492.564C493.091 460.31 575.256 459.218 630.911 517.373C678.094 566.677 691.135 650.763 679.513 722.466C666.811 800.814 618.714 863.625 565.223 904.942C536.941 926.789 505.814 943.432 474.227 956.614C437.71 971.853 399.439 981.357 360.921 984.231C292.457 989.336 219.73 968.957 163.812 918.705C134.581 892.435 110.313 860.463 91.6588 822.191C73.7921 785.529 61.2274 744.674 51.7183 703.681C31.5114 616.582 20.9638 525.048 17.0642 434.73C13.0843 342.535 17.677 250.22 29.3549 159.055C34.8622 116.088 42.2121 73.5046 51.2967 31.4618C55.8414 10.4192 75.6408 -4.52629 92.9693 2.33414C110.573 9.30283 121.563 30.9522 116.69 53.5093C107.19 97.4832 99.5865 142.052 94.0024 187.028C93.3294 192.464 92.7056 197.907 92.0621 203.349C90.8384 213.691 93.0261 193.804 91.9646 204.17C91.76 206.155 91.5506 208.134 91.351 210.119C90.1435 222.023 89.0736 233.952 88.1412 245.892C86.3542 268.783 85.0733 291.733 84.2984 314.707C82.7821 359.66 83.2113 404.707 85.5808 449.606C86.7406 471.552 88.3671 493.467 90.4552 515.309C91.0207 521.208 91.3161 527.337 92.2696 533.164C90.6442 523.224 91.7595 528.652 92.0318 531.016C92.3784 533.984 92.7152 536.958 93.0667 539.925C94.4826 551.796 96.0409 563.643 97.7318 575.453C103.724 617.252 111.053 659.026 121.485 699.522C123.906 708.924 126.518 718.254 129.356 727.48C130.642 731.659 132.007 735.802 133.357 739.951C136.234 748.797 130.121 731.201 133.342 739.86C134.548 743.098 135.711 746.354 136.952 749.574C143.728 767.187 151.584 784.195 160.761 800.086C162.01 802.25 163.309 804.372 164.584 806.518C168.928 813.824 160.796 800.906 163.929 805.439C166.507 809.17 169.001 812.973 171.672 816.607C177.24 824.201 183.181 831.385 189.437 838.121C192.043 840.923 194.728 843.598 197.398 846.297C203.151 852.117 191.04 840.707 197.117 846.008C198.529 847.236 199.915 848.514 201.331 849.736C207.846 855.375 214.6 860.596 221.542 865.395C228.203 870.001 235.035 874.221 242.01 878.061C242.644 878.41 243.283 878.753 243.917 879.102C247.244 880.865 246.468 880.474 241.582 877.923C243.155 878.234 244.934 879.583 246.438 880.293C250.665 882.302 254.931 884.179 259.236 885.923C273.808 891.822 288.79 896.194 303.959 899.045C304.647 899.171 305.334 899.297 306.027 899.423C309.717 900.057 308.784 899.908 303.222 898.968C305.142 898.543 308.16 899.667 310.11 899.9C314.124 900.389 318.148 900.776 322.177 901.06C331.831 901.753 341.509 901.891 351.177 901.51C360.044 901.161 368.896 900.377 377.714 899.195C379.718 898.927 381.722 898.598 383.726 898.324C388.938 897.599 375.106 900.007 383.117 898.403C388.304 897.365 393.491 896.362 398.658 895.143C416.556 890.932 434.207 885.208 451.523 878.229C459.709 874.93 467.827 871.354 475.851 867.507C478.969 866.012 482.048 864.391 485.166 862.885C475.703 867.453 482.5 864.258 484.483 863.182C486.948 861.845 489.404 860.485 491.844 859.088C505.288 851.402 518.387 842.782 530.94 833.089C537.185 828.266 543.292 823.178 549.231 817.801C550.964 816.236 556.422 810.57 548.755 818.369C549.781 817.324 550.851 816.339 551.887 815.312C555.504 811.724 559.052 808.021 562.503 804.198C567.656 798.49 572.617 792.517 577.337 786.267C579.801 783.006 582.205 779.672 584.535 776.261C585.737 774.503 586.89 772.143 588.279 770.621C582.34 777.108 585.811 774.618 587.768 771.334C592.051 764.137 596.008 756.651 599.602 748.906C601.411 745.006 603.122 741.04 604.74 737.02C605.397 735.385 606.039 733.737 606.656 732.077C610.386 722.057 604.609 739.036 606.617 732.222C608.792 724.835 610.848 717.454 612.404 709.82C613.113 706.35 613.743 702.857 614.295 699.351C614.627 697.239 614.896 695.121 615.208 693.003C616.38 685.086 614.348 703.049 614.965 695.555C615.611 687.706 616.071 679.874 616.054 671.984C616.05 667.7 615.928 663.417 615.693 659.146C615.468 655.056 613.244 640.598 615.636 655.37C614.4 647.728 613.45 640.14 611.748 632.613C610.989 629.242 610.146 625.901 609.219 622.596C608.667 620.618 608.086 618.658 607.475 616.71C604.607 607.568 609.055 620.551 607.957 618.012C605.186 611.603 602.763 605.073 599.583 598.924C597.915 595.692 590.408 584.813 598.126 595.596C595.913 592.498 593.881 589.255 591.569 586.247C589.454 583.493 587.241 580.854 584.939 578.335C583.887 577.184 582.795 576.088 581.733 574.955C576.821 569.701 588.626 580.87 583.213 576.352C580.72 574.274 578.267 572.172 575.686 570.269C573.858 568.92 571.989 567.638 570.102 566.416C568.391 565.308 563.531 563.716 562.439 561.907C562.847 562.582 570.185 565.432 564.646 563.165C562.636 562.341 560.66 561.409 558.635 560.615C554.925 559.166 551.16 557.935 547.362 556.89C543.681 555.875 539.358 555.797 535.825 554.311C537.412 554.58 538.999 554.85 540.586 555.119C539.166 554.922 537.741 554.743 536.316 554.594C534.174 554.362 532.022 554.189 529.875 554.06C521.945 553.581 513.987 553.773 506.073 554.507C502.802 554.813 498.49 556.454 495.271 555.849C496.843 555.588 498.41 555.326 499.982 555.071C498.553 555.326 497.123 555.599 495.699 555.885C492.855 556.462 490.021 557.099 487.197 557.796C479.819 559.622 472.501 561.846 465.297 564.504C462.041 565.702 458.805 566.992 455.593 568.372C453.668 569.201 451.748 570.06 449.842 570.961C447.191 572.213 442.807 576.062 450.382 570.532C444.049 575.156 436.894 578.248 430.497 582.89C427.036 585.404 423.649 588.069 420.36 590.909C419.28 591.839 418.225 592.945 417.115 593.791C425.643 587.3 418.2 592.806 416.183 594.944C413.67 597.614 411.245 600.404 408.91 603.303C406.422 606.395 403.848 611.979 400.941 614.27C404.928 611.127 404.586 608.087 402.59 611.715C401.457 613.774 400.275 615.773 399.186 617.861C397.023 622.003 395.042 626.289 393.253 630.695C392.405 632.79 391.769 635.354 390.739 637.31C395.408 628.436 392.341 632.621 391.254 636.363C390.157 640.153 389.193 643.997 388.351 647.883C387.339 652.566 386.645 657.291 385.868 662.033C384.755 668.858 386.234 658.805 386.224 658.154C386.276 661.309 385.655 664.67 385.491 667.837C385.017 676.833 385.104 685.87 385.677 694.852C385.807 696.915 385.966 698.978 386.15 701.035C386.487 704.866 388.318 708.537 385.833 698.641C387.204 704.105 387.445 710.336 388.482 715.945C390.008 724.208 391.882 732.368 394.061 740.401C395.377 745.244 396.801 750.044 398.328 754.796C398.644 755.779 401.048 763.781 398.993 756.912C396.914 749.959 400.195 760.024 400.668 761.266C407.597 779.433 416.126 796.537 425.573 812.886C427.748 816.647 429.967 820.367 432.225 824.05C432.678 824.785 433.131 825.521 433.588 826.256C435.802 829.806 435.414 829.186 432.417 824.399C433.092 826.281 434.862 828.191 435.925 829.812C441.351 838.082 446.954 846.171 452.675 854.132C464.166 870.116 476.128 885.563 488.148 900.942C537.151 963.649 585.845 1027.51 611.069 1110.3C632.213 1179.7 628.422 1257.33 600.681 1322.99C578.21 1376.18 539.698 1418.36 497.539 1447.35C452.419 1478.37 402.709 1495.88 351.668 1504.03C329.5 1507.57 307.089 1508.92 284.75 1507.51C259.369 1505.9 233.141 1501.9 209.025 1491.72C177.975 1478.62 146.38 1455.78 131.666 1418.01C112.604 1369.09 122.124 1313.83 150.512 1273.74C173.057 1241.89 208.137 1223.71 242.167 1222.58C277.842 1221.41 312.696 1241.11 338.245 1270.91C364.999 1302.11 379.623 1344.16 383.854 1388.61C387.738 1429.38 379.423 1470.22 365.347 1506.96C335.5 1584.88 275.178 1634.82 210.551 1662.04C175.316 1676.88 138.336 1684.96 101.372 1689.83C65.4248 1694.57 29.0757 1694.74 -6.90422 1690.37C-44.3482 1685.83 -81.3733 1677.42 -117.386 1664C-134.336 1657.68 -146.835 1634.63 -141.112 1612.83C-135.599 1591.83 -117.613 1576.92 -99.4394 1583.7Z" fill="#D3ECF2" stroke="#D3ECF2" stroke-width="30" mask="url(#path-1-inside-1_193_367)"/>
</svg>
